<?xml version="1.0" encoding="utf-8"?>
<!-- Generator: Adobe Illustrator 16.0.0, SVG Export Plug-In . SVG Version: 6.00 Build 0)  -->
<!DOCTYPE svg PUBLIC "-//W3C//DTD SVG 1.1//EN" "http://www.w3.org/Graphics/SVG/1.1/DTD/svg11.dtd">
<svg version="1.1" id="Layer_1" xmlns="http://www.w3.org/2000/svg" xmlns:xlink="http://www.w3.org/1999/xlink" x="0px" y="0px"
	 width="164.598px" height="194.602px" viewBox="0 0 164.598 194.602" enable-background="new 0 0 164.598 194.602"
	 xml:space="preserve">
<path fill="#FFF200" d="M112.65,150.09c0,4.972-4.028,9-9,9h-54c-4.971,0-9-4.028-9-9V40.289c0-4.971,4.029-9,9-9h54
	c4.972,0,9,4.029,9,9V150.09z"/>
<path fill="#6D6E71" d="M105.35,60.026V38.49c0-1.933-1.566-3.5-3.5-3.5h-7.919v-0.461c0-1.789-1.449-3.24-3.239-3.24h-6.479
	c-1.79,0-3.24,1.451-3.24,3.24V47.49c0,1.789,1.45,3.24,3.24,3.24h6.479c1.79,0,3.239-1.451,3.239-3.24v-5.5h4.419v16.3h-30.7
	c-4.971,0-9,4.029-9,9v32.399c0,4.971,4.029,9,9,9h32.4c4.971,0,9-4.029,9-9V67.29C109.051,64.302,107.59,61.664,105.35,60.026z"/>
<g>
	<path fill="#ED1C24" d="M96.45,131.01H83.49c-1.79,0-3.24,1.449-3.24,3.239v6.48c0,1.79,1.45,3.239,3.24,3.239h12.96
		c1.79,0,3.239-1.449,3.239-3.239v-6.48C99.69,132.46,98.24,131.01,96.45,131.01z"/>
	<path fill="#ED1C24" d="M97.891,109.41h-6.479c-1.701,0-3.08,1.314-3.215,2.98h-9.053c-0.134-1.667-1.513-2.98-3.214-2.98H62.97
		c-1.79,0-3.24,1.449-3.24,3.239v6.479c0,1.79,1.45,3.24,3.24,3.24h6.581v8.641H62.97c-1.79,0-3.24,1.449-3.24,3.239v6.48
		c0,1.79,1.45,3.239,3.24,3.239h12.96c1.79,0,3.24-1.449,3.24-3.239v-6.48c0-1.577-1.127-2.887-2.619-3.177v-8.766
		c1.408-0.273,2.475-1.46,2.593-2.917h9.026v6.22c0,1.79,1.45,3.24,3.24,3.24h6.479c1.79,0,3.239-1.45,3.239-3.24v-12.96
		C101.13,110.86,99.681,109.41,97.891,109.41z"/>
	<path fill="#ED1C24" d="M96.45,144.689H83.49c-1.79,0-3.24,1.449-3.24,3.238v6.48c0,1.79,1.45,3.24,3.24,3.24h12.96
		c1.79,0,3.239-1.45,3.239-3.24v-6.48C99.69,146.139,98.24,144.689,96.45,144.689z"/>
	<path fill="#ED1C24" d="M75.93,144.689H62.97c-1.79,0-3.24,1.449-3.24,3.238v0.462H54.95V41.99h11.618v5.5
		c0,1.789,1.45,3.24,3.24,3.24h6.48c1.79,0,3.238-1.451,3.238-3.24V34.529c0-1.789-1.448-3.24-3.238-3.24h-6.48
		c-1.79,0-3.24,1.451-3.24,3.24v0.461H51.45c-1.934,0-3.5,1.567-3.5,3.5v113.4c0,1.933,1.566,3.5,3.5,3.5h8.445
		c0.418,1.308,1.627,2.26,3.073,2.26h12.96c1.79,0,3.24-1.45,3.24-3.24v-6.479C79.17,146.139,77.72,144.689,75.93,144.689z"/>
</g>
<g>
	<circle fill="#151A20" cx="73.05" cy="38.49" r="1.44"/>
	<circle fill="#151A20" cx="87.45" cy="38.49" r="1.439"/>
	<g>
		<circle fill="#151A20" cx="73.05" cy="115.891" r="1.44"/>
		<circle fill="#151A20" cx="94.65" cy="115.891" r="1.439"/>
	</g>
	<circle fill="#151A20" cx="73.05" cy="137.49" r="1.44"/>
	<circle fill="#151A20" cx="87.45" cy="137.49" r="1.44"/>
	<circle fill="#151A20" cx="73.05" cy="151.89" r="1.44"/>
	<circle fill="#151A20" cx="87.45" cy="151.89" r="1.44"/>
</g>
<path fill="#ED1C24" d="M75.64,53.975h-2.253v-2.253c0-0.187-0.15-0.338-0.337-0.338c-0.188,0-0.338,0.151-0.338,0.338v2.253H70.46
	c-0.188,0-0.338,0.149-0.338,0.337c0,0.187,0.15,0.338,0.338,0.338h2.252v2.253c0,0.186,0.15,0.337,0.338,0.337
	c0.187,0,0.337-0.151,0.337-0.337V54.65h2.253c0.188,0,0.338-0.151,0.338-0.338C75.978,54.125,75.826,53.975,75.64,53.975z"/>
<path fill="#ED1C24" d="M90.04,53.975h-2.071h-0.182H84.86c-0.187,0-0.338,0.149-0.338,0.337c0,0.187,0.151,0.338,0.338,0.338h2.928
	h0.182h2.071c0.187,0,0.338-0.151,0.338-0.338C90.378,54.125,90.227,53.975,90.04,53.975z"/>
</svg>
