<?xml version="1.0" encoding="utf-8"?>
<!-- Generator: Adobe Illustrator 16.0.0, SVG Export Plug-In . SVG Version: 6.00 Build 0)  -->
<!DOCTYPE svg PUBLIC "-//W3C//DTD SVG 1.1//EN" "http://www.w3.org/Graphics/SVG/1.1/DTD/svg11.dtd">
<svg version="1.1" id="Layer_1" xmlns="http://www.w3.org/2000/svg" xmlns:xlink="http://www.w3.org/1999/xlink" x="0px" y="0px"
	 width="1008px" height="432px" viewBox="0 0 1008 432" enable-background="new 0 0 1008 432" xml:space="preserve">
<g>
	<path fill="#ED1C24" stroke="#ED1C24" stroke-width="0.25" stroke-miterlimit="10" d="M800.253,379.353
		c0.084-0.287,0.185-0.545,0.301-0.771c0.115-0.225,0.255-0.416,0.416-0.572c0.162-0.156,0.349-0.273,0.559-0.354
		s0.449-0.121,0.717-0.121c0.116,0,0.235,0.01,0.357,0.027c0.121,0.018,0.23,0.053,0.326,0.105l-0.023,0.048
		c-0.008,0.012-0.016,0.022-0.021,0.032c-0.006,0.011-0.019,0.016-0.039,0.016c-0.02,0-0.045-0.005-0.077-0.016
		c-0.032-0.01-0.071-0.021-0.117-0.032c-0.046-0.013-0.103-0.022-0.168-0.033c-0.065-0.01-0.146-0.015-0.237-0.015
		c-0.264,0-0.498,0.042-0.701,0.126c-0.205,0.084-0.386,0.208-0.543,0.372c-0.158,0.164-0.299,0.369-0.42,0.617
		c-0.123,0.248-0.231,0.537-0.328,0.865v3.863h-0.144v-5.88h0.036c0.056,0,0.084,0.032,0.084,0.096L800.253,379.353z"/>
	<path fill="#ED1C24" stroke="#ED1C24" stroke-width="0.25" stroke-miterlimit="10" d="M808.089,382.815
		c-0.068,0.084-0.169,0.17-0.303,0.26c-0.135,0.09-0.292,0.174-0.475,0.25c-0.182,0.076-0.381,0.138-0.596,0.186
		c-0.217,0.048-0.439,0.072-0.666,0.072c-0.404,0-0.767-0.071-1.087-0.213c-0.319-0.143-0.591-0.348-0.813-0.615
		c-0.221-0.268-0.393-0.596-0.512-0.984c-0.121-0.388-0.181-0.828-0.181-1.32c0-0.432,0.058-0.826,0.174-1.185
		s0.284-0.665,0.505-0.921c0.219-0.256,0.488-0.455,0.807-0.598c0.318-0.141,0.679-0.213,1.082-0.213
		c0.309,0,0.599,0.056,0.871,0.166c0.271,0.109,0.509,0.272,0.711,0.488c0.201,0.217,0.36,0.481,0.477,0.795
		c0.116,0.314,0.174,0.676,0.174,1.084c0,0.02-0.007,0.034-0.021,0.045c-0.015,0.01-0.031,0.015-0.052,0.015h-4.571
		c-0.005,0.056-0.007,0.11-0.009,0.161c-0.002,0.053-0.004,0.106-0.004,0.162c0,0.488,0.059,0.92,0.174,1.293
		c0.117,0.375,0.281,0.688,0.496,0.942c0.213,0.255,0.472,0.447,0.773,0.579c0.303,0.133,0.637,0.198,1.006,0.198
		c0.327,0,0.611-0.036,0.852-0.108s0.439-0.152,0.6-0.24s0.282-0.168,0.366-0.24c0.084-0.071,0.134-0.107,0.149-0.107
		c0.017,0,0.032,0.008,0.049,0.023L808.089,382.815z M808.125,380.019c0-0.38-0.054-0.717-0.162-1.011s-0.257-0.541-0.446-0.741
		c-0.19-0.199-0.414-0.352-0.67-0.456s-0.529-0.155-0.822-0.155c-0.352,0-0.668,0.056-0.95,0.168
		c-0.282,0.111-0.524,0.271-0.729,0.479c-0.203,0.208-0.367,0.457-0.488,0.747c-0.123,0.29-0.201,0.613-0.237,0.969H808.125z"/>
	<path fill="#ED1C24" stroke="#ED1C24" stroke-width="0.25" stroke-miterlimit="10" d="M814.329,374.87v8.641h-0.036
		c-0.056,0-0.084-0.031-0.084-0.096l-0.024-1.141c-0.264,0.404-0.582,0.723-0.957,0.957c-0.373,0.234-0.782,0.352-1.227,0.352
		c-0.764,0-1.347-0.245-1.749-0.735c-0.401-0.489-0.603-1.245-0.603-2.265c0-0.424,0.054-0.822,0.162-1.194
		c0.107-0.372,0.27-0.694,0.486-0.969c0.215-0.274,0.484-0.49,0.807-0.647c0.322-0.158,0.697-0.238,1.125-0.238
		c0.863,0,1.516,0.351,1.955,1.051v-3.715H814.329z M814.185,378.776c-0.127-0.203-0.263-0.377-0.404-0.521
		c-0.143-0.145-0.293-0.26-0.453-0.348s-0.331-0.152-0.514-0.192c-0.182-0.04-0.377-0.06-0.584-0.06
		c-0.412,0-0.771,0.074-1.074,0.225c-0.305,0.15-0.557,0.357-0.76,0.621c-0.201,0.264-0.353,0.574-0.452,0.93
		c-0.101,0.355-0.15,0.74-0.15,1.152c0,0.976,0.187,1.699,0.562,2.172c0.373,0.472,0.923,0.708,1.646,0.708
		c0.436,0,0.842-0.122,1.215-0.366c0.375-0.244,0.697-0.58,0.969-1.008V378.776z"/>
	<path fill="#ED1C24" stroke="#ED1C24" stroke-width="0.25" stroke-miterlimit="10" d="M820.173,374.87v8.641h-0.145v-8.641H820.173
		z"/>
	<path fill="#ED1C24" stroke="#ED1C24" stroke-width="0.25" stroke-miterlimit="10" d="M822.933,375.446
		c0,0.084-0.035,0.16-0.105,0.226c-0.069,0.065-0.146,0.099-0.23,0.099c-0.092,0-0.171-0.033-0.236-0.099
		c-0.066-0.065-0.1-0.142-0.1-0.226c0-0.092,0.033-0.17,0.1-0.236c0.065-0.066,0.145-0.1,0.236-0.1c0.084,0,0.161,0.033,0.23,0.1
		C822.897,375.276,822.933,375.354,822.933,375.446z M822.669,377.631v5.88h-0.145v-5.88H822.669z"/>
	<path fill="#ED1C24" stroke="#ED1C24" stroke-width="0.25" stroke-miterlimit="10" d="M825.093,378.854
		c0.136-0.199,0.289-0.382,0.459-0.546s0.354-0.303,0.549-0.417c0.196-0.113,0.402-0.201,0.618-0.264s0.438-0.094,0.666-0.094
		c0.651,0,1.14,0.195,1.461,0.582c0.321,0.389,0.483,0.931,0.483,1.627v3.768h-0.145v-3.768c0-0.328-0.035-0.621-0.107-0.879
		s-0.184-0.478-0.334-0.658c-0.149-0.18-0.338-0.316-0.563-0.41s-0.491-0.141-0.795-0.141c-0.46,0-0.884,0.121-1.272,0.365
		c-0.388,0.244-0.728,0.582-1.02,1.014v4.477h-0.145v-5.88h0.037c0.055,0,0.084,0.032,0.084,0.096L825.093,378.854z"/>
	<path fill="#ED1C24" stroke="#ED1C24" stroke-width="0.25" stroke-miterlimit="10" d="M835.73,382.815
		c-0.067,0.084-0.169,0.17-0.303,0.26s-0.292,0.174-0.474,0.25c-0.183,0.076-0.381,0.138-0.598,0.186
		c-0.216,0.048-0.438,0.072-0.666,0.072c-0.404,0-0.766-0.071-1.086-0.213c-0.32-0.143-0.591-0.348-0.812-0.615
		c-0.223-0.268-0.393-0.596-0.514-0.984c-0.119-0.388-0.18-0.828-0.18-1.32c0-0.432,0.059-0.826,0.174-1.185
		c0.116-0.358,0.284-0.665,0.504-0.921c0.221-0.256,0.489-0.455,0.807-0.598c0.318-0.141,0.68-0.213,1.084-0.213
		c0.308,0,0.598,0.056,0.869,0.166c0.272,0.109,0.51,0.272,0.711,0.488c0.203,0.217,0.361,0.481,0.478,0.795
		c0.116,0.314,0.175,0.676,0.175,1.084c0,0.02-0.008,0.034-0.021,0.045c-0.014,0.01-0.031,0.015-0.051,0.015h-4.572
		c-0.004,0.056-0.008,0.11-0.01,0.161c-0.002,0.053-0.002,0.106-0.002,0.162c0,0.488,0.058,0.92,0.174,1.293
		c0.115,0.375,0.281,0.688,0.494,0.942c0.215,0.255,0.473,0.447,0.774,0.579c0.302,0.133,0.638,0.198,1.005,0.198
		c0.328,0,0.612-0.036,0.852-0.108c0.24-0.072,0.441-0.152,0.601-0.24c0.16-0.088,0.282-0.168,0.366-0.24
		c0.084-0.071,0.134-0.107,0.15-0.107c0.016,0,0.031,0.008,0.047,0.023L835.73,382.815z M835.767,380.019
		c0-0.38-0.054-0.717-0.162-1.011c-0.107-0.294-0.257-0.541-0.447-0.741c-0.189-0.199-0.412-0.352-0.668-0.456
		s-0.531-0.155-0.822-0.155c-0.353,0-0.67,0.056-0.951,0.168c-0.282,0.111-0.525,0.271-0.729,0.479
		c-0.205,0.208-0.367,0.457-0.49,0.747c-0.121,0.29-0.2,0.613-0.236,0.969H835.767z"/>
	<path fill="#ED1C24" stroke="#ED1C24" stroke-width="0.25" stroke-miterlimit="10" d="M841.556,375.446
		c0,0.084-0.035,0.16-0.104,0.226s-0.147,0.099-0.231,0.099c-0.092,0-0.17-0.033-0.236-0.099s-0.1-0.142-0.1-0.226
		c0-0.092,0.033-0.17,0.1-0.236s0.145-0.1,0.236-0.1c0.084,0,0.162,0.033,0.231,0.1S841.556,375.354,841.556,375.446z
		 M841.292,377.631v5.88h-0.145v-5.88H841.292z"/>
	<path fill="#ED1C24" stroke="#ED1C24" stroke-width="0.25" stroke-miterlimit="10" d="M846.626,378.147
		c-0.012,0.023-0.031,0.035-0.06,0.035c-0.032,0-0.079-0.027-0.142-0.081c-0.062-0.054-0.151-0.114-0.27-0.18
		s-0.268-0.127-0.447-0.183c-0.18-0.057-0.402-0.084-0.666-0.084c-0.248,0-0.475,0.037-0.681,0.113s-0.384,0.178-0.531,0.303
		c-0.147,0.127-0.263,0.271-0.345,0.436s-0.123,0.336-0.123,0.516c0,0.213,0.05,0.389,0.15,0.531c0.1,0.143,0.23,0.262,0.393,0.359
		c0.162,0.099,0.348,0.182,0.555,0.25c0.208,0.068,0.42,0.135,0.637,0.201c0.216,0.065,0.428,0.136,0.636,0.209
		c0.208,0.074,0.394,0.168,0.555,0.279c0.162,0.112,0.293,0.249,0.394,0.411c0.1,0.162,0.149,0.363,0.149,0.603
		c0,0.24-0.043,0.467-0.129,0.679s-0.211,0.396-0.375,0.552s-0.364,0.28-0.603,0.372s-0.51,0.138-0.813,0.138
		c-0.212,0-0.401-0.017-0.569-0.051s-0.322-0.081-0.463-0.141c-0.14-0.061-0.271-0.135-0.396-0.223s-0.246-0.186-0.366-0.293
		l0.036-0.037c0.012-0.012,0.022-0.021,0.03-0.026c0.008-0.007,0.021-0.009,0.041-0.009c0.033,0,0.084,0.033,0.156,0.102
		s0.174,0.145,0.303,0.229c0.131,0.084,0.295,0.16,0.496,0.228c0.199,0.067,0.443,0.103,0.731,0.103s0.543-0.043,0.765-0.127
		c0.223-0.084,0.409-0.199,0.562-0.345c0.151-0.146,0.267-0.315,0.345-0.51s0.117-0.403,0.117-0.627c0-0.228-0.05-0.417-0.15-0.567
		c-0.1-0.15-0.23-0.277-0.393-0.381s-0.348-0.191-0.555-0.261c-0.209-0.07-0.42-0.138-0.637-0.201
		c-0.216-0.063-0.428-0.132-0.636-0.204s-0.394-0.16-0.555-0.268c-0.162-0.105-0.294-0.236-0.394-0.393s-0.149-0.35-0.149-0.582
		c0-0.195,0.044-0.383,0.132-0.561s0.212-0.336,0.372-0.475c0.159-0.138,0.351-0.248,0.573-0.33
		c0.222-0.082,0.467-0.123,0.734-0.123c0.332,0,0.625,0.045,0.877,0.136c0.252,0.09,0.495,0.237,0.731,0.44L846.626,378.147z"/>
	<path fill="#ED1C24" stroke="#ED1C24" stroke-width="0.25" stroke-miterlimit="10" d="M851.833,378.471
		c0.289-0.304,0.586-0.536,0.895-0.696s0.666-0.24,1.074-0.24c0.3,0,0.559,0.049,0.777,0.145c0.218,0.096,0.398,0.234,0.543,0.414
		c0.144,0.18,0.25,0.398,0.317,0.656c0.068,0.259,0.103,0.55,0.103,0.873v3.889h-0.024c-0.056,0-0.084-0.031-0.084-0.096
		l-0.036-0.961c-0.168,0.177-0.336,0.336-0.504,0.478s-0.346,0.263-0.533,0.363c-0.189,0.1-0.391,0.177-0.606,0.231
		c-0.216,0.053-0.456,0.08-0.72,0.08c-0.177,0-0.354-0.027-0.535-0.08c-0.18-0.055-0.342-0.141-0.485-0.259
		s-0.263-0.271-0.354-0.456s-0.138-0.412-0.138-0.681c0-0.265,0.078-0.501,0.234-0.711c0.155-0.21,0.393-0.39,0.711-0.537
		c0.317-0.147,0.72-0.265,1.206-0.351s1.061-0.138,1.725-0.153v-0.757c0-0.307-0.033-0.584-0.102-0.827
		c-0.068-0.244-0.168-0.45-0.301-0.618c-0.131-0.168-0.297-0.297-0.498-0.387c-0.199-0.09-0.432-0.135-0.695-0.135
		c-0.208,0-0.396,0.021-0.564,0.065s-0.318,0.099-0.449,0.162c-0.133,0.063-0.248,0.134-0.346,0.21s-0.183,0.146-0.255,0.21
		c-0.071,0.063-0.13,0.118-0.174,0.162s-0.076,0.065-0.097,0.065c-0.016,0-0.035-0.012-0.059-0.035L851.833,378.471z
		 M855.397,380.499c-1.26,0.039-2.197,0.197-2.811,0.471c-0.614,0.273-0.922,0.661-0.922,1.161c0,0.235,0.039,0.438,0.117,0.608
		s0.182,0.311,0.31,0.42c0.128,0.111,0.274,0.192,0.438,0.246c0.164,0.055,0.332,0.082,0.504,0.082c0.275,0,0.525-0.033,0.75-0.097
		c0.224-0.063,0.431-0.149,0.621-0.258c0.189-0.108,0.365-0.233,0.527-0.375s0.316-0.291,0.465-0.447V380.499z"/>
	<path fill="#ED1C24" stroke="#ED1C24" stroke-width="0.25" stroke-miterlimit="10" d="M864.164,378.147
		c-0.013,0.023-0.032,0.035-0.06,0.035c-0.033,0-0.08-0.027-0.142-0.081s-0.151-0.114-0.271-0.18
		c-0.117-0.065-0.267-0.127-0.446-0.183c-0.181-0.057-0.402-0.084-0.666-0.084c-0.248,0-0.476,0.037-0.681,0.113
		c-0.207,0.076-0.384,0.178-0.531,0.303c-0.148,0.127-0.264,0.271-0.346,0.436s-0.123,0.336-0.123,0.516
		c0,0.213,0.051,0.389,0.15,0.531s0.23,0.262,0.393,0.359c0.162,0.099,0.348,0.182,0.556,0.25s0.42,0.135,0.636,0.201
		c0.217,0.065,0.428,0.136,0.637,0.209c0.207,0.074,0.393,0.168,0.555,0.279c0.162,0.112,0.293,0.249,0.393,0.411
		s0.15,0.363,0.15,0.603c0,0.24-0.043,0.467-0.129,0.679s-0.211,0.396-0.375,0.552s-0.365,0.28-0.604,0.372
		s-0.509,0.138-0.812,0.138c-0.213,0-0.402-0.017-0.57-0.051s-0.322-0.081-0.462-0.141c-0.14-0.061-0.272-0.135-0.396-0.223
		c-0.125-0.088-0.246-0.186-0.367-0.293l0.037-0.037c0.012-0.012,0.021-0.021,0.029-0.026c0.008-0.007,0.021-0.009,0.042-0.009
		c0.032,0,0.084,0.033,0.156,0.102c0.071,0.068,0.173,0.145,0.303,0.229s0.295,0.16,0.495,0.228s0.443,0.103,0.732,0.103
		c0.287,0,0.543-0.043,0.765-0.127s0.409-0.199,0.562-0.345c0.151-0.146,0.267-0.315,0.344-0.51
		c0.078-0.194,0.117-0.403,0.117-0.627c0-0.228-0.049-0.417-0.149-0.567s-0.231-0.277-0.394-0.381s-0.347-0.191-0.555-0.261
		c-0.208-0.07-0.42-0.138-0.636-0.201s-0.429-0.132-0.636-0.204c-0.209-0.072-0.394-0.16-0.555-0.268
		c-0.162-0.105-0.294-0.236-0.394-0.393c-0.101-0.156-0.149-0.35-0.149-0.582c0-0.195,0.043-0.383,0.131-0.561
		s0.213-0.336,0.373-0.475c0.159-0.138,0.351-0.248,0.572-0.33c0.223-0.082,0.467-0.123,0.735-0.123
		c0.331,0,0.624,0.045,0.876,0.136c0.252,0.09,0.496,0.237,0.732,0.44L864.164,378.147z"/>
	<path fill="#ED1C24" stroke="#ED1C24" stroke-width="0.25" stroke-miterlimit="10" d="M869.96,378.183
		c-0.017,0.016-0.033,0.023-0.049,0.023c-0.023,0-0.068-0.028-0.135-0.086c-0.066-0.059-0.162-0.121-0.288-0.189
		s-0.284-0.131-0.474-0.189c-0.19-0.058-0.42-0.086-0.688-0.086c-0.38,0-0.72,0.067-1.02,0.203c-0.301,0.137-0.555,0.33-0.762,0.582
		c-0.209,0.252-0.367,0.559-0.478,0.918c-0.11,0.36-0.165,0.765-0.165,1.213c0,0.463,0.055,0.875,0.165,1.232
		s0.267,0.66,0.472,0.906c0.203,0.246,0.448,0.433,0.734,0.561c0.285,0.129,0.605,0.192,0.957,0.192
		c0.312,0,0.576-0.036,0.792-0.108s0.394-0.152,0.534-0.24c0.14-0.088,0.246-0.168,0.318-0.24c0.071-0.071,0.119-0.107,0.144-0.107
		c0.016,0,0.032,0.008,0.048,0.023l0.023,0.025c-0.06,0.088-0.147,0.176-0.264,0.266c-0.115,0.091-0.254,0.173-0.414,0.246
		c-0.16,0.074-0.34,0.136-0.539,0.184c-0.201,0.048-0.414,0.072-0.643,0.072c-0.381,0-0.723-0.068-1.025-0.204
		c-0.305-0.136-0.564-0.333-0.777-0.591c-0.215-0.258-0.379-0.573-0.496-0.945c-0.115-0.372-0.174-0.796-0.174-1.271
		c0-0.457,0.059-0.871,0.174-1.246c0.117-0.373,0.285-0.692,0.505-0.957c0.22-0.264,0.489-0.469,0.807-0.614
		c0.318-0.146,0.679-0.22,1.083-0.22c0.355,0,0.674,0.058,0.951,0.172c0.277,0.113,0.518,0.261,0.717,0.441L869.96,378.183z"/>
	<path fill="#ED1C24" stroke="#ED1C24" stroke-width="0.25" stroke-miterlimit="10" d="M873.812,377.534
		c0.412,0,0.778,0.074,1.098,0.22c0.32,0.146,0.59,0.351,0.808,0.614c0.218,0.265,0.383,0.584,0.495,0.957
		c0.111,0.375,0.168,0.789,0.168,1.246c0,0.455-0.057,0.869-0.168,1.238c-0.112,0.37-0.277,0.688-0.495,0.951
		s-0.487,0.467-0.808,0.609c-0.319,0.142-0.686,0.213-1.098,0.213c-0.416,0-0.783-0.071-1.101-0.213
		c-0.318-0.143-0.587-0.346-0.804-0.609c-0.219-0.264-0.384-0.581-0.496-0.951c-0.111-0.369-0.168-0.783-0.168-1.238
		c0-0.457,0.057-0.871,0.168-1.246c0.112-0.373,0.277-0.692,0.496-0.957c0.217-0.264,0.485-0.469,0.804-0.614
		C873.028,377.608,873.396,377.534,873.812,377.534z M873.812,383.463c0.4,0,0.752-0.07,1.057-0.21
		c0.304-0.141,0.557-0.336,0.759-0.588s0.354-0.557,0.456-0.912s0.152-0.75,0.152-1.182c0-0.433-0.051-0.828-0.152-1.186
		s-0.254-0.665-0.456-0.921s-0.455-0.455-0.759-0.597c-0.305-0.143-0.656-0.213-1.057-0.213c-0.404,0-0.757,0.07-1.059,0.213
		c-0.303,0.142-0.555,0.341-0.756,0.597c-0.202,0.256-0.354,0.563-0.457,0.921c-0.102,0.357-0.152,0.753-0.152,1.186
		c0,0.432,0.051,0.826,0.152,1.182c0.103,0.355,0.255,0.66,0.457,0.912c0.201,0.252,0.453,0.447,0.756,0.588
		C873.055,383.393,873.407,383.463,873.812,383.463z"/>
	<path fill="#ED1C24" stroke="#ED1C24" stroke-width="0.25" stroke-miterlimit="10" d="M878.366,379.353
		c0.084-0.287,0.184-0.545,0.299-0.771c0.117-0.225,0.256-0.416,0.418-0.572s0.348-0.273,0.558-0.354s0.449-0.121,0.718-0.121
		c0.115,0,0.234,0.01,0.356,0.027s0.231,0.053,0.327,0.105l-0.024,0.048c-0.008,0.012-0.015,0.022-0.021,0.032
		c-0.006,0.011-0.02,0.016-0.039,0.016c-0.021,0-0.047-0.005-0.078-0.016c-0.032-0.01-0.071-0.021-0.117-0.032
		c-0.046-0.013-0.102-0.022-0.168-0.033c-0.066-0.01-0.145-0.015-0.236-0.015c-0.265,0-0.498,0.042-0.703,0.126
		c-0.203,0.084-0.385,0.208-0.543,0.372s-0.298,0.369-0.42,0.617c-0.121,0.248-0.23,0.537-0.326,0.865v3.863h-0.145v-5.88h0.036
		c0.056,0,0.084,0.032,0.084,0.096L878.366,379.353z"/>
	<path fill="#ED1C24" stroke="#ED1C24" stroke-width="0.25" stroke-miterlimit="10" d="M886.201,382.815
		c-0.067,0.084-0.169,0.17-0.303,0.26s-0.292,0.174-0.474,0.25c-0.183,0.076-0.381,0.138-0.598,0.186
		c-0.216,0.048-0.438,0.072-0.666,0.072c-0.404,0-0.766-0.071-1.086-0.213c-0.32-0.143-0.591-0.348-0.812-0.615
		c-0.223-0.268-0.393-0.596-0.514-0.984c-0.119-0.388-0.18-0.828-0.18-1.32c0-0.432,0.059-0.826,0.174-1.185
		c0.116-0.358,0.284-0.665,0.504-0.921c0.221-0.256,0.489-0.455,0.807-0.598c0.318-0.141,0.68-0.213,1.084-0.213
		c0.308,0,0.598,0.056,0.869,0.166c0.272,0.109,0.51,0.272,0.711,0.488c0.203,0.217,0.361,0.481,0.478,0.795
		c0.116,0.314,0.175,0.676,0.175,1.084c0,0.02-0.008,0.034-0.021,0.045c-0.014,0.01-0.031,0.015-0.051,0.015h-4.572
		c-0.004,0.056-0.008,0.11-0.01,0.161c-0.002,0.053-0.002,0.106-0.002,0.162c0,0.488,0.058,0.92,0.174,1.293
		c0.115,0.375,0.281,0.688,0.494,0.942c0.215,0.255,0.473,0.447,0.774,0.579c0.302,0.133,0.638,0.198,1.005,0.198
		c0.328,0,0.612-0.036,0.852-0.108c0.24-0.072,0.441-0.152,0.601-0.24c0.16-0.088,0.282-0.168,0.366-0.24
		c0.084-0.071,0.134-0.107,0.15-0.107c0.016,0,0.031,0.008,0.047,0.023L886.201,382.815z M886.237,380.019
		c0-0.38-0.054-0.717-0.162-1.011c-0.107-0.294-0.257-0.541-0.447-0.741c-0.189-0.199-0.412-0.352-0.668-0.456
		s-0.531-0.155-0.822-0.155c-0.353,0-0.67,0.056-0.951,0.168c-0.282,0.111-0.525,0.271-0.729,0.479
		c-0.205,0.208-0.367,0.457-0.49,0.747c-0.121,0.29-0.2,0.613-0.236,0.969H886.237z"/>
</g>
<g>
	<path fill="#FFFFFF" stroke="#000000" stroke-width="0.5" stroke-miterlimit="10" d="M983.564,332.655
		C983.564,332.655,983.564,332.655,983.564,332.655L983.564,332.655c0-0.468-0.016-0.929-0.047-1.382
		c-0.463-7.105-4.455-12.659-9.313-12.659c-3.388,0-6.346,2.709-7.988,6.75h-5.151v-19.71h-468h-468v20.25h5.714
		c1.557-4.031,4.457-6.75,7.786-6.75c4.971,0,9,6.045,9,13.5c0,7.456-4.029,13.5-9,13.5c-3.329,0-6.229-2.719-7.786-6.75h-5.714
		v20.25h468h468v-19.708h5.151c1.643,4.04,4.601,6.747,7.988,6.747c4.859,0,8.852-5.553,9.313-12.658
		c0.008-0.116,0.006-0.236,0.012-0.353C983.547,333.342,983.564,333.002,983.564,332.655z"/>
	
		<line fill="none" stroke="#ED1C24" stroke-width="0.5" stroke-miterlimit="10" x1="371.565" y1="359.654" x2="371.565" y2="305.654"/>
	
		<line fill="none" stroke="#ED1C24" stroke-width="0.5" stroke-miterlimit="10" x1="376.065" y1="359.654" x2="376.065" y2="305.654"/>
	
		<line fill="none" stroke="#ED1C24" stroke-width="0.5" stroke-miterlimit="10" x1="367.065" y1="359.654" x2="367.065" y2="305.654"/>
	
		<line fill="none" stroke="#ED1C24" stroke-width="0.5" stroke-miterlimit="10" x1="362.565" y1="359.654" x2="362.565" y2="305.654"/>
	
		<line fill="none" stroke="#ED1C24" stroke-width="0.5" stroke-miterlimit="10" x1="358.065" y1="359.654" x2="358.065" y2="305.654"/>
	
		<line fill="none" stroke="#ED1C24" stroke-width="0.5" stroke-miterlimit="10" x1="353.565" y1="359.654" x2="353.565" y2="305.654"/>
	
		<line fill="none" stroke="#ED1C24" stroke-width="0.5" stroke-miterlimit="10" x1="349.065" y1="359.654" x2="349.065" y2="305.654"/>
	
		<line fill="none" stroke="#ED1C24" stroke-width="0.5" stroke-miterlimit="10" x1="128.565" y1="359.654" x2="128.565" y2="305.654"/>
	
		<line fill="none" stroke="#ED1C24" stroke-width="0.5" stroke-miterlimit="10" x1="133.065" y1="359.654" x2="133.065" y2="305.654"/>
	
		<line fill="none" stroke="#ED1C24" stroke-width="0.5" stroke-miterlimit="10" x1="124.065" y1="359.654" x2="124.065" y2="305.654"/>
	
		<line fill="none" stroke="#ED1C24" stroke-width="0.5" stroke-miterlimit="10" x1="119.565" y1="359.654" x2="119.565" y2="305.654"/>
	
		<line fill="none" stroke="#ED1C24" stroke-width="0.5" stroke-miterlimit="10" x1="115.065" y1="359.654" x2="115.065" y2="305.654"/>
	
		<line fill="none" stroke="#ED1C24" stroke-width="0.5" stroke-miterlimit="10" x1="110.565" y1="359.654" x2="110.565" y2="305.654"/>
	
		<line fill="none" stroke="#ED1C24" stroke-width="0.5" stroke-miterlimit="10" x1="106.065" y1="359.654" x2="106.065" y2="305.654"/>
	
		<line fill="none" stroke="#ED1C24" stroke-width="0.5" stroke-miterlimit="10" x1="614.564" y1="359.654" x2="614.564" y2="305.654"/>
	
		<line fill="none" stroke="#ED1C24" stroke-width="0.5" stroke-miterlimit="10" x1="610.064" y1="359.654" x2="610.064" y2="305.654"/>
	
		<line fill="none" stroke="#ED1C24" stroke-width="0.5" stroke-miterlimit="10" x1="619.064" y1="359.654" x2="619.064" y2="305.654"/>
	
		<line fill="none" stroke="#ED1C24" stroke-width="0.5" stroke-miterlimit="10" x1="623.564" y1="359.654" x2="623.564" y2="305.654"/>
	
		<line fill="none" stroke="#ED1C24" stroke-width="0.5" stroke-miterlimit="10" x1="628.064" y1="359.654" x2="628.064" y2="305.654"/>
	
		<line fill="none" stroke="#ED1C24" stroke-width="0.5" stroke-miterlimit="10" x1="632.564" y1="359.654" x2="632.564" y2="305.654"/>
	
		<line fill="none" stroke="#ED1C24" stroke-width="0.5" stroke-miterlimit="10" x1="637.064" y1="359.654" x2="637.064" y2="305.654"/>
	
		<line fill="none" stroke="#ED1C24" stroke-width="0.5" stroke-miterlimit="10" x1="857.564" y1="359.654" x2="857.564" y2="305.654"/>
	
		<line fill="none" stroke="#ED1C24" stroke-width="0.5" stroke-miterlimit="10" x1="853.064" y1="359.654" x2="853.064" y2="305.654"/>
	
		<line fill="none" stroke="#ED1C24" stroke-width="0.5" stroke-miterlimit="10" x1="862.064" y1="359.654" x2="862.064" y2="305.654"/>
	
		<line fill="none" stroke="#ED1C24" stroke-width="0.5" stroke-miterlimit="10" x1="866.564" y1="359.654" x2="866.564" y2="305.654"/>
	
		<line fill="none" stroke="#ED1C24" stroke-width="0.5" stroke-miterlimit="10" x1="871.064" y1="359.654" x2="871.064" y2="305.654"/>
	
		<line fill="none" stroke="#ED1C24" stroke-width="0.5" stroke-miterlimit="10" x1="875.564" y1="359.654" x2="875.564" y2="305.654"/>
	
		<line fill="none" stroke="#ED1C24" stroke-width="0.5" stroke-miterlimit="10" x1="880.064" y1="359.654" x2="880.064" y2="305.654"/>
</g>
<path fill="#FFFFFF" stroke="#000000" stroke-width="0.5" stroke-miterlimit="10" d="M863.588,272.69
	c-0.392-1.844-39.18-184.573-45.632-214.235l-0.051-0.232l-0.024-0.238c-0.104-1.012-0.312-1.986-0.617-2.898l-0.33-0.887
	c-1.662-4.027-5.113-7.014-9.315-8.049l-0.201-0.043c-1.035-0.242-2.089-0.363-3.134-0.363h-151.2c-1.044,0-2.097,0.121-3.15,0.367
	c-0.06,0.014-0.119,0.026-0.182,0.039c-4.23,1.059-7.666,4.041-9.32,8.059l-0.328,0.881c-0.305,0.912-0.512,1.885-0.616,2.896
	l-0.024,0.238l-0.051,0.233c-6.451,29.66-45.24,212.391-45.625,214.201c-0.186,0.914-0.281,1.844-0.281,2.766
	c0,0.471,0.023,0.941,0.07,1.402c0.711,7,6.561,12.277,13.609,12.277v-0.002h242.999c7.047,0,12.897-5.277,13.608-12.277
	c0.047-0.461,0.07-0.931,0.07-1.402C863.862,274.502,863.769,273.571,863.588,272.69z M660.646,83.656
	c-3.445,0-6.238-2.793-6.238-6.238s2.793-6.237,6.238-6.237s6.238,2.792,6.238,6.237S664.091,83.656,660.646,83.656z
	 M755.685,233.01l-27,15.588l-27-15.588v-31.178l27-15.588l27,15.588V233.01z M796.726,83.654c-3.444,0-6.236-2.792-6.236-6.236
	c0-3.443,2.792-6.235,6.236-6.235c3.443,0,6.236,2.792,6.236,6.235C802.962,80.862,800.169,83.654,796.726,83.654z"/>
<g>
	<path fill="#FFFFFF" stroke="#000000" stroke-width="0.5" stroke-miterlimit="10" d="M391.85,276.114
		c0,0-39.107-184.24-45.637-214.254c-0.146-1.421-0.451-2.798-0.912-4.099c0-0.002-0.002-0.007-0.002-0.008
		c0-0.01-0.01-0.02-0.01-0.029c-2.016-5.672-6.789-10.035-12.709-11.474h-0.002c-0.047-0.011-0.096-0.019-0.143-0.028
		c-1.322-0.31-2.699-0.479-4.117-0.479l0,0h-151.2h-0.001c-1.417,0-2.794,0.169-4.117,0.479c-0.047,0.012-0.095,0.019-0.142,0.028
		h-0.003c-5.92,1.438-10.693,5.802-12.709,11.474c0,0.011-0.01,0.021-0.01,0.029c0,0.001-0.002,0.006-0.002,0.008
		c-0.461,1.301-0.766,2.678-0.913,4.099c-6.527,30.015-45.636,214.254-45.636,214.254c-0.239,1.17-0.369,2.391-0.369,3.631
		c0,0.621,0.031,1.233,0.093,1.84c0.923,9.076,8.589,16.16,17.907,16.16h243c9.32,0,16.986-7.084,17.908-16.16
		c0.061-0.604,0.092-1.219,0.092-1.84C392.219,278.505,392.088,277.284,391.85,276.114z"/>
	<path fill="none" stroke="#ED1C24" stroke-width="0.5" stroke-miterlimit="10" d="M131.219,293.426
		c-7.048,0-12.897-5.277-13.608-12.277c-0.048-0.461-0.07-0.933-0.07-1.402c0-0.922,0.095-1.852,0.281-2.766
		c0.385-1.812,39.173-184.541,45.625-214.202l0.051-0.233l0.023-0.238c0.105-1.011,0.312-1.982,0.617-2.895l0.326-0.652l0.001-0.229
		c1.654-4.018,5.09-7.001,9.32-8.059c0.062-0.014,0.123-0.025,0.183-0.039c1.053-0.246,2.106-0.369,3.15-0.369h151.201
		c1.045,0,2.098,0.123,3.133,0.365l0.201,0.043c4.201,1.034,7.652,4.021,9.314,8.049v0.224l0.33,0.663
		c0.305,0.912,0.514,1.886,0.619,2.898l0.023,0.237l0.051,0.233c6.453,29.66,45.24,212.391,45.633,214.234
		c0.18,0.881,0.273,1.812,0.273,2.732c0,0.471-0.023,0.941-0.07,1.402c-0.711,7-6.562,12.276-13.609,12.276H131.219V293.426z"/>
</g>
<path fill="#FFFFFF" stroke="#000000" stroke-width="0.5" stroke-miterlimit="10" d="M611.505,45.744
	c7.049,0,12.898,5.276,13.609,12.276c0.047,0.461,0.07,0.933,0.07,1.402c0,0.922-0.095,1.852-0.281,2.766
	C624.519,64,585.73,246.729,579.278,276.39l-0.051,0.233l-0.023,0.237c-0.105,1.011-0.312,1.983-0.617,2.896l-0.327,0.881
	c-1.654,4.018-5.091,7.001-9.32,8.059c-0.062,0.014-0.123,0.025-0.184,0.039c-1.053,0.246-2.105,0.368-3.149,0.368h-151.2
	c-1.045,0-2.099-0.122-3.134-0.364l-0.2-0.043c-4.203-1.035-7.654-4.021-9.316-8.049v-0.224c0,0-0.842-2.55-0.947-3.562
	l-0.023-0.238l-0.052-0.232C394.282,246.729,355.495,64,355.102,62.156c-0.18-0.881-0.273-1.811-0.273-2.731
	c0-0.472,0.022-0.941,0.069-1.402c0.711-7,6.562-12.276,13.608-12.276h242.999V45.744z"/>
</svg>
