<?xml version="1.0" encoding="utf-8"?>
<!-- Generator: Adobe Illustrator 16.0.0, SVG Export Plug-In . SVG Version: 6.00 Build 0)  -->
<!DOCTYPE svg PUBLIC "-//W3C//DTD SVG 1.1//EN" "http://www.w3.org/Graphics/SVG/1.1/DTD/svg11.dtd">
<svg version="1.1" id="Layer_1" xmlns="http://www.w3.org/2000/svg" xmlns:xlink="http://www.w3.org/1999/xlink" x="0px" y="0px"
	 width="360px" height="360px" viewBox="0 0 360 360" enable-background="new 0 0 360 360" xml:space="preserve">
<path fill="none" stroke="#000000" stroke-width="0.5" stroke-miterlimit="10" d="M270.812,164.341H89.188
	c-2.036,0-3.688,1.611-3.688,3.6v24.119c0,1.988,1.651,3.6,3.688,3.6h181.625c2.037,0,3.688-1.611,3.688-3.6V167.94
	C274.501,165.952,272.852,164.341,270.812,164.341z M111.96,188.675c-3.6,0-6.519-2.92-6.519-6.52s2.919-6.521,6.519-6.521
	c3.602,0,6.521,2.922,6.521,6.521S115.562,188.675,111.96,188.675z M248.042,188.675c-3.603,0-6.521-2.92-6.521-6.52
	s2.918-6.521,6.521-6.521c3.601,0,6.521,2.922,6.521,6.521C254.561,185.755,251.643,188.675,248.042,188.675z"/>
<rect x="85.361" y="166.999" fill="#EF4136" width="189.277" height="7.199"/>
</svg>
