<?xml version="1.0" encoding="utf-8"?>
<!-- Generator: Adobe Illustrator 16.0.0, SVG Export Plug-In . SVG Version: 6.00 Build 0)  -->
<!DOCTYPE svg PUBLIC "-//W3C//DTD SVG 1.1//EN" "http://www.w3.org/Graphics/SVG/1.1/DTD/svg11.dtd">
<svg version="1.1" id="Layer_1" xmlns="http://www.w3.org/2000/svg" xmlns:xlink="http://www.w3.org/1999/xlink" x="0px" y="0px"
	 width="360px" height="360px" viewBox="0 0 360 360" enable-background="new 0 0 360 360" xml:space="preserve">
<path fill="none" stroke="#000000" stroke-width="0.5" stroke-miterlimit="10" d="M274.501,167.94c0-1.988-1.649-3.6-3.688-3.6
	H89.188c-2.036,0-3.688,1.611-3.688,3.6v4.312c0,0.003-0.001,0.006-0.001,0.009v24.116c0,1.988,1.649,3.6,3.688,3.6h181.624
	c2.036,0,3.688-1.611,3.688-3.6v-4.309c0-0.004,0.001-0.007,0.001-0.01V167.94z M248.042,188.675c-3.603,0-6.521-2.92-6.521-6.52
	c0-0.672,0.102-1.319,0.291-1.929c0.825-2.652,3.301-4.58,6.228-4.58c3.6,0,6.519,2.92,6.519,6.519c0,0.674-0.103,1.323-0.293,1.936
	C253.438,186.75,250.965,188.675,248.042,188.675z M111.96,188.675c-3.6,0-6.519-2.92-6.519-6.52c0-0.583,0.084-1.146,0.228-1.684
	c0.748-2.776,3.276-4.825,6.29-4.825c3.603,0,6.521,2.92,6.521,6.519c0,0.672-0.102,1.319-0.291,1.929
	C117.362,186.747,114.886,188.675,111.96,188.675z"/>
<rect x="85.361" y="168.439" fill="#EF4136" width="189.277" height="5.76"/>
<rect x="85.361" y="190.12" fill="#EF4136" width="189.277" height="5.76"/>
</svg>
