<?xml version="1.0" encoding="utf-8"?>
<!-- Generator: Adobe Illustrator 16.0.0, SVG Export Plug-In . SVG Version: 6.00 Build 0)  -->
<!DOCTYPE svg PUBLIC "-//W3C//DTD SVG 1.1//EN" "http://www.w3.org/Graphics/SVG/1.1/DTD/svg11.dtd">
<svg version="1.1" id="Layer_1" xmlns="http://www.w3.org/2000/svg" xmlns:xlink="http://www.w3.org/1999/xlink" x="0px" y="0px"
	 width="360px" height="360px" viewBox="0 0 360 360" enable-background="new 0 0 360 360" xml:space="preserve">
<polygon fill="none" stroke="#EF4136" stroke-width="0.5" stroke-miterlimit="10" points="147.331,248.859 147.331,211.135 
	180,192.275 212.669,211.135 212.669,248.859 180,267.721 "/>
<path fill="none" stroke="#000000" stroke-width="0.5" stroke-miterlimit="10" d="M319.131,284.369
	c0,0-39.107-184.239-45.636-214.254c-0.147-1.42-0.452-2.797-0.913-4.098c0-0.002-0.002-0.007-0.002-0.008
	c0-0.01-0.01-0.02-0.01-0.029c-2.015-5.672-6.789-10.036-12.709-11.474c-0.001,0-0.002,0-0.002,0
	c-0.047-0.011-0.095-0.018-0.142-0.028c-1.323-0.31-2.7-0.479-4.117-0.479H255.6H104.4h-0.001c-1.417,0-2.794,0.169-4.117,0.479
	c-0.047,0.011-0.095,0.018-0.142,0.028c0,0-0.001,0-0.002,0c-5.92,1.438-10.694,5.802-12.709,11.474c0,0.01-0.01,0.02-0.01,0.029
	c0,0.001-0.002,0.006-0.002,0.008c-0.461,1.301-0.766,2.678-0.913,4.098c-6.528,30.015-45.636,214.254-45.636,214.254
	C40.63,285.539,40.5,286.76,40.5,288c0,0.621,0.031,1.234,0.093,1.84C41.515,298.916,49.181,306,58.5,306h243
	c9.319,0,16.985-7.084,17.907-16.16c0.062-0.605,0.093-1.219,0.093-1.84C319.5,286.76,319.37,285.539,319.131,284.369z
	 M111.96,96.235c-3.444,0-6.237-2.794-6.237-6.239c0-3.444,2.793-6.239,6.237-6.239c3.446,0,6.239,2.795,6.239,6.239
	C118.199,93.441,115.406,96.235,111.96,96.235z M207,245.586l-27,15.588l-27-15.588v-31.178l27-15.588l27,15.588V245.586z
	 M248.042,96.233c-3.445,0-6.237-2.793-6.237-6.237c0-3.443,2.792-6.237,6.237-6.237c3.443,0,6.235,2.794,6.235,6.237
	C254.277,93.44,251.485,96.233,248.042,96.233z"/>
<g>
	<path fill="#ED1C24" stroke="#ED1C24" stroke-width="0.25" stroke-miterlimit="10" d="M254.414,333.914
		c0.084-0.287,0.185-0.545,0.301-0.771c0.115-0.225,0.255-0.416,0.416-0.572c0.162-0.156,0.349-0.273,0.559-0.354
		s0.449-0.121,0.717-0.121c0.116,0,0.235,0.01,0.357,0.027c0.121,0.018,0.23,0.053,0.326,0.105l-0.023,0.048
		c-0.008,0.012-0.016,0.022-0.021,0.032c-0.006,0.011-0.019,0.016-0.039,0.016c-0.02,0-0.045-0.005-0.077-0.016
		c-0.032-0.01-0.071-0.021-0.117-0.032c-0.046-0.013-0.103-0.022-0.168-0.033c-0.065-0.01-0.146-0.015-0.237-0.015
		c-0.264,0-0.498,0.042-0.701,0.126c-0.205,0.084-0.386,0.208-0.543,0.372c-0.158,0.164-0.299,0.369-0.42,0.617
		c-0.123,0.248-0.231,0.537-0.328,0.865v3.863h-0.144v-5.88h0.036c0.056,0,0.084,0.032,0.084,0.096L254.414,333.914z"/>
	<path fill="#ED1C24" stroke="#ED1C24" stroke-width="0.25" stroke-miterlimit="10" d="M262.25,337.377
		c-0.068,0.084-0.169,0.17-0.303,0.26c-0.135,0.09-0.292,0.174-0.475,0.25c-0.182,0.076-0.381,0.138-0.596,0.186
		c-0.217,0.048-0.439,0.072-0.666,0.072c-0.404,0-0.767-0.071-1.087-0.213c-0.319-0.143-0.591-0.348-0.813-0.615
		c-0.221-0.268-0.393-0.596-0.512-0.984c-0.121-0.388-0.181-0.828-0.181-1.32c0-0.432,0.058-0.826,0.174-1.185
		s0.284-0.665,0.505-0.921c0.219-0.256,0.488-0.455,0.807-0.598c0.318-0.141,0.679-0.213,1.082-0.213
		c0.309,0,0.599,0.056,0.871,0.166c0.271,0.109,0.509,0.272,0.711,0.488c0.201,0.217,0.36,0.481,0.477,0.795
		c0.116,0.314,0.174,0.676,0.174,1.084c0,0.02-0.007,0.034-0.021,0.045c-0.015,0.01-0.031,0.015-0.052,0.015h-4.571
		c-0.005,0.056-0.007,0.11-0.009,0.161c-0.002,0.053-0.004,0.106-0.004,0.162c0,0.488,0.059,0.92,0.174,1.293
		c0.117,0.375,0.281,0.688,0.496,0.942c0.213,0.255,0.472,0.447,0.773,0.579c0.303,0.133,0.637,0.198,1.006,0.198
		c0.327,0,0.611-0.036,0.852-0.108s0.439-0.152,0.6-0.24s0.282-0.168,0.366-0.24c0.084-0.071,0.134-0.107,0.149-0.107
		c0.017,0,0.032,0.008,0.049,0.023L262.25,337.377z M262.286,334.58c0-0.38-0.054-0.717-0.162-1.011s-0.257-0.541-0.446-0.741
		c-0.19-0.199-0.414-0.352-0.67-0.456s-0.529-0.155-0.822-0.155c-0.352,0-0.668,0.056-0.95,0.168
		c-0.282,0.111-0.524,0.271-0.729,0.479c-0.203,0.208-0.367,0.457-0.488,0.747c-0.123,0.29-0.201,0.613-0.237,0.969H262.286z"/>
	<path fill="#ED1C24" stroke="#ED1C24" stroke-width="0.25" stroke-miterlimit="10" d="M268.49,329.432v8.641h-0.036
		c-0.056,0-0.084-0.031-0.084-0.096l-0.024-1.141c-0.264,0.404-0.582,0.723-0.957,0.957c-0.373,0.234-0.782,0.352-1.227,0.352
		c-0.764,0-1.347-0.245-1.749-0.735c-0.401-0.489-0.603-1.245-0.603-2.265c0-0.424,0.054-0.822,0.162-1.194
		c0.107-0.372,0.27-0.694,0.486-0.969c0.215-0.274,0.484-0.49,0.807-0.647c0.322-0.158,0.697-0.238,1.125-0.238
		c0.863,0,1.516,0.351,1.955,1.051v-3.715H268.49z M268.346,333.338c-0.127-0.203-0.263-0.377-0.404-0.521
		c-0.143-0.145-0.293-0.26-0.453-0.348s-0.331-0.152-0.514-0.192c-0.182-0.04-0.377-0.06-0.584-0.06
		c-0.412,0-0.771,0.074-1.074,0.225c-0.305,0.15-0.557,0.357-0.76,0.621c-0.201,0.264-0.353,0.574-0.452,0.93
		c-0.101,0.355-0.15,0.74-0.15,1.152c0,0.976,0.187,1.699,0.562,2.172c0.373,0.472,0.923,0.708,1.646,0.708
		c0.436,0,0.842-0.122,1.215-0.366c0.375-0.244,0.697-0.58,0.969-1.008V333.338z"/>
	<path fill="#ED1C24" stroke="#ED1C24" stroke-width="0.25" stroke-miterlimit="10" d="M274.334,329.432v8.641h-0.145v-8.641
		H274.334z"/>
	<path fill="#ED1C24" stroke="#ED1C24" stroke-width="0.25" stroke-miterlimit="10" d="M277.094,330.008
		c0,0.084-0.035,0.16-0.105,0.226c-0.069,0.065-0.146,0.099-0.23,0.099c-0.092,0-0.171-0.033-0.236-0.099
		c-0.066-0.065-0.1-0.142-0.1-0.226c0-0.092,0.033-0.17,0.1-0.236c0.065-0.066,0.145-0.1,0.236-0.1c0.084,0,0.161,0.033,0.23,0.1
		C277.059,329.838,277.094,329.916,277.094,330.008z M276.83,332.192v5.88h-0.145v-5.88H276.83z"/>
	<path fill="#ED1C24" stroke="#ED1C24" stroke-width="0.25" stroke-miterlimit="10" d="M279.254,333.416
		c0.136-0.199,0.289-0.382,0.459-0.546s0.354-0.303,0.549-0.417c0.196-0.113,0.402-0.201,0.618-0.264s0.438-0.094,0.666-0.094
		c0.651,0,1.14,0.195,1.461,0.582c0.321,0.389,0.483,0.931,0.483,1.627v3.768h-0.145v-3.768c0-0.328-0.035-0.621-0.107-0.879
		s-0.184-0.478-0.334-0.658c-0.149-0.18-0.338-0.316-0.563-0.41s-0.491-0.141-0.795-0.141c-0.46,0-0.884,0.121-1.272,0.365
		c-0.388,0.244-0.728,0.582-1.02,1.014v4.477h-0.145v-5.88h0.037c0.055,0,0.084,0.032,0.084,0.096L279.254,333.416z"/>
	<path fill="#ED1C24" stroke="#ED1C24" stroke-width="0.25" stroke-miterlimit="10" d="M289.892,337.377
		c-0.067,0.084-0.169,0.17-0.303,0.26s-0.292,0.174-0.474,0.25c-0.183,0.076-0.381,0.138-0.598,0.186
		c-0.216,0.048-0.438,0.072-0.666,0.072c-0.404,0-0.766-0.071-1.086-0.213c-0.32-0.143-0.591-0.348-0.812-0.615
		c-0.223-0.268-0.393-0.596-0.514-0.984c-0.119-0.388-0.18-0.828-0.18-1.32c0-0.432,0.059-0.826,0.174-1.185
		c0.116-0.358,0.284-0.665,0.504-0.921c0.221-0.256,0.489-0.455,0.807-0.598c0.318-0.141,0.68-0.213,1.084-0.213
		c0.308,0,0.598,0.056,0.869,0.166c0.272,0.109,0.51,0.272,0.711,0.488c0.203,0.217,0.361,0.481,0.478,0.795
		c0.116,0.314,0.175,0.676,0.175,1.084c0,0.02-0.008,0.034-0.021,0.045c-0.014,0.01-0.031,0.015-0.051,0.015h-4.572
		c-0.004,0.056-0.008,0.11-0.01,0.161c-0.002,0.053-0.002,0.106-0.002,0.162c0,0.488,0.058,0.92,0.174,1.293
		c0.115,0.375,0.281,0.688,0.494,0.942c0.215,0.255,0.473,0.447,0.774,0.579c0.302,0.133,0.638,0.198,1.005,0.198
		c0.328,0,0.612-0.036,0.852-0.108c0.24-0.072,0.441-0.152,0.601-0.24c0.16-0.088,0.282-0.168,0.366-0.24
		c0.084-0.071,0.134-0.107,0.15-0.107c0.016,0,0.031,0.008,0.047,0.023L289.892,337.377z M289.928,334.58
		c0-0.38-0.054-0.717-0.162-1.011c-0.107-0.294-0.257-0.541-0.447-0.741c-0.189-0.199-0.412-0.352-0.668-0.456
		s-0.531-0.155-0.822-0.155c-0.353,0-0.67,0.056-0.951,0.168c-0.282,0.111-0.525,0.271-0.729,0.479
		c-0.205,0.208-0.367,0.457-0.49,0.747c-0.121,0.29-0.2,0.613-0.236,0.969H289.928z"/>
	<path fill="#ED1C24" stroke="#ED1C24" stroke-width="0.25" stroke-miterlimit="10" d="M295.717,330.008
		c0,0.084-0.035,0.16-0.104,0.226s-0.147,0.099-0.231,0.099c-0.092,0-0.17-0.033-0.236-0.099s-0.1-0.142-0.1-0.226
		c0-0.092,0.033-0.17,0.1-0.236s0.145-0.1,0.236-0.1c0.084,0,0.162,0.033,0.231,0.1S295.717,329.916,295.717,330.008z
		 M295.453,332.192v5.88h-0.145v-5.88H295.453z"/>
	<path fill="#ED1C24" stroke="#ED1C24" stroke-width="0.25" stroke-miterlimit="10" d="M300.787,332.709
		c-0.012,0.023-0.031,0.035-0.06,0.035c-0.032,0-0.079-0.027-0.142-0.081c-0.062-0.054-0.151-0.114-0.27-0.18
		s-0.268-0.127-0.447-0.183c-0.18-0.057-0.402-0.084-0.666-0.084c-0.248,0-0.475,0.037-0.681,0.113s-0.384,0.178-0.531,0.303
		c-0.147,0.127-0.263,0.271-0.345,0.436s-0.123,0.336-0.123,0.516c0,0.213,0.05,0.389,0.15,0.531c0.1,0.143,0.23,0.262,0.393,0.359
		c0.162,0.099,0.348,0.182,0.555,0.25c0.208,0.068,0.42,0.135,0.637,0.201c0.216,0.065,0.428,0.136,0.636,0.209
		c0.208,0.074,0.394,0.168,0.555,0.279c0.162,0.112,0.293,0.249,0.394,0.411c0.1,0.162,0.149,0.363,0.149,0.603
		c0,0.24-0.043,0.467-0.129,0.679s-0.211,0.396-0.375,0.552s-0.364,0.28-0.603,0.372s-0.51,0.138-0.813,0.138
		c-0.212,0-0.401-0.017-0.569-0.051s-0.322-0.081-0.463-0.141c-0.14-0.061-0.271-0.135-0.396-0.223s-0.246-0.186-0.366-0.293
		l0.036-0.037c0.012-0.012,0.022-0.021,0.03-0.026c0.008-0.007,0.021-0.009,0.041-0.009c0.033,0,0.084,0.033,0.156,0.102
		s0.174,0.145,0.303,0.229c0.131,0.084,0.295,0.16,0.496,0.228c0.199,0.067,0.443,0.103,0.731,0.103s0.543-0.043,0.765-0.127
		c0.223-0.084,0.409-0.199,0.562-0.345c0.151-0.146,0.267-0.315,0.345-0.51s0.117-0.403,0.117-0.627c0-0.228-0.05-0.417-0.15-0.567
		c-0.1-0.15-0.23-0.277-0.393-0.381s-0.348-0.191-0.555-0.261c-0.209-0.07-0.42-0.138-0.637-0.201
		c-0.216-0.063-0.428-0.132-0.636-0.204s-0.394-0.16-0.555-0.268c-0.162-0.105-0.294-0.236-0.394-0.393s-0.149-0.35-0.149-0.582
		c0-0.195,0.044-0.383,0.132-0.561s0.212-0.336,0.372-0.475c0.159-0.138,0.351-0.248,0.573-0.33
		c0.222-0.082,0.467-0.123,0.734-0.123c0.332,0,0.625,0.045,0.877,0.136c0.252,0.09,0.495,0.237,0.731,0.44L300.787,332.709z"/>
	<path fill="#ED1C24" stroke="#ED1C24" stroke-width="0.25" stroke-miterlimit="10" d="M305.994,333.032
		c0.289-0.304,0.586-0.536,0.895-0.696s0.666-0.24,1.074-0.24c0.3,0,0.559,0.049,0.777,0.145c0.218,0.096,0.398,0.234,0.543,0.414
		c0.144,0.18,0.25,0.398,0.317,0.656c0.068,0.259,0.103,0.55,0.103,0.873v3.889h-0.024c-0.056,0-0.084-0.031-0.084-0.096
		l-0.036-0.961c-0.168,0.177-0.336,0.336-0.504,0.478s-0.346,0.263-0.533,0.363c-0.189,0.1-0.391,0.177-0.606,0.231
		c-0.216,0.053-0.456,0.08-0.72,0.08c-0.177,0-0.354-0.027-0.535-0.08c-0.18-0.055-0.342-0.141-0.485-0.259
		s-0.263-0.271-0.354-0.456s-0.138-0.412-0.138-0.681c0-0.265,0.078-0.501,0.234-0.711c0.155-0.21,0.393-0.39,0.711-0.537
		c0.317-0.147,0.72-0.265,1.206-0.351s1.061-0.138,1.725-0.153v-0.757c0-0.307-0.033-0.584-0.102-0.827
		c-0.068-0.244-0.168-0.45-0.301-0.618c-0.131-0.168-0.297-0.297-0.498-0.387c-0.199-0.09-0.432-0.135-0.695-0.135
		c-0.208,0-0.396,0.021-0.564,0.065s-0.318,0.099-0.449,0.162c-0.133,0.063-0.248,0.134-0.346,0.21s-0.183,0.146-0.255,0.21
		c-0.071,0.063-0.13,0.118-0.174,0.162s-0.076,0.065-0.097,0.065c-0.016,0-0.035-0.012-0.059-0.035L305.994,333.032z
		 M309.559,335.061c-1.26,0.039-2.197,0.197-2.811,0.471c-0.614,0.273-0.922,0.661-0.922,1.161c0,0.235,0.039,0.438,0.117,0.608
		s0.182,0.311,0.31,0.42c0.128,0.111,0.274,0.192,0.438,0.246c0.164,0.055,0.332,0.082,0.504,0.082c0.275,0,0.525-0.033,0.75-0.097
		c0.224-0.063,0.431-0.149,0.621-0.258c0.189-0.108,0.365-0.233,0.527-0.375s0.316-0.291,0.465-0.447V335.061z"/>
	<path fill="#ED1C24" stroke="#ED1C24" stroke-width="0.25" stroke-miterlimit="10" d="M318.325,332.709
		c-0.013,0.023-0.032,0.035-0.06,0.035c-0.033,0-0.08-0.027-0.142-0.081s-0.151-0.114-0.271-0.18
		c-0.117-0.065-0.267-0.127-0.446-0.183c-0.181-0.057-0.402-0.084-0.666-0.084c-0.248,0-0.476,0.037-0.681,0.113
		c-0.207,0.076-0.384,0.178-0.531,0.303c-0.148,0.127-0.264,0.271-0.346,0.436s-0.123,0.336-0.123,0.516
		c0,0.213,0.051,0.389,0.15,0.531s0.23,0.262,0.393,0.359c0.162,0.099,0.348,0.182,0.556,0.25s0.42,0.135,0.636,0.201
		c0.217,0.065,0.428,0.136,0.637,0.209c0.207,0.074,0.393,0.168,0.555,0.279c0.162,0.112,0.293,0.249,0.393,0.411
		s0.15,0.363,0.15,0.603c0,0.24-0.043,0.467-0.129,0.679s-0.211,0.396-0.375,0.552s-0.365,0.28-0.604,0.372
		s-0.509,0.138-0.812,0.138c-0.213,0-0.402-0.017-0.57-0.051s-0.322-0.081-0.462-0.141c-0.14-0.061-0.272-0.135-0.396-0.223
		c-0.125-0.088-0.246-0.186-0.367-0.293l0.037-0.037c0.012-0.012,0.021-0.021,0.029-0.026c0.008-0.007,0.021-0.009,0.042-0.009
		c0.032,0,0.084,0.033,0.156,0.102c0.071,0.068,0.173,0.145,0.303,0.229s0.295,0.16,0.495,0.228s0.443,0.103,0.732,0.103
		c0.287,0,0.543-0.043,0.765-0.127s0.409-0.199,0.562-0.345c0.151-0.146,0.267-0.315,0.344-0.51
		c0.078-0.194,0.117-0.403,0.117-0.627c0-0.228-0.049-0.417-0.149-0.567s-0.231-0.277-0.394-0.381s-0.347-0.191-0.555-0.261
		c-0.208-0.07-0.42-0.138-0.636-0.201s-0.429-0.132-0.636-0.204c-0.209-0.072-0.394-0.16-0.555-0.268
		c-0.162-0.105-0.294-0.236-0.394-0.393c-0.101-0.156-0.149-0.35-0.149-0.582c0-0.195,0.043-0.383,0.131-0.561
		s0.213-0.336,0.373-0.475c0.159-0.138,0.351-0.248,0.572-0.33c0.223-0.082,0.467-0.123,0.735-0.123
		c0.331,0,0.624,0.045,0.876,0.136c0.252,0.09,0.496,0.237,0.732,0.44L318.325,332.709z"/>
	<path fill="#ED1C24" stroke="#ED1C24" stroke-width="0.25" stroke-miterlimit="10" d="M324.121,332.744
		c-0.017,0.016-0.033,0.023-0.049,0.023c-0.023,0-0.068-0.028-0.135-0.086c-0.066-0.059-0.162-0.121-0.288-0.189
		s-0.284-0.131-0.474-0.189c-0.19-0.058-0.42-0.086-0.688-0.086c-0.38,0-0.72,0.067-1.02,0.203c-0.301,0.137-0.555,0.33-0.762,0.582
		c-0.209,0.252-0.367,0.559-0.478,0.918c-0.11,0.36-0.165,0.765-0.165,1.213c0,0.463,0.055,0.875,0.165,1.232
		s0.267,0.66,0.472,0.906c0.203,0.246,0.448,0.433,0.734,0.561c0.285,0.129,0.605,0.192,0.957,0.192
		c0.312,0,0.576-0.036,0.792-0.108s0.394-0.152,0.534-0.24c0.14-0.088,0.246-0.168,0.318-0.24c0.071-0.071,0.119-0.107,0.144-0.107
		c0.016,0,0.032,0.008,0.048,0.023l0.023,0.025c-0.06,0.088-0.147,0.176-0.264,0.266c-0.115,0.091-0.254,0.173-0.414,0.246
		c-0.16,0.074-0.34,0.136-0.539,0.184c-0.201,0.048-0.414,0.072-0.643,0.072c-0.381,0-0.723-0.068-1.025-0.204
		c-0.305-0.136-0.564-0.333-0.777-0.591c-0.215-0.258-0.379-0.573-0.496-0.945c-0.115-0.372-0.174-0.796-0.174-1.271
		c0-0.457,0.059-0.871,0.174-1.246c0.117-0.373,0.285-0.692,0.505-0.957c0.22-0.264,0.489-0.469,0.807-0.614
		c0.318-0.146,0.679-0.22,1.083-0.22c0.355,0,0.674,0.058,0.951,0.172c0.277,0.113,0.518,0.261,0.717,0.441L324.121,332.744z"/>
	<path fill="#ED1C24" stroke="#ED1C24" stroke-width="0.25" stroke-miterlimit="10" d="M327.973,332.096
		c0.412,0,0.778,0.074,1.098,0.22c0.32,0.146,0.59,0.351,0.808,0.614c0.218,0.265,0.383,0.584,0.495,0.957
		c0.111,0.375,0.168,0.789,0.168,1.246c0,0.455-0.057,0.869-0.168,1.238c-0.112,0.37-0.277,0.688-0.495,0.951
		s-0.487,0.467-0.808,0.609c-0.319,0.142-0.686,0.213-1.098,0.213c-0.416,0-0.783-0.071-1.101-0.213
		c-0.318-0.143-0.587-0.346-0.804-0.609c-0.219-0.264-0.384-0.581-0.496-0.951c-0.111-0.369-0.168-0.783-0.168-1.238
		c0-0.457,0.057-0.871,0.168-1.246c0.112-0.373,0.277-0.692,0.496-0.957c0.217-0.264,0.485-0.469,0.804-0.614
		C327.189,332.17,327.557,332.096,327.973,332.096z M327.973,338.024c0.4,0,0.752-0.07,1.057-0.21
		c0.304-0.141,0.557-0.336,0.759-0.588s0.354-0.557,0.456-0.912s0.152-0.75,0.152-1.182c0-0.433-0.051-0.828-0.152-1.186
		s-0.254-0.665-0.456-0.921s-0.455-0.455-0.759-0.597c-0.305-0.143-0.656-0.213-1.057-0.213c-0.404,0-0.757,0.07-1.059,0.213
		c-0.303,0.142-0.555,0.341-0.756,0.597c-0.202,0.256-0.354,0.563-0.457,0.921c-0.102,0.357-0.152,0.753-0.152,1.186
		c0,0.432,0.051,0.826,0.152,1.182c0.103,0.355,0.255,0.66,0.457,0.912c0.201,0.252,0.453,0.447,0.756,0.588
		C327.216,337.954,327.568,338.024,327.973,338.024z"/>
	<path fill="#ED1C24" stroke="#ED1C24" stroke-width="0.25" stroke-miterlimit="10" d="M332.527,333.914
		c0.084-0.287,0.184-0.545,0.299-0.771c0.117-0.225,0.256-0.416,0.418-0.572s0.348-0.273,0.558-0.354s0.449-0.121,0.718-0.121
		c0.115,0,0.234,0.01,0.356,0.027s0.231,0.053,0.327,0.105l-0.024,0.048c-0.008,0.012-0.015,0.022-0.021,0.032
		c-0.006,0.011-0.02,0.016-0.039,0.016c-0.021,0-0.047-0.005-0.078-0.016c-0.032-0.01-0.071-0.021-0.117-0.032
		c-0.046-0.013-0.102-0.022-0.168-0.033c-0.066-0.01-0.145-0.015-0.236-0.015c-0.265,0-0.498,0.042-0.703,0.126
		c-0.203,0.084-0.385,0.208-0.543,0.372s-0.298,0.369-0.42,0.617c-0.121,0.248-0.23,0.537-0.326,0.865v3.863h-0.145v-5.88h0.036
		c0.056,0,0.084,0.032,0.084,0.096L332.527,333.914z"/>
	<path fill="#ED1C24" stroke="#ED1C24" stroke-width="0.25" stroke-miterlimit="10" d="M340.362,337.377
		c-0.067,0.084-0.169,0.17-0.303,0.26s-0.292,0.174-0.474,0.25c-0.183,0.076-0.381,0.138-0.598,0.186
		c-0.216,0.048-0.438,0.072-0.666,0.072c-0.404,0-0.766-0.071-1.086-0.213c-0.32-0.143-0.591-0.348-0.812-0.615
		c-0.223-0.268-0.393-0.596-0.514-0.984c-0.119-0.388-0.18-0.828-0.18-1.32c0-0.432,0.059-0.826,0.174-1.185
		c0.116-0.358,0.284-0.665,0.504-0.921c0.221-0.256,0.489-0.455,0.807-0.598c0.318-0.141,0.68-0.213,1.084-0.213
		c0.308,0,0.598,0.056,0.869,0.166c0.272,0.109,0.51,0.272,0.711,0.488c0.203,0.217,0.361,0.481,0.478,0.795
		c0.116,0.314,0.175,0.676,0.175,1.084c0,0.02-0.008,0.034-0.021,0.045c-0.014,0.01-0.031,0.015-0.051,0.015h-4.572
		c-0.004,0.056-0.008,0.11-0.01,0.161c-0.002,0.053-0.002,0.106-0.002,0.162c0,0.488,0.058,0.92,0.174,1.293
		c0.115,0.375,0.281,0.688,0.494,0.942c0.215,0.255,0.473,0.447,0.774,0.579c0.302,0.133,0.638,0.198,1.005,0.198
		c0.328,0,0.612-0.036,0.852-0.108c0.24-0.072,0.441-0.152,0.601-0.24c0.16-0.088,0.282-0.168,0.366-0.24
		c0.084-0.071,0.134-0.107,0.15-0.107c0.016,0,0.031,0.008,0.047,0.023L340.362,337.377z M340.398,334.58
		c0-0.38-0.054-0.717-0.162-1.011c-0.107-0.294-0.257-0.541-0.447-0.741c-0.189-0.199-0.412-0.352-0.668-0.456
		s-0.531-0.155-0.822-0.155c-0.353,0-0.67,0.056-0.951,0.168c-0.282,0.111-0.525,0.271-0.729,0.479
		c-0.205,0.208-0.367,0.457-0.49,0.747c-0.121,0.29-0.2,0.613-0.236,0.969H340.398z"/>
</g>
<path fill="none" stroke="#000000" stroke-width="0.5" stroke-miterlimit="10" d="M94.5,32.693c0-1.988,1.611-3.6,3.6-3.6H261.9
	c1.988,0,3.6,1.611,3.6,3.6v1.801c0,1.988-1.611,3.6-3.6,3.6H98.1c-1.988,0-3.6-1.611-3.6-3.6V32.693z"/>
<path fill="none" stroke="#000000" stroke-width="0.5" stroke-miterlimit="10" d="M94.5,45.293c0-1.988,1.611-3.6,3.6-3.6H261.9
	c1.988,0,3.6,1.611,3.6,3.6v1.801c0,1.988-1.611,3.6-3.6,3.6H98.1c-1.988,0-3.6-1.611-3.6-3.6V45.293z"/>
</svg>
