<?xml version="1.0" encoding="utf-8"?>
<!-- Generator: Adobe Illustrator 16.0.0, SVG Export Plug-In . SVG Version: 6.00 Build 0)  -->
<!DOCTYPE svg PUBLIC "-//W3C//DTD SVG 1.1//EN" "http://www.w3.org/Graphics/SVG/1.1/DTD/svg11.dtd">
<svg version="1.1" id="Layer_1" xmlns="http://www.w3.org/2000/svg" xmlns:xlink="http://www.w3.org/1999/xlink" x="0px" y="0px"
	 width="400px" height="274px" viewBox="0 0 400 274" enable-background="new 0 0 400 274" xml:space="preserve">
<path id="front_outsideCutPath_1_" vector-effect="non-scaling-stroke" fill="none" stroke="#FF0000" stroke-width="0.1" stroke-linecap="round" d="
	M302.977,121.537v45.071l-0.145,0.145h-30.096l-0.145-0.145v-8.64h-16.991v8.64l-0.145,0.145h-17.855l-0.145-0.145v-8.64h-16.992
	v8.64l-0.144,0.145h-17.856l-0.144-0.145v-8.64h-16.992v8.64l-0.144,0.145h-17.856l-0.144-0.145v-8.64h-16.992v8.64l-0.145,0.145
	h-17.855l-0.145-0.145v-8.64h-16.992v8.64l-0.144,0.145H97.056l-0.144-0.145v-8.64H79.92v8.64l-0.144,0.145H61.92l-0.144-0.145
	v-8.64H44.784v8.64l-0.144,0.145H14.544l-0.144-0.144v-27.504l0.144-0.144v-16.992l-0.144-0.144V94.32l0.144-0.145h30.097
	l0.144,0.145v8.64h16.992v-8.64l0.144-0.145h17.856l0.144,0.145v8.64h16.992v-8.64l0.144-0.145h17.856l0.144,0.145v8.64h16.992
	v-8.64l0.145-0.145h17.855l0.145,0.145v8.64h16.992v-8.64l0.144-0.145h17.856l0.144,0.145v8.64h16.992v-8.64l0.144-0.145h17.856
	l0.144,0.145v8.64h16.992v-8.64l0.145-0.145h17.855l0.145,0.145v8.64h16.991v-8.64l0.145-0.145h30.096l0.145,0.145v27.504
	l-0.145,0.144"/>
<path id="top_outsideCutPath" vector-effect="non-scaling-stroke" fill="none" stroke="#FF0000" stroke-width="0.1" stroke-linecap="round" d="
	M14.402,220.494l0.145-0.145h30.137v-8.64l0.145-0.145h17.855l0.145,0.145v8.64H79.82v-8.64l0.145-0.145H97.82l0.145,0.145v8.64
	h16.991v-8.64l0.145-0.145h17.855l0.145,0.145v8.64h16.995v-8.64l0.145-0.145h17.855l0.145,0.145v8.64h16.991v-8.64l0.145-0.145
	h17.855l0.145,0.145v8.64h16.992v-8.64l0.145-0.145h17.855l0.143,0.145v8.64h16.991v-8.64l0.145-0.145h17.855l0.145,0.145v8.64
	h29.186l0.145,0.145v14.4l-0.145,0.145h-29.186v8.64l-0.145,0.145h-17.855l-0.145-0.145v-8.64H238.51v8.64l-0.145,0.145H220.51
	l-0.145-0.145v-8.64h-16.992v8.64l-0.145,0.145h-17.855l-0.145-0.145v-8.64h-16.991v8.64l-0.145,0.145h-17.855l-0.145-0.145v-8.64
	h-16.995v8.64l-0.145,0.145h-17.855l-0.145-0.145v-8.64H97.962v8.64l-0.144,0.145H79.962l-0.144-0.145v-8.64H62.827v8.64
	l-0.145,0.145H44.827l-0.145-0.145v-8.64H14.545l-0.145-0.145L14.402,220.494L14.402,220.494z"/>
<path id="back_outsideCutPath" vector-effect="non-scaling-stroke" fill="none" stroke="#FF0000" stroke-width="0.1" stroke-linecap="round" d="
	M14.544,94.177l-0.144-0.144V66.528l0.144-0.145V49.393l-0.144-0.144V21.745l0.144-0.144h30.097l0.144,0.145v8.64h16.992v-8.64
	l0.144-0.145h17.856l0.144,0.145v8.64h16.992v-8.64l0.144-0.145h17.856l0.144,0.145v8.64h16.992v-8.64l0.145-0.145h17.855
	l0.145,0.145v8.64h16.992v-8.64l0.144-0.145h17.856l0.144,0.145v8.64h16.992v-8.64l0.144-0.145h17.856l0.144,0.145v8.64h16.992
	v-8.64l0.145-0.145h17.855l0.145,0.145v8.64h16.991v-8.64l0.145-0.145h30.096l0.145,0.145V49.25l-0.145,0.144 M302.977,48.96v45.072
	l-0.145,0.144 M202.464,94.177l-0.144-0.144v-8.641h-16.992v8.641l-0.144,0.144 M272.737,94.177l-0.145-0.144v-8.641h-16.991v8.641
	l-0.145,0.144 M61.92,94.177l-0.144-0.144v-8.641H44.784v8.641l-0.144,0.144 M97.056,94.177l-0.144-0.144v-8.641H79.92v8.641
	l-0.144,0.144 M132.193,94.177l-0.145-0.144v-8.641h-16.992v8.641l-0.144,0.144 M167.328,94.177l-0.144-0.144v-8.641h-16.992v8.641
	l-0.145,0.144 M237.601,94.177l-0.145-0.144v-8.641h-16.992v8.641l-0.144,0.144"/>
<path id="bottom_outsideCutPath" vector-effect="non-scaling-stroke" fill="none" stroke="#FF0000" stroke-width="0.1" stroke-linecap="round" d="
	M44.827,211.566l-0.145-0.145v-8.641H14.545l-0.145-0.145v-14.399l0.145-0.144h30.137v-8.641l0.145-0.143h17.855l0.145,0.145v8.641
	h16.992v-8.641l0.144-0.145h17.856l0.144,0.145v8.641h16.992v-8.641l0.145-0.145h17.855l0.145,0.145v8.641h16.995v-8.641
	l0.145-0.145h17.855l0.145,0.145v8.641h16.991v-8.641l0.144-0.145h17.855l0.145,0.145v8.641h16.992v-8.641l0.145-0.145h17.855
	l0.145,0.145v8.64h16.991v-8.64l0.145-0.145h17.855l0.145,0.145v8.641h29.186l0.145,0.145v14.4l-0.145,0.144h-29.186v8.642
	l-0.145,0.144 M150.239,211.566l-0.145-0.145v-8.641h-16.995v8.641l-0.145,0.145 M79.963,211.566l-0.144-0.145v-8.641H62.827v8.641
	l-0.145,0.145 M115.099,211.566l-0.145-0.145v-8.641H97.963v8.641l-0.144,0.145 M220.51,211.566l-0.145-0.145v-8.641h-16.992v8.641
	l-0.145,0.145 M255.646,211.566l-0.145-0.145v-8.641H238.51v8.641l-0.145,0.145 M185.374,211.566l-0.145-0.145v-8.641h-16.991v8.641
	l-0.145,0.145"/>
<circle fill="none" stroke="#FF0000" stroke-width="0.1" stroke-linecap="round" cx="106.919" cy="57.891" r="25.365"/>
<circle fill="none" stroke="#FF0000" stroke-width="0.1" stroke-linecap="round" cx="153.919" cy="57.891" r="5.102"/>
<path fill="none" stroke="#FF0000" stroke-width="0.1" stroke-linecap="round" d="M325.896,163.84l-0.02,0.04l-0.8,1.921
	l-0.01,0.039l-15.78,37.9h0.01c-1.79,3.82-2.78,8.08-2.78,12.57c0,16.5,13.38,29.881,29.88,29.881s29.88-13.381,29.88-29.881
	c0-4.49-0.99-8.75-2.77-12.57l-15.76-37.85l-0.02-0.051l-0.84-2c-1.98-3.77-5.93-6.34-10.49-6.34S327.885,160.07,325.896,163.84z
	 M357.996,216.311c0,11.93-9.67,21.6-21.6,21.6s-21.6-9.67-21.6-21.6c0-11.931,9.67-21.601,21.6-21.601
	S357.996,204.38,357.996,216.311z M341.926,169.37c0,3.05-2.48,5.521-5.53,5.521c-3.06,0-5.53-2.471-5.53-5.521
	c0-3.06,2.47-5.53,5.53-5.53C339.446,163.84,341.926,166.311,341.926,169.37z"/>
</svg>
