<?xml version="1.0" encoding="utf-8"?>
<!-- Generator: Adobe Illustrator 16.0.0, SVG Export Plug-In . SVG Version: 6.00 Build 0)  -->
<!DOCTYPE svg PUBLIC "-//W3C//DTD SVG 1.1//EN" "http://www.w3.org/Graphics/SVG/1.1/DTD/svg11.dtd">
<svg version="1.1" id="Layer_1" xmlns="http://www.w3.org/2000/svg" xmlns:xlink="http://www.w3.org/1999/xlink" x="0px" y="0px"
	 width="375px" height="792px" viewBox="88.5 0 375 792" enable-background="new 88.5 0 375 792" xml:space="preserve">
<rect x="310.984" y="643.301" fill="none" stroke="#000000" stroke-width="0.25" stroke-miterlimit="10" width="18" height="54"/>
<rect x="333.019" y="643.301" fill="none" stroke="#000000" stroke-width="0.25" stroke-miterlimit="10" width="18" height="54"/>
<g>
	<path fill="none" stroke="#000000" stroke-width="0.25" stroke-miterlimit="10" d="M306.019,311.347V479.4
		c0,1.986,1.609,3.6,3.601,3.6h32.399c4.972,0,8.275-4.084,9-9c2.719-18.492,9-56.191,9-94.5c0-38.309-3.62-71.75-9-89.65V276h-45
		v27v-0.001V311.347z"/>
	
		<rect x="328.987" y="355.109" fill="none" stroke="#000000" stroke-width="0.25" stroke-miterlimit="10" width="8.062" height="53.278"/>
</g>
<g>
	<path fill="none" stroke="#000000" stroke-width="0.25" stroke-miterlimit="10" d="M306.019,243L306.019,243V270h45v-13.85
		c5.38-17.9,9-51.343,9-89.65s-6.281-76.008-9-94.5c-0.725-4.917-4.028-9-9-9H309.62c-1.991,0-3.601,1.611-3.601,3.6v168.053V243z"
		/>
	
		<rect x="328.987" y="137.612" fill="none" stroke="#000000" stroke-width="0.25" stroke-miterlimit="10" width="8.062" height="53.278"/>
</g>
<path fill="none" stroke="#000000" stroke-width="0.25" stroke-miterlimit="10" d="M324.957,614.328h8.064v17.973h0.145h10.225
	c1.986,0,3.601-1.611,3.601-3.6V491.9c0-1.988-1.611-3.6-3.601-3.6h-10.227h-0.145v17.973h-8.064v-17.973h-0.143h-10.228
	c-1.985,0-3.601,1.611-3.601,3.6v136.801c0,1.988,1.611,3.6,3.601,3.6h10.228h0.143L324.957,614.328L324.957,614.328z"/>
<g>
	<path fill="none" stroke="#000000" stroke-width="0.25" stroke-miterlimit="10" d="M297.32,720c2.72-18.492,9-56.191,9-94.5
		c0-38.311-3.619-71.75-9-89.65V66.599c0-1.99-1.609-3.6-3.6-3.6h-37.802c-1.991,0-3.6,1.609-3.6,3.6v410.973h9.045v8.064h-9.045
		v27.197h9.045v8.062h-9.045v0.449V725.4c0,1.988,1.61,3.6,3.601,3.6h32.399C293.291,729,296.595,724.916,297.32,720z
		 M270.319,78.748c0-2.49,2.011-4.5,4.5-4.5c2.49,0,4.5,2.01,4.5,4.5c0,2.49-2.01,4.5-4.5,4.5
		C272.329,83.248,270.319,81.237,270.319,78.748z M270.319,114.748c0-2.49,2.011-4.5,4.5-4.5c2.49,0,4.5,2.01,4.5,4.5
		c0,2.49-2.01,4.5-4.5,4.5C272.329,119.248,270.319,117.237,270.319,114.748z M275.286,654.387v-53.279h8.064v53.279H275.286z"/>
	<g>
		<path fill="#FFFFFF" stroke="#010101" stroke-width="0.25" stroke-miterlimit="10" d="M297.354,155.833
			c0,0.45-0.11,0.891-0.3,1.271c-0.471,0.96-1.45,1.609-2.58,1.609c-0.22,0-0.431-0.02-0.63-0.069
			c-0.28-0.061-0.551-0.17-0.79-0.311l-1.08-1.08l-8-8.01l-0.021,0.02c-0.13-0.119-0.3-0.199-0.489-0.199
			c-0.381,0-0.681,0.31-0.681,0.689c0,0.19,0.08,0.36,0.2,0.48l-0.03,0.029l14.4,14.41"/>
		<path fill="#FFFFFF" stroke="#010101" stroke-width="0.25" stroke-miterlimit="10" d="M297.354,184.933
			c0,0.45-0.11,0.891-0.3,1.271c-0.471,0.96-1.45,1.609-2.58,1.609c-0.22,0-0.431-0.02-0.63-0.069
			c-0.28-0.061-0.551-0.17-0.79-0.311l-1.08-1.08l-8-8.01l-0.021,0.02c-0.13-0.119-0.3-0.199-0.489-0.199
			c-0.381,0-0.681,0.31-0.681,0.688c0,0.19,0.08,0.36,0.2,0.48l-0.03,0.029l14.4,14.41"/>
		<path fill="#FFFFFF" stroke="#010101" stroke-width="0.25" stroke-miterlimit="10" d="M297.354,214.033
			c0,0.45-0.11,0.891-0.3,1.271c-0.471,0.96-1.45,1.609-2.58,1.609c-0.22,0-0.431-0.02-0.63-0.069
			c-0.28-0.061-0.551-0.17-0.79-0.311l-1.08-1.08l-8-8.01l-0.021,0.02c-0.13-0.119-0.3-0.199-0.489-0.199
			c-0.381,0-0.681,0.31-0.681,0.689c0,0.19,0.08,0.36,0.2,0.48l-0.03,0.029l14.4,14.41"/>
		<path fill="#FFFFFF" stroke="#010101" stroke-width="0.25" stroke-miterlimit="10" d="M297.354,243.133
			c0,0.449-0.11,0.891-0.3,1.27c-0.471,0.961-1.45,1.609-2.58,1.609c-0.22,0-0.431-0.02-0.63-0.068
			c-0.28-0.061-0.551-0.17-0.79-0.311l-1.08-1.08l-8-8.01l-0.021,0.02c-0.13-0.119-0.3-0.2-0.489-0.2
			c-0.381,0-0.681,0.309-0.681,0.69c0,0.189,0.08,0.359,0.2,0.48l-0.03,0.029l14.4,14.41"/>
	</g>
</g>
<g>
	<path fill="none" stroke="#000000" stroke-width="0.25" stroke-miterlimit="10" d="M209.983,729h32.399
		c1.99,0,3.601-1.611,3.601-3.602V521.348v-0.449h-9.045v-8.064h9.045v-27.197h-9.045v-8.062h9.045V66.599
		c0-1.991-1.608-3.6-3.6-3.6h-37.801c-1.99,0-3.6,1.61-3.6,3.6v469.25c-5.381,17.9-9,51.342-9,89.65c0,38.307,6.28,76.008,9,94.5
		C201.708,724.916,205.011,729,209.983,729z M223.483,83.248c-2.49,0-4.5-2.01-4.5-4.5c0-2.49,2.01-4.5,4.5-4.5
		c2.489,0,4.5,2.01,4.5,4.5C227.983,81.237,225.972,83.248,223.483,83.248z M223.483,119.248c-2.49,0-4.5-2.01-4.5-4.5
		c0-2.49,2.01-4.5,4.5-4.5c2.489,0,4.5,2.01,4.5,4.5C227.983,117.237,225.972,119.248,223.483,119.248z M214.951,654.387v-53.279
		h8.064v53.279H214.951z"/>
	<g>
		<path fill="#FFFFFF" stroke="#010101" stroke-width="0.25" stroke-miterlimit="10" d="M200.947,155.833
			c0,0.45,0.11,0.891,0.3,1.271c0.471,0.96,1.45,1.609,2.58,1.609c0.22,0,0.431-0.02,0.63-0.069c0.28-0.061,0.551-0.17,0.79-0.311
			l1.08-1.08l8-8.01l0.021,0.02c0.13-0.119,0.3-0.199,0.489-0.199c0.381,0,0.681,0.31,0.681,0.689c0,0.19-0.08,0.36-0.2,0.48
			l0.03,0.029l-14.4,14.41"/>
		<path fill="#FFFFFF" stroke="#010101" stroke-width="0.25" stroke-miterlimit="10" d="M200.947,184.933
			c0,0.45,0.11,0.891,0.3,1.271c0.471,0.96,1.45,1.609,2.58,1.609c0.22,0,0.431-0.02,0.63-0.069c0.28-0.061,0.551-0.17,0.79-0.311
			l1.08-1.08l8-8.01l0.021,0.02c0.13-0.119,0.3-0.199,0.489-0.199c0.381,0,0.681,0.31,0.681,0.688c0,0.19-0.08,0.36-0.2,0.48
			l0.03,0.029l-14.4,14.41"/>
		<path fill="#FFFFFF" stroke="#010101" stroke-width="0.25" stroke-miterlimit="10" d="M200.947,214.033
			c0,0.45,0.11,0.891,0.3,1.271c0.471,0.96,1.45,1.609,2.58,1.609c0.22,0,0.431-0.02,0.63-0.069c0.28-0.061,0.551-0.17,0.79-0.311
			l1.08-1.08l8-8.01l0.021,0.02c0.13-0.119,0.3-0.199,0.489-0.199c0.381,0,0.681,0.31,0.681,0.689c0,0.19-0.08,0.36-0.2,0.48
			l0.03,0.029l-14.4,14.41"/>
		<path fill="#FFFFFF" stroke="#010101" stroke-width="0.25" stroke-miterlimit="10" d="M200.947,243.133
			c0,0.449,0.11,0.891,0.3,1.27c0.471,0.961,1.45,1.609,2.58,1.609c0.22,0,0.431-0.02,0.63-0.068c0.28-0.061,0.551-0.17,0.79-0.311
			l1.08-1.08l8-8.01l0.021,0.02c0.13-0.119,0.3-0.2,0.489-0.2c0.381,0,0.681,0.309,0.681,0.69c0,0.189-0.08,0.359-0.2,0.48
			l0.03,0.029l-14.4,14.41"/>
	</g>
</g>
</svg>
