<?xml version="1.0" encoding="utf-8"?>
<!-- Generator: Adobe Illustrator 16.0.0, SVG Export Plug-In . SVG Version: 6.00 Build 0)  -->
<!DOCTYPE svg PUBLIC "-//W3C//DTD SVG 1.1//EN" "http://www.w3.org/Graphics/SVG/1.1/DTD/svg11.dtd">
<svg version="1.1" id="Layer_1" xmlns="http://www.w3.org/2000/svg" xmlns:xlink="http://www.w3.org/1999/xlink" x="0px" y="0px"
	 width="648px" height="432px" viewBox="0 0 648 432" enable-background="new 0 0 648 432" xml:space="preserve">
<g>
	<path fill="#E6E6E6" stroke="#010101" stroke-width="0.5" stroke-miterlimit="10" d="M268.371,92.94
		c4.495,5.043,3.529,17.67,3.529,17.67s-4.344,4.773-22.771,19.385c-8.423,6.679-11.817,16.281-9.787,26.634
		c3.459,17.633,8.258,33.248,7.283,51.587c-1.008,18.98-5.894,38.562-16.972,54.282c-53.429,69.779-94.093,21.854-94.443,21.717
		c-9.108,8.568-43.154,30.885-44.185,31.514c-7.275,4.441-14.307,8.826-22.239,12.091c-3.247,1.336-27.262,8.664-23.396-3.252
		c0.956-2.943,4.953-5.828,7.54-7.4c-0.188,0.113-6.742,4.104,19.979-11.975c27.099-16.304,69.873-61.053,85.183-83.139
		c15.31-22.088,34.131-74.9,36.396-103.748c2.265-28.848,14.365-47.62,14.632-47c3.187,2.296,10.897,12.551,11.341,12.728
		c11.057-3.287,26.999,10.762,26.999,10.762C251.581,94.019,267.527,93.013,268.371,92.94z"/>
	<circle fill="#E6E6E6" stroke="#010101" stroke-width="0.5" stroke-miterlimit="10" cx="212.866" cy="162.19" r="2.521"/>
	<circle fill="#E6E6E6" stroke="#010101" stroke-width="0.5" stroke-miterlimit="10" cx="168.037" cy="267.848" r="2.52"/>
</g>
<g>
	<path fill="none" stroke="#010101" stroke-width="0.5" stroke-miterlimit="10" d="M520.803,53.758
		c6.7,0.863,14.246,11.031,14.246,11.031s-0.15,6.453-4.49,29.565c-1.984,10.565,1.745,20.043,10.064,26.53
		c14.17,11.05,28.027,19.698,39.312,34.187c11.68,14.996,20.823,32.987,22.764,52.125c5.385,87.717-56.739,78.176-57.095,78.302
		c-1.263,12.438-12.349,51.61-12.716,52.762c-2.582,8.123-5.021,16.043-8.87,23.706c-1.576,3.139-14.911,24.413-19.803,12.879
		c-1.208-2.849-0.079-7.646,0.844-10.529c-0.067,0.21-2.401,7.519,7.24-22.14c9.78-30.074,12.753-91.906,9.839-118.623
		c-2.915-26.716-23.314-78.938-40.514-102.211c-17.195-23.272-20.363-45.381-19.755-45.087c3.912-0.354,16.456,2.336,16.907,2.179
		c6.195-9.729,27.443-9.568,27.443-9.568C508.83,65.577,520.214,54.365,520.803,53.758z"/>
	<circle fill="none" stroke="#010101" stroke-width="0.5" stroke-miterlimit="10" cx="524.272" cy="142.439" r="2.521"/>
	<circle fill="none" stroke="#010101" stroke-width="0.5" stroke-miterlimit="10" cx="559.67" cy="251.621" r="2.52"/>
</g>
<g>
	<path fill="none" stroke="#010101" stroke-width="0.5" stroke-miterlimit="10" d="M357.403,303.042
		c0,0,12.323-32.434,31.782-48.973s33.403,1.297,35.676,12.648c2.27,11.353-1.947,35.675-20.758,45.729
		c0,0,16.664,17.74,16.58,19.136c-0.084,1.394-21.746,23.642-34.828,31.981c-6.08,3.878-12.899,6.245-20.125,4.751
		c-3.687-0.762-11.586-1.985-12.392-6.635c-1.168-6.756,11.957-9.426,16.57-10.77c11.385-3.312,22.426-7.881,27.709-19.655
		C382.109,326.771,365.596,317.38,357.403,303.042z"/>
	<circle fill="none" stroke="#010101" stroke-width="0.5" stroke-miterlimit="10" cx="402.918" cy="273.069" r="2.52"/>
</g>
<g>
	<path fill="none" stroke="#010101" stroke-width="0.5" stroke-miterlimit="10" d="M498.248,303.042
		c0,0-12.325-32.434-31.784-48.973c-19.46-16.539-33.404,1.297-35.677,12.648c-2.271,11.353,1.946,35.675,20.758,45.729
		c0,0-16.664,17.74-16.58,19.136c0.084,1.394,21.746,23.642,34.829,31.981c6.08,3.878,12.899,6.245,20.125,4.751
		c3.687-0.762,11.587-1.985,12.393-6.635c1.168-6.756-11.959-9.426-16.571-10.77c-11.384-3.312-22.425-7.881-27.708-19.655
		C473.542,326.771,490.053,317.38,498.248,303.042z"/>
	<circle fill="none" stroke="#010101" stroke-width="0.5" stroke-miterlimit="10" cx="452.731" cy="273.069" r="2.52"/>
</g>
<g>
	<path fill="#E6E6E6" stroke="#010101" stroke-width="0.5" stroke-miterlimit="10" d="M215.66,296.854
		c0,0-12.324-32.433-31.783-48.971c-19.46-16.539-33.404,1.296-35.677,12.646c-2.271,11.352,1.946,35.676,20.758,45.729
		c0,0-16.664,17.742-16.58,19.137c0.084,1.394,21.746,23.642,34.829,31.982c6.08,3.877,12.899,6.244,20.125,4.75
		c3.687-0.762,11.586-1.986,12.391-6.635c1.169-6.756-11.957-9.426-16.569-10.771c-11.384-3.311-22.425-7.881-27.708-19.653
		C190.955,320.585,207.466,311.192,215.66,296.854z"/>
	<circle fill="#E6E6E6" stroke="#010101" stroke-width="0.5" stroke-miterlimit="10" cx="170.145" cy="266.882" r="2.52"/>
</g>
<g>
	<path fill="none" stroke="#010101" stroke-width="0.5" stroke-miterlimit="10" d="M402.804,76.315c0,0,23.164,1.437,19.944,31.356
		c-1.795,16.668-3.282,33.395-3.775,50.156c-0.238,8.059-0.264,16.136,0.223,24.187c0.67,11.122,3.451,21.955,3.956,33.141
		c0.288,6.372,2.333,18.792-1.759,24.375c-3.068,4.186-21.343,7.587-27.609-25.332c-6.266-32.918,7.254-53.317,8.81-59.767
		c1.554-6.447,7.5-31.878,1.597-46.781C398.283,92.746,395.452,84.59,402.804,76.315z"/>
	<circle fill="none" stroke="#010101" stroke-width="0.5" stroke-miterlimit="10" cx="410.274" cy="219.396" r="2.52"/>
	<g>
		<path fill="none" stroke="#010101" stroke-width="0.5" stroke-miterlimit="10" d="M408.538,90.625
			c-2.205,0.437-4.354-0.995-4.784-3.19c-0.438-2.208,0.985-4.351,3.192-4.788c2.206-0.438,4.347,0.983,4.785,3.191
			C412.17,88.044,410.731,90.185,408.538,90.625z"/>
		<path fill="none" stroke="#010101" stroke-width="0.5" stroke-miterlimit="10" d="M409.807,110.169
			c-0.438-2.208,0.991-4.354,3.195-4.789c2.199-0.434,4.339,0.991,4.779,3.196c0.438,2.204-0.991,4.34-3.19,4.784
			C412.386,113.796,410.244,112.362,409.807,110.169z"/>
	</g>
</g>
<g>
	<path fill="none" stroke="#010101" stroke-width="0.5" stroke-miterlimit="10" d="M448.936,76.315c0,0-23.164,1.437-19.945,31.356
		c1.795,16.668,3.283,33.395,3.777,50.156c0.237,8.059,0.262,16.136-0.225,24.187c-0.67,11.122-3.45,21.955-3.956,33.141
		c-0.287,6.372-2.332,18.792,1.761,24.375c3.066,4.186,21.342,7.587,27.607-25.332c6.268-32.918-7.254-53.317-8.809-59.767
		c-1.554-6.447-7.5-31.878-1.597-46.781C453.455,92.746,456.287,84.59,448.936,76.315z"/>
	<circle fill="none" stroke="#010101" stroke-width="0.5" stroke-miterlimit="10" cx="441.466" cy="219.396" r="2.52"/>
	<g>
		<path fill="none" stroke="#010101" stroke-width="0.5" stroke-miterlimit="10" d="M440.008,85.837
			c0.438-2.208,2.578-3.629,4.784-3.191c2.207,0.438,3.632,2.581,3.193,4.787c-0.433,2.196-2.58,3.629-4.785,3.191
			C441.008,90.185,439.57,88.044,440.008,85.837z"/>
		<path fill="none" stroke="#010101" stroke-width="0.5" stroke-miterlimit="10" d="M437.148,113.36
			c-2.2-0.445-3.629-2.58-3.191-4.785c0.441-2.205,2.58-3.629,4.779-3.196c2.205,0.435,3.635,2.582,3.197,4.789
			C441.495,112.362,439.354,113.796,437.148,113.36z"/>
	</g>
</g>
<g>
	<path fill="#E6E6E6" stroke="#010101" stroke-width="0.5" stroke-miterlimit="10" d="M347.335,111.075
		c0,0-10.708-20.592-36.75-5.516c-14.508,8.4-29.192,16.545-44.313,23.795c-7.271,3.485-14.644,6.782-22.199,9.604
		c-10.438,3.898-21.468,5.75-31.896,9.824c-5.94,2.322-18.123,5.49-21.566,11.494c-2.582,4.5,1.721,22.584,34.353,14.962
		c32.631-7.622,45.794-28.255,51.059-32.29s26.097-19.784,42.113-20.432C334.149,121.87,342.751,121.151,347.335,111.075z"/>
	<circle fill="#E6E6E6" stroke="#010101" stroke-width="0.5" stroke-miterlimit="10" cx="213.52" cy="162.275" r="2.52"/>
	<g>
		<path fill="#E6E6E6" stroke="#010101" stroke-width="0.5" stroke-miterlimit="10" d="M335.01,106.776
			c2.195-0.496,4.363,0.885,4.857,3.078c0.494,2.195-0.887,4.366-3.081,4.86c-2.183,0.496-4.363-0.887-4.858-3.079
			C331.442,109.453,332.815,107.272,335.01,106.776z"/>
		<path fill="#E6E6E6" stroke="#010101" stroke-width="0.5" stroke-miterlimit="10" d="M308.692,115.325
			c-0.485-2.192,0.887-4.364,3.079-4.857c2.194-0.49,4.363,0.887,4.859,3.071c0.496,2.192-0.886,4.37-3.081,4.864
			C311.366,118.896,309.188,117.519,308.692,115.325z"/>
	</g>
</g>
</svg>
