<?xml version="1.0" encoding="utf-8"?>
<!-- Generator: Adobe Illustrator 16.0.0, SVG Export Plug-In . SVG Version: 6.00 Build 0)  -->
<!DOCTYPE svg PUBLIC "-//W3C//DTD SVG 1.1//EN" "http://www.w3.org/Graphics/SVG/1.1/DTD/svg11.dtd">
<svg version="1.1" id="Layer_1" xmlns="http://www.w3.org/2000/svg" xmlns:xlink="http://www.w3.org/1999/xlink" x="0px" y="0px"
	 width="648px" height="432px" viewBox="0 0 648 432" enable-background="new 0 0 648 432" xml:space="preserve">
<path fill="#E6E6E6" stroke="#010101" stroke-width="0.5" stroke-miterlimit="10" d="M190.567,103.057
	c-0.053-0.704-0.184-1.354-0.354-2.039c0,0-11.137,3.712-12.819,2.265c-1.684-1.445-0.384-5.907-0.384-5.907
	s8.608-0.812,13.013-2.688c0.045,0.178-2.56-10.008-2.56-10.008l-5.314,1.359l3.239-9.48c0,0-5.521-3.109-7.17-9.084
	c-1.072-3.886-3.364-7.633-5.738-10.846c-7.088-9.594-22.614-15.015-33.598-9.671c-3.504,1.705-6.105,4.604-9.418,6.499
	c-2.341,1.34-4.76,1.555-6.725,3.577c-5.378,5.532-6.117,11.183-4.482,18.507c0.942,4.223,2.471,8.223,4.928,11.807
	c1.625,2.373,3.745,4.541,5.979,6.348c3.478,2.812,7.826,4.68,10.735,8.16c3.878,4.639,2.378,10.713,2.416,16.299
	c0.07,10.246-0.163,20.502-0.573,30.742c-0.438,10.83-1.053,21.675-2.229,32.451c-1.005,9.193-1.428,22.664-6.002,31.021
	c-1.812,3.31-5.24,6.321-6.066,10.038c-3.601,16.139,4.562,31.225,18.875,38.854c9.996,5.33,15.039-8.723,16.352-10.934
	c1.312-2.215,5.959-7.529-1.238-18.078c-7.2-10.549-2.938-39.415,23.229-45.727c0.864-0.211,1.167-6.168,1.227-6.844
	c1.47-16.229-3.748-33.57-13.476-46.609c-2.633-3.528-4.67-7.17-8.04-10.02c-2.412-2.039-3.218-3.334-2.966-6.834
	c0.534-7.412,5.003-3.891,9.451-2.438c2.026,0.66,4.024,0.721,6.127,1.135c2.25,0.441,5.601-0.109,7.805-0.697
	c1.725-0.461,3.293-1.309,4.288-2.834C190.595,109.053,190.767,105.76,190.567,103.057z M147.2,241.616
	c-1.393,0-2.521-1.129-2.521-2.521c0-1.393,1.129-2.521,2.521-2.521c1.392,0,2.52,1.129,2.52,2.521S148.592,241.616,147.2,241.616z
	 M154.062,137.922c-1.393,0-2.521-1.129-2.521-2.521c0-1.393,1.128-2.52,2.521-2.52s2.521,1.127,2.521,2.52
	C156.582,136.793,155.454,137.922,154.062,137.922z"/>
<path fill="none" stroke="#010101" stroke-width="0.5" stroke-miterlimit="10" d="M406.763,352.489
	c-2.527-1.654-5.8-1.968-8.28-3.554c-2.527-1.614-4.158-3.889-5.295-6.602c-2.059-4.908-3.382-10.238-5.138-15.279
	c-1.42-4.082-2.895-8.146-4.46-12.174c-1.145-2.943-2.337-5.871-3.615-8.76c-0.971-2.188-1.982-4.357-3.098-6.478
	c-2.036-3.862-5.191-7.938-4.843-12.694c0.308-4.199,1.194-8.636,2.72-12.578c3.232-8.345,8.966-15.552,14.772-22.25
	c8.036-9.271,22.702-17.515,19.938-31.922c-1.998-10.417-12.062-17.242-22.479-15.244c-5.424,1.041-10.209,4.437-12.986,9.211
	c-3.561,6.122-1.212,13.855-1.679,20.544c-0.497,7.152-3.805,13.621-7.295,19.876c-3.147,5.639-5.543,12.424-8.864,17.957
	c-1.572,2.619-3.376,5.229-4.195,8.149c-0.428,1.527-0.079,8.591,0.443,14.07c0.525,5.84,4.014,7.912,7.612,12.137
	c7.57,8.884,13.281,19.574,18.755,29.82c2.567,4.812,6.896,10.043,7.556,15.607c0.145,1.209-0.041,2.166-0.422,2.983
	c-1.047,2.259-3.578,3.465-4.833,5.963c-1.487,2.962-2.369,5.259-4.348,8.013c-1.377,1.916-2.795,3.805-4.237,5.672
	c-0.948,1.219-2.83,1.199-3.652,2.498c-0.924,1.451-0.068,3.537,0.224,5.061c3.684-2.065,7.993-3.438,11.489-5.686
	c4.018-2.584,5.803-7.412,9.424-10.438c4.33-3.616,10.044-3.305,15.222-4.526C409.355,360.886,410.269,354.784,406.763,352.489z
	 M388.799,220.021c1.367-0.263,2.688,0.634,2.949,2c0.263,1.366-0.633,2.688-1.999,2.949c-1.368,0.263-2.688-0.634-2.95-1.999
	C386.536,221.604,387.433,220.284,388.799,220.021z M367.537,298.976c-2.938-13.219,3.348,1.729,3.348,1.729
	s14.617,26.405,16.684,37.178C387.218,338.169,370.479,312.192,367.537,298.976z"/>
<path fill="none" stroke="#010101" stroke-width="0.5" stroke-miterlimit="10" d="M425.24,361.868
	c5.178,1.223,10.892,0.91,15.222,4.526c3.621,3.025,5.406,7.854,9.424,10.438c3.496,2.248,7.807,3.619,11.489,5.686
	c0.292-1.522,1.146-3.608,0.224-5.061c-0.822-1.299-2.704-1.279-3.652-2.498c-1.442-1.867-2.86-3.756-4.237-5.672
	c-1.979-2.754-2.86-5.051-4.348-8.013c-1.255-2.497-3.786-3.704-4.833-5.963c-0.381-0.817-0.565-1.774-0.422-2.983
	c0.658-5.564,4.987-10.797,7.556-15.607c5.473-10.246,11.184-20.938,18.755-29.82c3.6-4.225,7.087-6.297,7.612-12.137
	c0.522-5.479,0.871-12.543,0.442-14.07c-0.818-2.92-2.623-5.53-4.194-8.149c-3.321-5.533-5.717-12.318-8.864-17.957
	c-3.49-6.256-6.798-12.725-7.295-19.876c-0.467-6.688,1.882-14.422-1.679-20.544c-2.777-4.774-7.562-8.17-12.986-9.211
	c-10.417-1.998-20.481,4.827-22.479,15.244c-2.766,14.408,11.9,22.652,19.938,31.922c5.807,6.699,11.54,13.905,14.772,22.25
	c1.524,3.942,2.411,8.379,2.72,12.578c0.35,4.756-2.807,8.832-4.843,12.694c-1.114,2.119-2.127,4.289-3.098,6.478
	c-1.278,2.889-2.472,5.815-3.616,8.76c-1.564,4.027-3.039,8.092-4.459,12.174c-1.756,5.041-3.079,10.371-5.138,15.279
	c-1.137,2.713-2.768,4.986-5.295,6.602c-2.48,1.586-5.753,1.898-8.281,3.554C420.167,354.784,421.08,360.886,425.24,361.868z
	 M443.637,222.973c-0.262,1.365-1.582,2.261-2.949,1.999c-1.366-0.262-2.263-1.583-1.999-2.949c0.262-1.366,1.582-2.263,2.948-2
	C443.004,220.284,443.899,221.604,443.637,222.973z M442.868,337.882c2.064-10.771,16.683-37.178,16.683-37.178
	s6.287-14.947,3.349-1.729C459.956,312.192,443.218,338.169,442.868,337.882z"/>
<path fill="none" stroke="#010101" stroke-width="0.5" stroke-miterlimit="10" d="M567.778,123.057
	c-0.053-0.704-0.184-1.354-0.354-2.039c0,0-11.137,3.712-12.819,2.265c-1.684-1.445-0.384-5.907-0.384-5.907
	s8.608-0.812,13.013-2.688c0.045,0.178-2.56-10.008-2.56-10.008l-5.314,1.359l3.239-9.48c0,0-5.521-3.109-7.17-9.084
	c-1.072-3.886-3.364-7.633-5.738-10.846c-7.088-9.594-22.614-15.015-33.598-9.671c-3.504,1.705-6.105,4.604-9.418,6.499
	c-2.341,1.34-4.76,1.555-6.725,3.576c-5.378,5.533-6.117,11.184-4.482,18.508c0.942,4.223,2.471,8.223,4.928,11.807
	c1.625,2.373,3.745,4.541,5.979,6.348c3.478,2.812,7.826,4.68,10.735,8.16c3.878,4.639,2.378,10.713,2.416,16.299
	c0.07,10.246-0.163,20.502-0.573,30.742c-0.438,10.83-1.053,21.675-2.229,32.451c-1.005,9.193-1.428,22.664-6.002,31.021
	c-1.812,3.31-5.239,6.321-6.066,10.038c-3.601,16.139,4.562,31.225,18.875,38.854c9.996,5.33,15.039-8.723,16.352-10.934
	c1.312-2.215,5.959-7.529-1.238-18.078c-7.2-10.549-2.938-39.415,23.229-45.727c0.864-0.211,1.167-6.168,1.227-6.844
	c1.47-16.229-3.748-33.57-13.476-46.609c-2.633-3.528-4.67-7.17-8.04-10.02c-2.412-2.039-3.218-3.334-2.966-6.834
	c0.534-7.412,5.003-3.891,9.451-2.438c2.026,0.66,4.024,0.721,6.127,1.135c2.25,0.441,5.601-0.109,7.805-0.697
	c1.725-0.461,3.293-1.309,4.288-2.834C567.806,129.053,567.979,125.76,567.778,123.057z M524.411,261.616
	c-1.393,0-2.521-1.129-2.521-2.521c0-1.393,1.129-2.521,2.521-2.521c1.392,0,2.52,1.129,2.52,2.521S525.803,261.616,524.411,261.616
	z M531.272,157.922c-1.393,0-2.521-1.129-2.521-2.521c0-1.393,1.128-2.52,2.521-2.52s2.521,1.127,2.521,2.52
	C533.793,156.793,532.665,157.922,531.272,157.922z"/>
<path fill="#E6E6E6" stroke="#010101" stroke-width="0.5" stroke-miterlimit="10" d="M158.073,379.507
	c5.318,0.132,10.846-1.35,15.827,1.3c4.166,2.216,6.905,6.573,11.369,8.275c3.884,1.48,8.384,1.937,12.413,3.201
	c-0.027-1.552,0.38-3.77-0.823-4.998c-1.071-1.104-2.909-0.696-4.088-1.693c-1.796-1.531-3.571-3.088-5.313-4.68
	c-2.503-2.288-3.838-4.354-5.902-6.945c-1.741-2.187-4.468-2.848-5.955-4.842c-0.541-0.724-0.92-1.621-1.027-2.834
	c-0.499-5.581,2.661-11.592,4.184-16.827c3.248-11.153,6.64-22.791,12.221-33.041c2.652-4.874,5.641-7.62,4.953-13.443
	c-0.614-5.471-1.729-12.452-2.461-13.859c-1.401-2.688-3.705-4.873-5.781-7.113c-4.389-4.73-8.129-10.879-12.368-15.749
	c-4.702-5.404-9.271-11.055-11.229-17.95c-1.833-6.449-1.125-14.501-5.868-19.761c-3.699-4.101-9.082-6.438-14.604-6.342
	c-10.605,0.188-19.053,8.937-18.864,19.541c0.259,14.67,16.307,19.722,26.077,27.14c7.061,5.361,14.154,11.235,19.033,18.735
	c2.305,3.545,4.084,7.703,5.249,11.75c1.319,4.582-0.931,9.221-2.128,13.42c-0.654,2.303-1.199,4.635-1.698,6.975
	c-0.657,3.09-1.223,6.201-1.736,9.316c-0.704,4.264-1.311,8.544-1.86,12.831c-0.681,5.294-0.881,10.782-1.885,16.009
	c-0.554,2.889-1.683,5.449-3.822,7.55c-2.104,2.062-5.239,3.041-7.373,5.182C151.651,373.618,153.8,379.401,158.073,379.507z
	 M147.506,239.798c0.024,1.39-1.083,2.538-2.477,2.562c-1.392,0.025-2.539-1.083-2.562-2.474c-0.024-1.392,1.083-2.54,2.476-2.563
	C146.333,237.296,147.481,238.404,147.506,239.798z M170.39,352.407c-0.193-10.967,8.68-39.814,8.68-39.814s3.078-15.92,2.921-2.38
	C181.828,323.753,170.791,352.616,170.39,352.407z"/>
<path fill="none" stroke="#010101" stroke-width="0.5" stroke-miterlimit="10" d="M403.067,169.278
	c-5.387-5.831-13.683-7.632-18.654-14.228c-2.46-3.258-4.418-6.882-6.535-10.362c-1.925-3.162-4.5-5.736-6.417-8.882
	c-0.981-1.614-1.498-3.471-2.306-5.213c-2.056-4.437-3.844-9.235-4.818-14.036c-0.873-4.298,1.259-8.458,2.938-12.412
	c1.243-2.938,2.632-5.992,3.209-9.147c0.362-1.923,0.894-3.96,1.593-6.019c2.095-6.172,5.688-12.535,10.591-16.824
	c2.75-2.4,6.642-4.442,8.806-7.282c1.441-1.881,5.465-4.784,6.061-6.861c0.714-2.485-1.605-1.866-3.235-1.492
	c-2.038,0.46-5.821,2.609-6.241-0.536c-0.306-2.378,1.51-5.592,2.551-7.63c1.514-2.961,0.543-7.406-2.005-9.604
	c-1.52-1.305-3.598-1.409-5.464-0.949c-3.965,0.968-7.401,4.535-8.834,8.293c-1.777,4.684-1.257,8.93-1.841,13.777
	c-0.239,2.073-1.356,3.913-1.721,5.958c-0.735,4.167-1.151,8.18-3.946,11.888c-2.025,2.676-6.216,10.778-9.648,19.034
	c-0.23,0.548-0.457,1.102-0.68,1.646c-0.229,0.586-0.466,1.174-0.688,1.756c-1.43,3.729-2.618,7.352-3.292,10.347
	c-0.377,1.672-0.458,3.339-1.147,4.936c-0.668,1.548-1.354,2.938-1.685,4.614c-1.562,7.874,3.035,14.907,7.378,21.023
	c4.6,6.483,7.605,14.144,11.03,21.388c2.783,5.886,5.094,11.343,5.101,18.026c0.01,6.321,1.79,13.222,8.069,16.019
	c7.831,3.488,16.464,1.093,22.169-5.106C409.527,184.747,409.133,175.845,403.067,169.278z M383.873,43.264
	c2.003,0.579,3.153,2.673,2.58,4.667c-0.584,2.001-2.673,3.161-4.674,2.579c-1.992-0.581-3.148-2.664-2.572-4.665
	C379.789,43.841,381.873,42.692,383.873,43.264z M367.762,89.67c-3.459,9.188-8.81,20.935-8.81,20.935s-2.335,0.362-0.259-7.047
	c0.385-1.389,1.016-3.099,1.78-4.964c0.213-0.504,0.424-1.017,0.659-1.546c3.418-7.836,8.749-17.448,9.48-17.654
	C370.88,80.743,369.578,84.86,367.762,89.67z M372.939,67.57c0.581-2.002,2.674-3.148,4.667-2.579
	c2.003,0.578,3.157,2.674,2.581,4.665c-0.578,2.004-2.664,3.162-4.668,2.58C373.517,71.659,372.361,69.573,372.939,67.57z
	 M390.224,181.419c-0.493,0.226-1.021,0.241-1.506,0.09c-0.567-0.169-1.06-0.577-1.32-1.16c-0.488-1.075-0.011-2.349,1.064-2.837
	c1.076-0.485,2.343,0.003,2.828,1.079c0.23,0.503,0.243,1.058,0.084,1.546C391.192,180.691,390.787,181.165,390.224,181.419z"/>
<path fill="none" stroke="#010101" stroke-width="0.5" stroke-miterlimit="10" d="M428.265,191.4
	c5.705,6.199,14.339,8.596,22.17,5.106c6.278-2.797,8.06-9.697,8.068-16.018c0.007-6.686,2.317-12.142,5.102-18.027
	c3.425-7.244,6.431-14.904,11.029-21.387c4.344-6.117,8.938-13.151,7.378-21.024c-0.329-1.677-1.017-3.065-1.685-4.614
	c-0.689-1.597-0.771-3.264-1.147-4.936c-0.674-2.995-1.861-6.618-3.292-10.346c-0.222-0.584-0.458-1.17-0.688-1.756
	c-0.223-0.545-0.448-1.1-0.679-1.647c-3.435-8.255-7.623-16.358-9.649-19.034c-2.794-3.708-3.21-7.72-3.946-11.888
	c-0.362-2.046-1.479-3.886-1.721-5.958c-0.584-4.847-0.062-9.093-1.84-13.777c-1.433-3.758-4.87-7.325-8.835-8.293
	c-1.866-0.46-3.944-0.356-5.463,0.949c-2.548,2.198-3.52,6.643-2.005,9.604c1.041,2.039,2.854,5.252,2.55,7.63
	c-0.42,3.145-4.203,0.996-6.241,0.536c-1.63-0.375-3.949-0.994-3.235,1.492c0.596,2.077,4.618,4.98,6.061,6.861
	c2.164,2.839,6.056,4.882,8.806,7.281c4.902,4.289,8.496,10.652,10.591,16.826c0.699,2.058,1.229,4.094,1.594,6.018
	c0.577,3.156,1.965,6.211,3.209,9.146c1.68,3.957,3.812,8.115,2.938,12.413c-0.975,4.8-2.764,9.601-4.817,14.036
	c-0.809,1.742-1.323,3.6-2.307,5.213c-1.917,3.146-4.491,5.721-6.417,8.881c-2.117,3.481-4.074,7.105-6.535,10.363
	c-4.973,6.596-13.268,8.396-18.653,14.228C422.537,175.845,422.142,184.747,428.265,191.4z M452.463,45.844
	c0.576,2.001-0.58,4.084-2.571,4.665c-2.002,0.583-4.091-0.577-4.675-2.579c-0.572-1.993,0.577-4.087,2.58-4.667
	C449.797,42.692,451.881,43.841,452.463,45.844z M461.056,79.394c0.731,0.207,6.062,9.818,9.48,17.654
	c0.235,0.529,0.447,1.042,0.659,1.546c0.766,1.865,1.396,3.575,1.781,4.964c2.075,7.409-0.26,7.047-0.26,7.047
	s-5.351-11.748-8.81-20.935C462.092,84.86,460.79,80.743,461.056,79.394z M456.15,72.235c-2.004,0.582-4.09-0.576-4.668-2.58
	c-0.577-1.989,0.578-4.086,2.581-4.665c1.993-0.57,4.086,0.577,4.667,2.579C459.308,69.573,458.153,71.659,456.15,72.235z
	 M440.296,180.138c-0.159-0.488-0.146-1.043,0.084-1.546c0.485-1.076,1.752-1.563,2.828-1.079c1.075,0.488,1.554,1.762,1.065,2.837
	c-0.263,0.583-0.753,0.991-1.321,1.16c-0.485,0.15-1.012,0.135-1.505-0.09C440.883,181.165,440.478,180.691,440.296,180.138z"/>
<path fill="#E6E6E6" stroke="#010101" stroke-width="0.5" stroke-miterlimit="10" d="M137.716,135.159
	c0.071,8.426,4.863,15.994,13.013,18.662c6.53,2.14,12.481-1.781,16.729-6.461c4.49-4.953,9.865-7.447,15.879-9.944
	c7.4-3.073,14.769-6.735,22.529-8.456c7.324-1.622,15.451-3.753,19.578-10.639c0.881-1.465,1.304-2.955,1.847-4.551
	c0.562-1.646,1.618-2.937,2.461-4.43c1.511-2.673,3.061-6.157,4.502-9.88c0.227-0.581,0.445-1.175,0.668-1.763
	c0.202-0.553,0.405-1.116,0.603-1.678c2.994-8.425,5.325-17.244,5.618-20.587c0.416-4.624,2.8-7.878,5.05-11.462
	c1.104-1.761,1.511-3.875,2.724-5.572c2.818-3.986,6.057-6.784,7.88-11.45c1.459-3.748,1.305-8.699-0.985-12.077
	c-1.074-1.594-2.686-2.912-4.688-2.962c-3.362-0.08-7.065,2.564-7.931,5.775c-0.597,2.21-1.407,5.81-3.23,7.368
	c-2.421,2.051-3.783-2.082-4.985-3.79c-0.957-1.372-2.261-3.387-3.4-1.065c-0.951,1.938,0.083,6.791-0.108,9.153
	c-0.303,3.557,1.214,7.683,1.643,11.308c0.756,6.469-0.849,13.599-3.438,19.582c-0.862,1.994-1.837,3.86-2.857,5.531
	c-1.689,2.728-2.711,5.924-3.759,8.936c-1.408,4.06-2.619,8.574-6.15,11.175c-3.943,2.905-8.49,5.265-12.99,7.174
	c-1.769,0.75-3.396,1.781-5.209,2.318c-3.53,1.046-7.169,1.227-10.717,2.278c-3.905,1.16-7.789,2.535-11.799,3.299
	c-8.113,1.555-15.472-2.676-23.378-1.969C143.907,119.782,137.64,126.118,137.716,135.159z M253.327,43.474
	c-0.914,1.87-3.17,2.639-5.036,1.733c-1.876-0.911-2.646-3.172-1.735-5.048c0.912-1.863,3.171-2.644,5.045-1.729
	C253.467,39.349,254.24,41.599,253.327,43.474z M237.187,74.114c0.402,0.645-2.094,11.349-4.817,19.451
	c-0.181,0.551-0.367,1.072-0.548,1.59c-0.684,1.896-1.363,3.586-2.011,4.875c-3.434,6.887-4.921,5.051-4.921,5.051
	s3.916-12.301,7.516-21.434C234.287,78.862,236.083,74.938,237.187,74.114z M238.351,65.517c-1.875-0.914-2.645-3.172-1.729-5.046
	c0.907-1.862,3.17-2.642,5.043-1.726c1.86,0.915,2.643,3.169,1.73,5.044C242.48,65.662,240.224,66.433,238.351,65.517z
	 M154.193,134.882c0.21-0.469,0.591-0.873,1.101-1.09c1.081-0.473,2.348,0.016,2.82,1.097c0.469,1.083-0.03,2.349-1.114,2.818
	c-0.585,0.256-1.223,0.229-1.757-0.027c-0.462-0.214-0.842-0.579-1.057-1.077C153.939,136.036,153.957,135.414,154.193,134.882z"/>
</svg>
