<?xml version="1.0" encoding="utf-8"?>
<!-- Generator: Adobe Illustrator 16.0.0, SVG Export Plug-In . SVG Version: 6.00 Build 0)  -->
<!DOCTYPE svg PUBLIC "-//W3C//DTD SVG 1.1//EN" "http://www.w3.org/Graphics/SVG/1.1/DTD/svg11.dtd">
<svg version="1.1" id="Layer_1" xmlns="http://www.w3.org/2000/svg" xmlns:xlink="http://www.w3.org/1999/xlink" x="0px" y="0px"
	 width="648px" height="432px" viewBox="2225.5 131 648 432" enable-background="new 2225.5 131 648 432" xml:space="preserve">
<path fill="none" stroke="#010101" stroke-width="0.5" stroke-miterlimit="10" d="M2646.797,233.28l0.06-0.037l-23.618-32.125
	l-13.169-17.916l0,0c-2.411-4.257-7.541-6.654-12.681-5.889c-6.662,0.99-11.268,7.192-10.275,13.861
	c0.326,2.208,0.93,4.422,2.229,6.04l0,0l14.143,18.721l18.021,23.872c0.458,0.5,0.858,1.036,1.217,1.612
	c0.882,1.375,1.483,2.968,1.74,4.693c0.125,0.831,0.165,1.657,0.121,2.467c-0.009,0.009-0.008,0.02-0.006,0.028
	c-0.064,1.169-0.296,2.31-0.685,3.383l-10.042,49.466l-0.898,4.402c-0.144,1.566-0.104,3.186,0.14,4.813
	c1.649,11.104,11.993,18.776,23.105,17.125c11.112-1.65,18.775-12.003,17.124-23.105l-4.076-63.88l-0.13-1.989
	C2648.801,236.736,2647.982,234.858,2646.797,233.28z M2595.373,191.482c-1.363-1.791-1.011-4.336,0.779-5.699
	c1.789-1.362,4.338-1.009,5.701,0.78c1.358,1.778,1.009,4.336-0.78,5.699C2599.29,193.611,2596.737,193.271,2595.373,191.482z
	 M2615.835,211.687c-1.791,1.353-4.335,1.009-5.696-0.78c-1.36-1.79-1.01-4.336,0.771-5.697c1.787-1.364,4.342-1.013,5.706,0.777
	C2617.969,207.77,2617.624,210.322,2615.835,211.687z M2633.544,309.963c-1.26,0.188-2.432-0.68-2.618-1.94
	c-0.188-1.26,0.677-2.439,1.938-2.627c1.259-0.188,2.433,0.688,2.621,1.949C2635.672,308.604,2634.805,309.773,2633.544,309.963z"/>
<path fill="#E6E6E6" stroke="#010101" stroke-width="0.5" stroke-miterlimit="10" d="M2387.576,270.83L2387.576,270.83
	c-2.457-2.231-3.903-5.558-3.903-9.137c0-4.212,2.024-8.062,5.27-10.259l0,0c9.021-5.784,15.005-15.901,15.005-27.414
	c0-17.98-14.568-32.54-32.539-32.54c-17.969,0-32.539,14.56-32.539,32.54c0,11.75,6.237,22.051,15.584,27.766v0.009l0,0
	c2.982,2.225,4.637,6.201,4.637,10.205c0,3.309-1.309,6.3-3.444,8.489c-0.37,0.388-0.775,0.749-1.202,1.083
	c-4.591,4.421-7.678,10.643-7.438,17.527c0.736,21.169,5.607,24.182,5.228,43.206c-0.45,22.596-4.26,33.763-5.354,46.272
	c-1.175,13.424,11.055,24.402,24.53,24.402c13.477,0,24.402-10.928,24.402-24.402l0.058-89.479l0,0
	C2395.867,281.821,2392.63,275.296,2387.576,270.83z M2371.408,380.881c-1.271,0-2.305-1.028-2.305-2.304
	c0-1.272,1.032-2.315,2.305-2.315c1.274,0,2.307,1.04,2.307,2.315C2373.714,379.854,2372.683,380.881,2371.408,380.881z
	 M2371.408,291.403c-1.271,0-2.305-1.03-2.305-2.304c0-1.275,1.032-2.316,2.305-2.316c1.274,0,2.307,1.04,2.307,2.316
	C2373.714,290.373,2372.683,291.403,2371.408,291.403z"/>
<path fill="none" stroke="#010101" stroke-width="0.5" stroke-miterlimit="10" d="M2675.363,238.821l-0.13,1.989l-4.076,63.88
	c-1.651,11.104,6.012,21.456,17.124,23.105c11.112,1.652,21.456-6.021,23.106-17.125c0.241-1.628,0.281-3.248,0.139-4.813
	l-0.898-4.402l-10.041-49.466c-0.39-1.073-0.62-2.214-0.686-3.383c0.002-0.009,0.002-0.019-0.006-0.028
	c-0.045-0.81-0.004-1.636,0.12-2.467c0.257-1.725,0.857-3.318,1.74-4.693c0.357-0.576,0.759-1.112,1.216-1.612l18.021-23.872
	l14.144-18.721l0,0c1.299-1.617,1.901-3.831,2.229-6.04c0.992-6.669-3.612-12.872-10.274-13.861
	c-5.141-0.766-10.271,1.631-12.681,5.889l0,0l-13.171,17.917l-23.618,32.125l0.06,0.037
	C2676.494,234.858,2675.676,236.736,2675.363,238.821z M2723.402,192.262c-1.788-1.363-2.139-3.921-0.779-5.699
	c1.363-1.789,3.912-2.142,5.701-0.78c1.789,1.363,2.143,3.908,0.779,5.699C2727.74,193.271,2725.186,193.611,2723.402,192.262z
	 M2707.861,205.986c1.364-1.79,3.919-2.142,5.706-0.777c1.78,1.36,2.131,3.907,0.771,5.697s-3.905,2.133-5.696,0.78
	C2706.853,210.322,2706.508,207.77,2707.861,205.986z M2688.99,307.344c0.188-1.261,1.362-2.139,2.621-1.949
	c1.262,0.188,2.126,1.368,1.939,2.627c-0.188,1.261-1.357,2.128-2.618,1.94C2689.672,309.773,2688.805,308.604,2688.99,307.344z"/>
<path fill="none" stroke="#010101" stroke-width="0.5" stroke-miterlimit="10" d="M2724.193,419.392l-4.652-56.95l0,0
	c-0.913-12.332-11.367-22.192-24-22.536c-13.473-0.365-24.692,10.258-25.059,23.732c-0.127,4.624,0.946,9.058,3.087,12.804l0,0
	c0,0,19.389,38.786,19.867,40.138c0.505,1.377,0.752,2.876,0.71,4.439c-0.053,1.897-0.535,3.674-1.344,5.254l-0.039,0.07
	c-0.256,0.489-24.247,48.315-24.247,48.315l-0.198,0.328c-1.061,1.744-1.684,3.779-1.746,5.965
	c-0.123,4.527,2.239,8.553,5.852,10.75c0.957,0.597,2.012,1.049,3.135,1.359l24.483,10.799l-0.233,0.547l0.233-0.547
	c0.993,0.453,2.096,0.717,3.255,0.748c4.645,0.129,8.514-3.539,8.639-8.185c0.092-3.323-1.754-6.25-4.5-7.688
	c0,0-13.764-4.279-14.502-13.396c-0.059-0.711,0.055-1.422,0.31-2.061c2.607-6.508,29.395-45.215,29.395-45.215l0.467-0.836
	c0.791-1.553,1.258-3.303,1.306-5.165L2724.193,419.392z M2694.814,366.606c-1.275-0.035-2.277-1.093-2.242-2.368
	c0.035-1.273,1.095-2.284,2.367-2.251c1.272,0.035,2.276,1.103,2.241,2.377C2697.145,365.64,2696.088,366.64,2694.814,366.606z"/>
<path fill="none" stroke="#010101" stroke-width="0.5" stroke-miterlimit="10" d="M2602.322,422.064
	c0.048,1.862,0.515,3.612,1.305,5.165l0.467,0.836c0,0,26.786,38.707,29.395,45.215c0.254,0.639,0.367,1.35,0.309,2.062
	c-0.738,9.114-14.501,13.395-14.501,13.395c-2.745,1.439-4.592,4.365-4.5,7.689c0.125,4.645,3.995,8.312,8.64,8.184
	c1.158-0.031,2.261-0.295,3.254-0.748l0.232,0.547l-0.232-0.547l24.482-10.799c1.123-0.312,2.178-0.764,3.136-1.359
	c3.611-2.196,5.973-6.223,5.851-10.75c-0.062-2.186-0.685-4.221-1.746-5.965l-0.198-0.328c0,0-23.99-47.826-24.247-48.315
	l-0.038-0.07c-0.81-1.58-1.292-3.355-1.344-5.254c-0.042-1.563,0.205-3.062,0.709-4.439c0.479-1.352,19.867-40.138,19.867-40.138
	l0,0c2.142-3.746,3.215-8.18,3.087-12.804c-0.366-13.475-11.586-24.098-25.06-23.732c-12.633,0.344-23.086,10.204-24,22.536l0,0
	l-4.651,56.95L2602.322,422.064z M2629.551,364.364c-0.035-1.273,0.968-2.342,2.242-2.377c1.272-0.033,2.332,0.978,2.367,2.251
	c0.035,1.275-0.967,2.333-2.242,2.368C2630.645,366.64,2629.587,365.64,2629.551,364.364z"/>
<path fill="none" stroke="#010101" stroke-width="0.5" stroke-miterlimit="10" d="M2778.217,313.494L2778.217,313.494
	c-2.457-2.231-3.903-5.558-3.903-9.137c0-4.212,2.024-8.062,5.27-10.259l0,0c9.021-5.784,15.005-15.901,15.005-27.414
	c0-17.98-14.568-32.54-32.539-32.54c-17.969,0-32.539,14.56-32.539,32.54c0,11.75,6.237,22.051,15.584,27.766v0.009l0,0
	c2.982,2.225,4.637,6.201,4.637,10.205c0,3.309-1.309,6.3-3.444,8.489c-0.37,0.388-0.775,0.749-1.202,1.083
	c-4.591,4.421-7.678,10.643-7.438,17.527c0.736,21.169,5.607,24.182,5.228,43.206c-0.45,22.594-4.26,33.761-5.354,46.271
	c-1.175,13.426,11.055,24.404,24.53,24.404c13.477,0,24.402-10.928,24.402-24.404l0.058-89.477l0,0
	C2786.508,324.485,2783.271,317.96,2778.217,313.494z M2762.049,423.544c-1.271,0-2.305-1.028-2.305-2.305
	c0-1.272,1.032-2.315,2.305-2.315c1.274,0,2.307,1.04,2.307,2.315C2764.354,422.517,2763.323,423.544,2762.049,423.544z
	 M2762.049,334.067c-1.271,0-2.305-1.03-2.305-2.304c0-1.275,1.032-2.316,2.305-2.316c1.274,0,2.307,1.04,2.307,2.316
	C2764.354,333.037,2763.323,334.067,2762.049,334.067z"/>
<path fill="#E6E6E6" stroke="#010101" stroke-width="0.5" stroke-miterlimit="10" d="M2444.934,269.448l0.06,0.038l18.651-35.241
	l10.403-19.652l0,0c2.784-4.022,2.711-9.684-0.215-13.979c-3.789-5.567-11.377-7.017-16.949-3.222
	c-1.847,1.254-3.578,2.76-4.47,4.635l0,0l-10.704,20.878l-13.655,26.61c-0.251,0.63-0.56,1.225-0.923,1.797
	c-0.854,1.393-2.026,2.627-3.469,3.609c-0.693,0.474-1.42,0.869-2.168,1.182c-0.012-0.004-0.021,0.002-0.028,0.007
	c-1.08,0.45-2.208,0.738-3.344,0.855l-48.908,12.478l-4.354,1.105c-1.473,0.552-2.914,1.293-4.273,2.22
	c-9.281,6.315-11.689,18.967-5.369,28.254c6.32,9.288,18.977,11.685,28.254,5.368l55.746-31.461l1.734-0.981
	C2442.694,272.757,2444.028,271.202,2444.934,269.448z M2460.198,204.963c1.021-2.007,3.465-2.796,5.472-1.778
	c2.005,1.02,2.796,3.468,1.777,5.474c-1.01,1.997-3.466,2.794-5.471,1.776C2459.985,209.415,2459.182,206.97,2460.198,204.963z
	 M2450.909,232.176c-1.998-1.023-2.795-3.464-1.776-5.468c1.021-2.004,3.465-2.796,5.465-1.784c2.005,1.015,2.801,3.469,1.782,5.476
	C2455.364,232.394,2452.915,233.194,2450.909,232.176z M2370.122,290.875c-0.717-1.054-0.445-2.485,0.608-3.202
	c1.053-0.718,2.491-0.451,3.208,0.603c0.718,1.052,0.439,2.49-0.614,3.209C2372.272,292.2,2370.841,291.927,2370.122,290.875z"/>
<path fill="#E6E6E6" stroke="#010101" stroke-width="0.5" stroke-miterlimit="10" d="M2400.113,434.081l-4.652-56.95l0,0
	c-0.913-12.332-11.367-22.192-24-22.536c-13.473-0.365-24.692,10.258-25.059,23.732c-0.127,4.623,0.946,9.056,3.087,12.802l0,0
	c0,0,19.389,38.788,19.867,40.14c0.505,1.377,0.752,2.876,0.71,4.439c-0.053,1.897-0.535,3.674-1.344,5.254l-0.039,0.07
	c-0.256,0.489-24.247,48.315-24.247,48.315l-0.198,0.328c-1.061,1.744-1.684,3.779-1.746,5.965
	c-0.123,4.527,2.239,8.553,5.852,10.75c0.957,0.597,2.012,1.049,3.135,1.359l24.483,10.799l-0.233,0.547l0.233-0.547
	c0.993,0.453,2.096,0.717,3.255,0.748c4.645,0.129,8.514-3.539,8.639-8.185c0.092-3.323-1.754-6.25-4.5-7.688
	c0,0-13.764-4.279-14.502-13.396c-0.059-0.711,0.055-1.422,0.31-2.061c2.607-6.508,29.395-45.215,29.395-45.215l0.467-0.836
	c0.791-1.553,1.258-3.303,1.306-5.165L2400.113,434.081z M2370.734,381.295c-1.275-0.035-2.277-1.093-2.242-2.368
	c0.035-1.273,1.095-2.284,2.367-2.251c1.272,0.035,2.276,1.103,2.241,2.376C2373.064,380.329,2372.008,381.329,2370.734,381.295z"/>
</svg>
