<?xml version="1.0" encoding="utf-8"?>
<!-- Generator: Adobe Illustrator 16.0.0, SVG Export Plug-In . SVG Version: 6.00 Build 0)  -->
<!DOCTYPE svg PUBLIC "-//W3C//DTD SVG 1.1//EN" "http://www.w3.org/Graphics/SVG/1.1/DTD/svg11.dtd">
<svg version="1.1" id="Layer_1" xmlns="http://www.w3.org/2000/svg" xmlns:xlink="http://www.w3.org/1999/xlink" x="0px" y="0px"
	 width="648px" height="432px" viewBox="0 0 648 432" enable-background="new 0 0 648 432" xml:space="preserve">
<path fill="#E6E6E6" stroke="#010101" stroke-width="0.5" stroke-miterlimit="10" d="M156.133,121.722
	c2.031-1.496,0.24-3.002,0.621-4.857c0.43-2.107,2.677-2.749,2.156-5.309c-0.174-0.848-0.706-1.006-0.37-1.809
	c0.437-1.041,1.377-1.311,1.389-2.507c0.005-0.481-0.366-1.392-0.43-1.94c-0.058-0.512-0.061-1.025-0.201-1.523
	c-0.527-1.848,5.014-2.375,3.959-5.014c-1.007-2.52-2.834-4.938-4.438-7.105c-1.894-2.561-2.038-5.465-2.03-8.613
	c0.004-2.269,0.132-5.203-1.052-7.24c-9.041-15.57-30.875-16.625-47.104-6.729c-16.229,9.895-15.438,38.395-2.374,49.874
	c13.062,11.478,6.334,18.604-0.791,30.874s-4.354,27.707,0,50.87c4.353,23.162-2.772,25.126-4.752,36.21
	c-1.979,11.082,6.333,30.082,30.875,30.873s22.958-35.228,24.146-42.353s7.521-28.5,7.521-48.292
	c0-19.789-20.025-37.507-19.79-42.748C143.796,126.943,152.525,124.373,156.133,121.722z M126.359,248.986
	c-1.282,0-2.321-1.041-2.321-2.322c0-1.283,1.039-2.322,2.321-2.322s2.321,1.039,2.321,2.322
	C128.682,247.945,127.643,248.986,126.359,248.986z M129.921,156.066c-1.283,0-2.323-1.04-2.323-2.323s1.04-2.323,2.323-2.323
	s2.323,1.04,2.323,2.323S131.204,156.066,129.921,156.066z"/>
<path fill="#E6E6E6" stroke="#010101" stroke-width="0.5" stroke-miterlimit="10" d="M158.751,318.936
	c1.002-3.776,2.289-7.239,3.448-10.93c2.949-9.36,3.354-17.629,2.195-27.378c-0.798-6.729-2.149-13.537-3.994-20.057
	c-3.062-10.826-7.986-22.561-17.008-29.786c-7.546-6.046-19.802-6.953-27.12,0.19c-2.527,2.466-4.636,6.281-5.425,9.702
	c-1.523,6.618,1.041,13.707,3.373,19.828c3.266,8.577,6.985,16.664,12.421,24.101c2.254,3.083,5.057,6.061,6.393,9.697
	c0.353,0.954,0.591,1.945,0.678,2.981c0.433,5.023-2.713,9.622-3.78,14.386c-0.717,3.197-1.108,6.499-0.825,9.776
	c0.391,4.566,1.417,9.07,1.657,13.653c0.457,8.671-0.975,17.929-4.83,25.754c-1.801,3.653-3.671,7.051-0.968,10.834
	c1.169,1.642,3.021,2.903,4.994,3.352c0.069,0.016,15.575,3.545,29.505,6.311c4.329,0.858,10.885,2.392,14.059-1.711
	c3.101-4.01-0.992-9.18-3.792-11.979c-3.345-3.344-7.835-5.339-12.471-6.07c-3.855-0.607-6.052-2.321-6.781-6.316
	c-0.855-4.671,0.429-9.63,1.76-14.11C154.448,333.718,156.754,326.469,158.751,318.936z M130.713,246.988
	c-1.263,0.218-2.465-0.629-2.683-1.895c-0.22-1.262,0.629-2.465,1.893-2.683c1.265-0.219,2.466,0.63,2.685,1.892
	C132.825,245.569,131.979,246.77,130.713,246.988z"/>
<path fill="#E6E6E6" stroke="#010101" stroke-width="0.5" stroke-miterlimit="10" d="M195.241,145.41
	c2.909-4.603,4.526-9.715,6.459-14.759c1.644-4.28,3.284-8.612,5.833-12.451c2.719-4.1,6.236-7.661,9.426-11.389
	c3.082-3.605,5.979-7.221,9.379-10.547c2.962-2.899,6.027-5.711,8.607-8.967c2.578-3.256,5.289-7.475,4.522-11.837
	c-2.262-12.925-21.018-11.875-28.858-5.489c-2.963,2.416-6.209,6.156-7.811,9.654c-2.002,4.367-2.138,8.506-2.751,13.066
	c-0.803,5.961-4.567,7.354-8.59,10.789c-1.606,1.373-4.05,2.904-5.283,4.549c-1.797,2.396-3.299,5.102-4.384,7.893
	c-0.995,2.57-1.034,5.189-2.732,7.502c-2.846,3.87-7.289,4.578-11.439,6.072c-4.998,1.799-10.393,2.074-15.655,2.186
	c-4.157,0.09-8.128,0.112-12.286-0.117c-1.957-0.106-3.983-0.372-5.92-0.245c-0.881,0.058-1.764,0.169-2.644,0.327
	c-7.098,1.297-13.796,5.886-16.048,12.879c-1.936,6.017-0.534,12.301,2.883,17.464c6.025,9.103,16.987,7.992,26.367,7.381
	c3.067-0.199,5.655-0.838,8.602-1.747c6.432-1.982,12.762-3.65,18.729-6.787C179.586,156.668,190.277,153.265,195.241,145.41z
	 M221.848,79.25c-1.233-1.896-0.697-4.434,1.197-5.668c1.895-1.234,4.434-0.7,5.668,1.195c1.234,1.896,0.699,4.434-1.197,5.668
	C225.621,81.681,223.082,81.146,221.848,79.25z M127.932,153.896c-0.701-1.076-0.396-2.514,0.678-3.215
	c1.074-0.699,2.513-0.396,3.214,0.68c0.698,1.074,0.396,2.512-0.681,3.213C130.068,155.272,128.631,154.97,127.932,153.896z
	 M201.802,105.624c-1.237-1.898-0.698-4.436,1.196-5.669s4.432-0.703,5.67,1.196c1.234,1.896,0.695,4.435-1.197,5.668
	C205.574,108.056,203.036,107.521,201.802,105.624z"/>
<path fill="none" stroke="#010101" stroke-width="0.5" stroke-miterlimit="10" d="M544.289,143.392
	c2.031-1.498,0.24-3.002,0.621-4.858c0.43-2.106,2.677-2.749,2.156-5.31c-0.174-0.847-0.706-1.006-0.37-1.808
	c0.437-1.041,1.377-1.312,1.389-2.507c0.005-0.48-0.367-1.393-0.43-1.941c-0.058-0.511-0.061-1.024-0.201-1.522
	c-0.527-1.847,5.014-2.375,3.959-5.015c-1.007-2.519-2.834-4.938-4.438-7.104c-1.894-2.562-2.039-5.465-2.03-8.613
	c0.004-2.269,0.132-5.204-1.052-7.239c-9.041-15.571-30.875-16.625-47.104-6.729s-15.438,38.394-2.374,49.874
	c13.062,11.479,6.334,18.604-0.791,30.874c-7.125,12.27-4.354,27.707,0,50.87c4.353,23.162-2.772,25.126-4.752,36.21
	c-1.979,11.082,6.333,30.082,30.875,30.873s22.958-35.228,24.146-42.353s7.521-28.5,7.521-48.292
	c0-19.789-20.024-37.507-19.79-42.747C531.952,148.612,540.682,146.042,544.289,143.392z M514.516,270.655
	c-1.281,0-2.32-1.041-2.32-2.322c0-1.283,1.039-2.322,2.32-2.322c1.283,0,2.322,1.039,2.322,2.322
	C516.838,269.614,515.799,270.655,514.516,270.655z M518.077,177.735c-1.283,0-2.323-1.04-2.323-2.323s1.04-2.323,2.323-2.323
	c1.282,0,2.323,1.04,2.323,2.323S519.359,177.735,518.077,177.735z"/>
<path fill="none" stroke="#010101" stroke-width="0.5" stroke-miterlimit="10" d="M397.51,344.118
	c-5.132-7.055-8.117-15.934-9.145-24.557c-0.543-4.558-0.299-9.168-0.689-13.736c-0.279-3.277-1.229-6.463-2.479-9.492
	c-1.863-4.512-5.744-8.508-6.176-13.531c-0.09-1.037-0.022-2.055,0.16-3.055c0.697-3.811,2.952-7.223,4.648-10.645
	c4.09-8.252,6.379-16.854,8.137-25.861c1.255-6.43,2.577-13.852-0.052-20.113c-1.358-3.235-4.087-6.64-6.997-8.64
	c-8.427-5.793-20.352-2.812-26.758,4.431c-7.657,8.656-10.516,21.058-11.688,32.246c-0.707,6.738-0.881,13.676-0.521,20.443
	c0.518,9.805,2.323,17.883,6.823,26.604c1.771,3.438,3.629,6.631,5.26,10.183c3.25,7.084,6.757,13.834,10.201,20.795
	c2.074,4.188,4.185,8.854,4.138,13.604c-0.041,4.062-1.912,6.125-5.608,7.381c-4.443,1.511-8.529,4.24-11.255,8.104
	c-2.282,3.236-5.435,9.029-1.696,12.451c3.824,3.502,10.023,0.877,14.143-0.707c13.256-5.097,27.935-11.213,28.001-11.24
	c1.868-0.777,3.479-2.336,4.352-4.152C402.326,350.44,399.906,347.413,397.51,344.118z M373.415,232.727
	c-1.282,0-2.322-1.04-2.322-2.322s1.04-2.322,2.322-2.322s2.321,1.04,2.321,2.322S374.697,232.727,373.415,232.727z"/>
<path fill="none" stroke="#010101" stroke-width="0.5" stroke-miterlimit="10" d="M378.128,50.629
	c-4.073,1.741-6.128,6.314-7.448,10.251c-1.32,3.939-2.003,8.042-2.814,12.107c-0.932,4.665-2.379,9.064-3.719,13.615
	c-1.383,4.705-2.446,9.599-4.396,14.113c-1.826,4.231-4.561,7.971-7.249,11.684c-3.172,4.371-6.573,8.518-8.841,13.468
	c-3.872,8.446-0.889,19.262-0.049,28.188c0.631,6.713,2.688,12.928,4.535,19.398c0.847,2.965,1.726,5.481,3.231,8.16
	c4.607,8.191,9.66,17.984,20.576,18.064c6.19,0.046,12.222-2.212,16.206-7.116c4.631-5.703,4.818-13.821,2.031-20.476
	c-0.346-0.824-0.735-1.625-1.167-2.395c-0.951-1.691-2.279-3.245-3.438-4.827c-2.462-3.356-4.609-6.697-6.805-10.229
	c-2.779-4.471-5.492-9.141-6.714-14.311c-1.015-4.293-2.847-8.402-1.156-12.898c1.011-2.686,3.185-4.148,4.794-6.386
	c1.748-2.433,3.193-5.167,4.221-7.981c0.705-1.932,0.654-4.813,0.928-6.91c0.685-5.244-0.203-9.159,4.353-13.086
	c3.487-3.002,6.881-5.375,9.447-9.438c2.057-3.251,3.42-8.011,3.825-11.813C399.55,61.758,390.191,45.469,378.128,50.629z
	 M373.29,182.253c1.282,0,2.321,1.039,2.321,2.322c0,1.282-1.038,2.321-2.321,2.321c-1.282,0-2.321-1.039-2.321-2.321
	C370.969,183.292,372.008,182.253,373.29,182.253z M373.415,98.654c-2.263,0-4.097-1.835-4.097-4.097
	c0-2.26,1.834-4.098,4.097-4.098c2.267,0,4.097,1.836,4.097,4.098S375.682,98.655,373.415,98.654z M384.572,67.461
	c-2.262,0-4.096-1.834-4.096-4.096c0-2.262,1.834-4.096,4.096-4.096c2.263,0,4.096,1.834,4.096,4.096
	C388.668,65.627,386.835,67.461,384.572,67.461z"/>
<path fill="none" stroke="#010101" stroke-width="0.5" stroke-miterlimit="10" d="M447.054,308.396
	c1.632-3.552,3.487-6.744,5.259-10.183c4.5-8.723,6.308-16.801,6.824-26.604c0.358-6.769,0.186-13.705-0.521-20.443
	c-1.174-11.188-4.03-23.589-11.688-32.246c-6.407-7.242-18.331-10.224-26.758-4.431c-2.91,2-5.64,5.403-6.997,8.64
	c-2.629,6.262-1.307,13.685-0.052,20.113c1.758,9.007,4.047,17.609,8.137,25.861c1.696,3.422,3.951,6.834,4.647,10.645
	c0.185,1,0.25,2.018,0.16,3.055c-0.431,5.023-4.312,9.021-6.175,13.531c-1.25,3.029-2.198,6.215-2.479,9.492
	c-0.392,4.568-0.146,9.18-0.689,13.736c-1.026,8.623-4.013,17.502-9.145,24.557c-2.396,3.295-4.816,6.322-2.798,10.512
	c0.873,1.816,2.481,3.375,4.352,4.152c0.066,0.027,14.745,6.145,28.001,11.24c4.118,1.584,10.317,4.209,14.142,0.707
	c3.738-3.422,0.586-9.216-1.695-12.451c-2.727-3.863-6.812-6.594-11.256-8.104c-3.695-1.256-5.566-3.317-5.607-7.381
	c-0.047-4.748,2.062-9.414,4.137-13.604C440.297,322.229,443.804,315.479,447.054,308.396z M431.673,232.727
	c-1.282,0-2.321-1.04-2.321-2.322s1.039-2.322,2.321-2.322s2.322,1.04,2.322,2.322S432.955,232.727,431.673,232.727z"/>
<path fill="none" stroke="#010101" stroke-width="0.5" stroke-miterlimit="10" d="M461.429,125.867
	c-2.268-4.95-5.669-9.097-8.841-13.468c-2.689-3.713-5.423-7.452-7.249-11.684c-1.95-4.515-3.015-9.408-4.397-14.113
	c-1.338-4.551-2.786-8.95-3.717-13.615c-0.812-4.065-1.494-8.168-2.815-12.107c-1.32-3.937-3.375-8.51-7.448-10.251
	c-12.064-5.16-21.422,11.129-20.352,21.185c0.406,3.802,1.77,8.562,3.826,11.813c2.565,4.062,5.959,6.435,9.446,9.438
	c4.556,3.926,3.668,7.841,4.353,13.085c0.272,2.097,0.223,4.979,0.928,6.911c1.027,2.813,2.473,5.548,4.221,7.98
	c1.61,2.237,3.783,3.7,4.794,6.385c1.689,4.496-0.143,8.606-1.155,12.899c-1.223,5.17-3.936,9.84-6.715,14.312
	c-2.194,3.531-4.343,6.871-6.805,10.229c-1.158,1.582-2.486,3.136-3.438,4.827c-0.433,0.77-0.821,1.569-1.168,2.395
	c-2.787,6.653-2.6,14.771,2.031,20.476c3.984,4.904,10.016,7.162,16.206,7.116c10.916-0.08,15.97-9.872,20.576-18.064
	c1.507-2.679,2.386-5.195,3.231-8.16c1.848-6.472,3.904-12.687,4.535-19.397C462.316,145.129,465.301,134.313,461.429,125.867z
	 M420.516,67.461c-2.263,0-4.096-1.834-4.096-4.096c0-2.262,1.833-4.096,4.096-4.096c2.262,0,4.096,1.834,4.096,4.096
	C424.611,65.627,422.777,67.461,420.516,67.461z M431.798,186.897c-1.282,0-2.321-1.039-2.321-2.321
	c0-1.283,1.038-2.322,2.321-2.322c1.282,0,2.321,1.039,2.321,2.322C434.119,185.858,433.08,186.897,431.798,186.897z
	 M431.673,98.654c-2.267,0.001-4.097-1.835-4.097-4.097s1.83-4.098,4.097-4.098c2.263,0,4.097,1.838,4.097,4.098
	C435.77,96.819,433.936,98.654,431.673,98.654z"/>
</svg>
