<?xml version="1.0" encoding="utf-8"?>
<!-- Generator: Adobe Illustrator 16.0.0, SVG Export Plug-In . SVG Version: 6.00 Build 0)  -->
<!DOCTYPE svg PUBLIC "-//W3C//DTD SVG 1.1//EN" "http://www.w3.org/Graphics/SVG/1.1/DTD/svg11.dtd">
<svg version="1.1" id="Layer_1" xmlns="http://www.w3.org/2000/svg" xmlns:xlink="http://www.w3.org/1999/xlink" x="0px" y="0px"
	 width="1147px" height="612px" viewBox="0 0 1147 612" enable-background="new 0 0 1147 612" xml:space="preserve">
<rect x="57.021" y="188.679" fill="#E6E6E5" stroke="#020202" stroke-width="0.5" stroke-miterlimit="10" width="54" height="18"/>
<rect x="57.021" y="210.714" fill="#E6E6E5" stroke="#020202" stroke-width="0.5" stroke-miterlimit="10" width="54" height="18"/>
<path fill="#E6E6E5" stroke="#020202" stroke-width="0.5" stroke-miterlimit="10" d="M456.812,185.729h-0.002h-8.346H280.409
	c-1.984,0-3.6,1.608-3.6,3.601v32.399c0,4.972,4.084,8.274,9,9c18.492,2.719,56.191,9,94.5,9s71.75-3.621,89.65-9h13.85v-45H456.812
	z M404.7,216.758h-53.277v-8.062H404.7V216.758z"/>
<path fill="#E6E6E5" stroke="#020202" stroke-width="0.5" stroke-miterlimit="10" d="M693.21,185.729H525.157h-8.348h-27v45h13.851
	c17.899,5.379,51.343,9,89.649,9c38.308,0,76.008-6.281,94.5-9c4.918-0.725,9-4.027,9-9v-32.398
	C696.81,187.338,695.199,185.729,693.21,185.729z M622.198,216.758H568.92v-8.062h53.278V216.758z"/>
<path fill="#E6E6E5" stroke="#020202" stroke-width="0.5" stroke-miterlimit="10" d="M145.482,204.666v8.064h-17.973v0.145V223.1
	c0,1.986,1.61,3.602,3.6,3.602h136.8c1.988,0,3.602-1.611,3.602-3.602v-10.227v-0.145h-17.975v-8.064h17.975v-0.143v-10.229
	c0-1.984-1.611-3.601-3.602-3.601h-136.8c-1.988,0-3.6,1.611-3.6,3.601v10.229v0.143L145.482,204.666L145.482,204.666z"/>
<g>
	<path fill="#E6E6E5" stroke="#020202" stroke-width="0.5" stroke-miterlimit="10" d="M693.21,52.345H603.6
		c-0.32,0.04-0.62,0.13-0.89,0.27c-0.96,0.47-1.61,1.45-1.61,2.58c0,0.22,0.02,0.43,0.07,0.63c0.06,0.27,0.17,0.55,0.31,0.79
		l1.08,1.08l8.01,8l-0.02,0.02c0.12,0.13,0.2,0.3,0.2,0.49c0,0.38-0.311,0.68-0.69,0.68c-0.19,0-0.36-0.08-0.48-0.2l-0.029,0.03
		l-14.38-14.37H574.5c-0.32,0.04-0.62,0.13-0.891,0.27c-0.96,0.47-1.609,1.45-1.609,2.58c0,0.22,0.02,0.43,0.069,0.63
		c0.061,0.27,0.17,0.55,0.311,0.79l1.08,1.08l8.01,8l-0.021,0.02c0.12,0.13,0.2,0.3,0.2,0.49c0,0.38-0.31,0.68-0.689,0.68
		c-0.19,0-0.36-0.08-0.48-0.2l-0.03,0.03l-14.38-14.37h-20.67c-0.32,0.04-0.62,0.13-0.89,0.27c-0.96,0.47-1.61,1.45-1.61,2.58
		c0,0.22,0.021,0.43,0.07,0.63c0.06,0.27,0.17,0.55,0.31,0.79l1.08,1.08l8.01,8l-0.02,0.02c0.12,0.13,0.2,0.3,0.2,0.49
		c0,0.38-0.311,0.68-0.69,0.68c-0.189,0-0.359-0.08-0.479-0.2l-0.03,0.03l-14.38-14.37H516.3c-0.32,0.04-0.62,0.13-0.891,0.27
		c-0.96,0.47-1.609,1.45-1.609,2.58c0,0.22,0.02,0.43,0.069,0.63c0.061,0.27,0.171,0.55,0.311,0.79l1.08,1.08l8.01,8l-0.02,0.02
		c0.119,0.13,0.199,0.3,0.199,0.49c0,0.38-0.31,0.68-0.689,0.68c-0.19,0-0.36-0.08-0.48-0.2l-0.029,0.03l-14.381-14.37H223.96
		c-17.9-5.38-51.34-9-89.65-9s-76.01,6.28-94.5,9c-4.92,0.73-9,4.03-9,9v32.4c0,1.99,1.61,3.6,3.6,3.6h204.5v-9.04h8.07v9.04h27.189
		v-9.04h8.061v9.04h410.98c1.989,0,3.6-1.61,3.6-3.6v-37.8C696.81,53.955,695.199,52.345,693.21,52.345z M158.7,74.375h-53.28v-8.06
		h53.28V74.375z M645.06,79.345c-2.49,0-4.5-2.01-4.5-4.5c0-2.49,2.01-4.5,4.5-4.5s4.5,2.01,4.5,4.5
		C649.56,77.334,647.55,79.345,645.06,79.345z M681.06,79.345c-2.49,0-4.5-2.01-4.5-4.5c0-2.49,2.01-4.5,4.5-4.5s4.5,2.01,4.5,4.5
		C685.56,77.334,683.55,79.345,681.06,79.345z"/>
</g>
<g>
	<path fill="#E6E6E5" stroke="#020202" stroke-width="0.5" stroke-miterlimit="10" d="M696.81,157.992v-37.8
		c0-1.99-1.61-3.6-3.6-3.6h-410.98v9.04h-8.061v-9.04h-27.189v9.04h-8.07v-9.04H34.41c-1.99,0-3.6,1.61-3.6,3.6v32.4
		c0,4.97,4.08,8.27,9,9c18.49,2.72,56.19,9,94.5,9s71.75-3.62,89.65-9h283.909l14.381-14.37l0.029,0.03c0.12-0.12,0.29-0.2,0.48-0.2
		c0.38,0,0.689,0.3,0.689,0.68c0,0.19-0.08,0.36-0.199,0.49l0.02,0.02l-8.01,8l-1.08,1.08c-0.14,0.24-0.25,0.52-0.311,0.79
		c-0.05,0.2-0.069,0.41-0.069,0.63c0,1.13,0.649,2.11,1.609,2.58c0.271,0.14,0.57,0.23,0.891,0.27h20.67l14.38-14.37l0.03,0.03
		c0.12-0.12,0.29-0.2,0.479-0.2c0.38,0,0.69,0.3,0.69,0.68c0,0.19-0.08,0.36-0.2,0.49l0.02,0.02l-8.01,8l-1.08,1.08
		c-0.14,0.24-0.25,0.52-0.31,0.79c-0.05,0.2-0.07,0.41-0.07,0.63c0,1.13,0.65,2.11,1.61,2.58c0.27,0.14,0.569,0.23,0.89,0.27h20.67
		l14.38-14.37l0.03,0.03c0.12-0.12,0.29-0.2,0.48-0.2c0.38,0,0.689,0.3,0.689,0.68c0,0.19-0.08,0.36-0.2,0.49l0.021,0.02l-8.01,8
		l-1.08,1.08c-0.141,0.24-0.25,0.52-0.311,0.79c-0.05,0.2-0.069,0.41-0.069,0.63c0,1.13,0.649,2.11,1.609,2.58
		c0.271,0.14,0.57,0.23,0.891,0.27h20.67l14.38-14.37l0.029,0.03c0.12-0.12,0.29-0.2,0.48-0.2c0.38,0,0.69,0.3,0.69,0.68
		c0,0.19-0.08,0.36-0.2,0.49l0.02,0.02l-8.01,8l-1.08,1.08c-0.14,0.24-0.25,0.52-0.31,0.79c-0.051,0.2-0.07,0.41-0.07,0.63
		c0,1.13,0.65,2.11,1.61,2.58c0.27,0.14,0.569,0.23,0.89,0.27h89.61C695.199,161.592,696.81,159.982,696.81,157.992z M158.7,147.623
		h-53.28v-8.06h53.28V147.623z M649.56,139.092c0,2.49-2.01,4.5-4.5,4.5s-4.5-2.01-4.5-4.5c0-2.49,2.01-4.5,4.5-4.5
		S649.56,136.603,649.56,139.092z M685.56,139.092c0,2.49-2.01,4.5-4.5,4.5s-4.5-2.01-4.5-4.5c0-2.49,2.01-4.5,4.5-4.5
		S685.56,136.603,685.56,139.092z"/>
</g>
<path fill="#E6E6E5" stroke="#020202" stroke-width="0.5" stroke-miterlimit="10" d="M302.141,417.237l0.036,0.061l32.125-23.618
	l17.916-13.169l0,0c4.257-2.411,6.654-7.541,5.889-12.681c-0.989-6.662-7.191-11.269-13.86-10.275
	c-2.208,0.326-4.423,0.931-6.04,2.229l0,0l-18.722,14.143l-23.871,18.021c-0.5,0.458-1.036,0.857-1.612,1.217
	c-1.375,0.882-2.968,1.482-4.692,1.74c-0.832,0.125-1.658,0.165-2.468,0.121c-0.009-0.01-0.021-0.008-0.028-0.006
	c-1.168-0.064-2.31-0.297-3.383-0.686l-49.466-10.042l-4.401-0.897c-1.566-0.145-3.187-0.104-4.813,0.14
	c-11.104,1.648-18.776,11.993-17.125,23.104c1.65,11.112,12.003,18.775,23.104,17.124l63.881-4.075l1.988-0.131
	C298.684,419.241,300.562,418.423,302.141,417.237z M343.938,365.813c1.791-1.363,4.336-1.011,5.699,0.779
	c1.362,1.789,1.009,4.338-0.78,5.701c-1.777,1.357-4.336,1.009-5.699-0.78C341.809,369.73,342.148,367.178,343.938,365.813z
	 M323.732,386.275c-1.353-1.791-1.009-4.335,0.78-5.696c1.79-1.359,4.336-1.01,5.697,0.771c1.363,1.787,1.013,4.342-0.777,5.706
	C327.649,388.409,325.098,388.064,323.732,386.275z M225.457,403.984c-0.188-1.26,0.68-2.432,1.939-2.618
	c1.261-0.188,2.439,0.678,2.627,1.938c0.188,1.259-0.688,2.433-1.948,2.621C226.816,406.112,225.646,405.245,225.457,403.984z"/>
<path fill="#E6E6E5" stroke="#020202" stroke-width="0.5" stroke-miterlimit="10" d="M296.6,445.804l-1.99-0.13l-63.879-4.076
	c-11.104-1.651-21.457,6.012-23.105,17.124c-1.652,11.112,6.021,21.456,17.125,23.105c1.628,0.241,3.248,0.281,4.812,0.14
	l4.402-0.898l49.466-10.041c1.073-0.39,2.214-0.62,3.384-0.686c0.008,0.002,0.019,0.002,0.027-0.007
	c0.811-0.045,1.637-0.004,2.467,0.121c1.725,0.257,3.318,0.856,4.693,1.739c0.576,0.357,1.111,0.759,1.611,1.216l23.872,18.021
	l18.722,14.145l0,0c1.616,1.299,3.831,1.9,6.04,2.229c6.669,0.992,12.871-3.612,13.86-10.273c0.767-5.142-1.631-10.271-5.889-12.682
	l0,0l-17.917-13.171l-32.125-23.618l-0.037,0.061C300.562,446.935,298.684,446.116,296.6,445.804z M343.157,493.843
	c1.363-1.788,3.922-2.139,5.699-0.779c1.789,1.363,2.143,3.912,0.78,5.701c-1.363,1.789-3.908,2.143-5.699,0.779
	C342.148,498.181,341.809,495.626,343.157,493.843z M329.434,478.302c1.79,1.363,2.143,3.919,0.777,5.706
	c-1.36,1.78-3.907,2.131-5.697,0.771c-1.79-1.359-2.133-3.904-0.78-5.695C325.098,477.294,327.649,476.948,329.434,478.302z
	 M228.076,459.431c1.261,0.188,2.139,1.361,1.949,2.621c-0.188,1.262-1.368,2.126-2.628,1.938c-1.261-0.188-2.128-1.356-1.939-2.618
	C225.646,460.112,226.816,459.245,228.076,459.431z"/>
<path fill="#E6E6E5" stroke="#020202" stroke-width="0.5" stroke-miterlimit="10" d="M116.028,494.634l56.949-4.652l0,0
	c12.332-0.913,22.192-11.367,22.536-24c0.365-13.473-10.258-24.691-23.731-25.059c-4.624-0.127-9.059,0.945-12.805,3.086l0,0
	c0,0-38.785,19.39-40.138,19.867c-1.377,0.505-2.876,0.752-4.438,0.71c-1.897-0.053-3.675-0.534-5.255-1.344l-0.069-0.039
	c-0.489-0.256-48.315-24.247-48.315-24.247l-0.328-0.198c-1.743-1.061-3.778-1.684-5.965-1.746
	c-4.526-0.123-8.553,2.239-10.75,5.853c-0.597,0.957-1.049,2.012-1.358,3.135l-10.8,24.482l-0.547-0.232l0.547,0.232
	c-0.452,0.993-0.717,2.097-0.748,3.256c-0.129,4.645,3.539,8.514,8.186,8.639c3.323,0.092,6.25-1.754,7.688-4.5
	c0,0,4.279-13.764,13.396-14.502c0.711-0.06,1.422,0.055,2.061,0.31c6.509,2.607,45.216,29.396,45.216,29.396l0.836,0.467
	c1.553,0.791,3.303,1.258,5.165,1.306L116.028,494.634z M168.813,465.255c0.035-1.275,1.094-2.277,2.368-2.242
	c1.273,0.035,2.284,1.095,2.251,2.367c-0.034,1.271-1.103,2.275-2.377,2.24C169.78,467.585,168.78,466.528,168.813,465.255z"/>
<path fill="#E6E6E5" stroke="#020202" stroke-width="0.5" stroke-miterlimit="10" d="M113.355,372.763
	c-1.861,0.048-3.611,0.515-5.164,1.305l-0.837,0.467c0,0-38.707,26.786-45.215,29.396c-0.639,0.254-1.35,0.366-2.062,0.309
	c-9.114-0.737-13.396-14.501-13.396-14.501c-1.438-2.745-4.364-4.592-7.688-4.5c-4.646,0.125-8.312,3.995-8.185,8.641
	c0.031,1.157,0.295,2.261,0.748,3.254l-0.547,0.231l0.547-0.231l10.8,24.481c0.312,1.123,0.764,2.178,1.358,3.136
	c2.196,3.611,6.223,5.973,10.75,5.852c2.187-0.062,4.221-0.686,5.965-1.746l0.328-0.198c0,0,47.826-23.99,48.315-24.247l0.069-0.038
	c1.58-0.81,3.355-1.292,5.255-1.344c1.562-0.042,3.062,0.205,4.438,0.709c1.352,0.479,40.138,19.866,40.138,19.866l0,0
	c3.746,2.143,8.181,3.216,12.805,3.088c13.475-0.366,24.098-11.586,23.731-25.061c-0.344-12.633-10.204-23.086-22.536-24l0,0
	l-56.949-4.65L113.355,372.763z M171.056,399.991c1.273-0.035,2.342,0.969,2.377,2.242c0.033,1.271-0.978,2.332-2.251,2.367
	c-1.274,0.035-2.333-0.967-2.368-2.242C168.78,401.085,169.78,400.027,171.056,399.991z"/>
<path fill="#E6E6E5" stroke="#020202" stroke-width="0.5" stroke-miterlimit="10" d="M221.926,548.657L221.926,548.657
	c2.231-2.457,5.559-3.902,9.137-3.902c4.213,0,8.062,2.023,10.26,5.27l0,0c5.783,9.021,15.9,15.005,27.414,15.005
	c17.979,0,32.539-14.568,32.539-32.539c0-17.969-14.56-32.539-32.539-32.539c-11.75,0-22.051,6.237-27.767,15.584h-0.009l0,0
	c-2.225,2.981-6.201,4.637-10.205,4.637c-3.309,0-6.3-1.309-8.489-3.444c-0.388-0.369-0.749-0.774-1.083-1.201
	c-4.421-4.592-10.643-7.678-17.526-7.438c-21.169,0.736-24.183,5.607-43.206,5.229c-22.594-0.45-33.762-4.261-46.271-5.354
	c-13.426-1.175-24.403,11.055-24.403,24.53c0,13.478,10.928,24.402,24.403,24.402l89.478,0.058l0,0
	C210.935,556.948,217.46,553.712,221.926,548.657z M111.876,532.489c0-1.271,1.028-2.305,2.305-2.305
	c1.272,0,2.315,1.032,2.315,2.305c0,1.274-1.04,2.307-2.315,2.307C112.903,534.794,111.876,533.764,111.876,532.489z
	 M201.353,532.489c0-1.271,1.03-2.305,2.305-2.305s2.315,1.032,2.315,2.305c0,1.274-1.04,2.307-2.315,2.307
	C202.383,534.794,201.353,533.764,201.353,532.489z"/>
<g>
	<path fill="#E6E6E5" stroke="#020202" stroke-width="0.5" stroke-miterlimit="10" d="M716.307,518.433
		c-0.863,6.7-11.031,14.246-11.031,14.246s-6.453-0.15-29.564-4.49c-10.565-1.983-20.043,1.745-26.53,10.064
		c-11.05,14.17-19.698,28.027-34.187,39.312c-14.996,11.681-32.988,20.823-52.125,22.765c-87.718,5.385-78.177-56.739-78.303-57.096
		c-12.438-1.263-51.61-12.349-52.762-12.716c-8.123-2.582-16.043-5.021-23.706-8.87c-3.14-1.575-24.413-14.91-12.879-19.803
		c2.849-1.208,7.646-0.079,10.528,0.844c-0.21-0.066-7.519-2.4,22.141,7.24c30.074,9.78,91.906,12.753,118.623,9.839
		c26.716-2.915,78.938-23.313,102.211-40.514c23.271-17.195,45.381-20.363,45.087-19.755c0.354,3.912-2.336,16.456-2.179,16.907
		c9.729,6.194,9.567,27.442,9.567,27.442C704.487,506.46,715.699,517.844,716.307,518.433z"/>
	<circle fill="#E6E6E5" stroke="#020202" stroke-width="0.5" stroke-miterlimit="10" cx="627.625" cy="521.901" r="2.521"/>
	<circle fill="#E6E6E5" stroke="#020202" stroke-width="0.5" stroke-miterlimit="10" cx="518.443" cy="557.3" r="2.52"/>
</g>
<path fill="#E6E6E5" stroke="#020202" stroke-width="0.5" stroke-miterlimit="10" d="M515.987,387.96
	c-16.123-19.806-48.289-32.814-48.289-32.814c-14.509,7.888-24.248,24.199-29.058,39.608c-11.66-5.531-15.993-16.667-19.063-28.119
	c-1.246-4.641-3.638-17.819-10.416-16.795c-4.667,0.708-6.057,8.578-6.897,12.249c-1.646,7.192,0.575,14.061,4.324,20.222
	c8.061,13.255,29.844,35.383,31.235,35.496c1.395,0.114,19.483-16.17,19.483-16.17c9.652,19.02,33.88,23.751,45.279,21.723
	C513.982,421.327,532.11,407.765,515.987,387.96z M496.647,403.806c-1.393-0.03-2.496-1.182-2.467-2.573
	c0.029-1.391,1.181-2.494,2.573-2.465c1.391,0.029,2.495,1.181,2.466,2.572C499.19,402.73,498.037,403.835,496.647,403.806z"/>
<path fill="#E6E6E5" stroke="#020202" stroke-width="0.5" stroke-miterlimit="10" d="M503.348,428.417
	c-11.354-2.271-35.676,1.946-45.729,20.758c0,0-17.739-16.664-19.136-16.58c-1.394,0.084-23.642,21.746-31.98,34.829
	c-3.879,6.08-6.245,12.899-4.752,20.125c0.763,3.688,1.985,11.587,6.636,12.394c6.756,1.168,9.426-11.959,10.77-16.571
	c3.312-11.384,7.881-22.425,19.655-27.708c4.482,15.509,13.874,32.02,28.212,40.215c0,0,32.435-12.325,48.974-31.784
	C532.535,444.634,514.698,430.689,503.348,428.417z M496.996,452.881c-1.393,0-2.521-1.128-2.521-2.52
	c0-1.393,1.128-2.521,2.521-2.521c1.391,0,2.52,1.128,2.52,2.521C499.516,451.753,498.387,452.881,496.996,452.881z"/>
<path fill="#E6E6E5" stroke="#020202" stroke-width="0.5" stroke-miterlimit="10" d="M662.414,401.821
	c-14.902,5.902-40.334-0.043-46.781-1.598c-6.449-1.556-26.848-15.076-59.767-8.81c-32.919,6.266-29.518,24.541-25.331,27.608
	c5.582,4.093,18.002,2.048,24.375,1.76c11.186-0.506,22.019-3.286,33.141-3.956c8.051-0.487,16.128-0.461,24.187-0.224
	c16.761,0.493,33.488,1.98,50.156,3.775c29.919,3.22,31.356-19.944,31.356-19.944C685.475,393.082,677.318,395.913,662.414,401.821z
	 M550.668,410.424c-1.391,0-2.52-1.128-2.52-2.52c0-1.393,1.129-2.521,2.52-2.521c1.393,0,2.521,1.128,2.521,2.521
	C553.188,409.296,552.061,410.424,550.668,410.424z M661.488,415.411c-2.203,0.438-4.34-0.991-4.783-3.19
	c-0.437-2.205,0.998-4.347,3.19-4.784c2.208-0.438,4.354,0.991,4.789,3.195C665.119,412.831,663.693,414.971,661.488,415.411z
	 M684.227,409.361c-2.206,0.438-4.348-1-4.787-3.193c-0.438-2.205,0.995-4.354,3.189-4.784c2.209-0.438,4.352,0.985,4.789,3.192
	C687.855,406.782,686.435,408.923,684.227,409.361z"/>
<path fill="#E6E6E5" stroke="#020202" stroke-width="0.5" stroke-miterlimit="10" d="M662.394,426.621
	c-16.668,1.795-33.396,3.283-50.156,3.776c-8.059,0.237-16.136,0.263-24.187-0.225c-11.122-0.67-21.955-3.45-33.141-3.956
	c-6.373-0.287-18.793-2.332-24.375,1.761c-4.187,3.066-7.588,21.343,25.331,27.607c32.919,6.268,53.317-7.254,59.767-8.809
	c6.447-1.555,31.879-7.5,46.781-1.598c14.904,5.906,23.061,8.738,31.336,1.387C693.75,446.565,692.312,423.402,662.394,426.621z
	 M550.668,441.616c-1.391,0-2.52-1.129-2.52-2.521s1.129-2.52,2.52-2.52c1.393,0,2.521,1.128,2.521,2.52
	S552.061,441.616,550.668,441.616z M664.686,436.366c-0.436,2.205-2.582,3.635-4.789,3.196c-2.193-0.438-3.628-2.579-3.191-4.784
	c0.444-2.2,2.58-3.63,4.784-3.191C663.694,432.028,665.119,434.167,664.686,436.366z M687.418,442.422
	c-0.438,2.207-2.58,3.632-4.787,3.193c-2.195-0.434-3.629-2.58-3.19-4.785c0.438-2.192,2.58-3.63,4.787-3.192
	C686.436,438.076,687.856,440.216,687.418,442.422z"/>
<path fill="#E6E6E5" stroke="#020202" stroke-width="0.5" stroke-miterlimit="10" d="M784.664,414.877
	c1.654-2.526,1.968-5.8,3.555-8.279c1.613-2.527,3.889-4.158,6.602-5.296c4.908-2.059,10.238-3.381,15.279-5.138
	c4.082-1.42,8.146-2.896,12.174-4.46c2.942-1.145,5.871-2.337,8.76-3.615c2.188-0.971,4.356-1.981,6.478-3.098
	c3.862-2.036,7.938-5.191,12.694-4.843c4.199,0.308,8.636,1.194,12.578,2.72c8.345,3.232,15.552,8.967,22.25,14.771
	c9.271,8.037,17.515,22.703,31.922,19.938c10.417-1.998,17.242-12.062,15.244-22.479c-1.041-5.424-4.437-10.209-9.211-12.985
	c-6.122-3.562-13.854-1.212-20.544-1.679c-7.152-0.497-13.621-3.806-19.876-7.296c-5.64-3.146-12.424-5.543-17.957-8.863
	c-2.619-1.572-5.229-3.377-8.149-4.195c-1.526-0.428-8.591-0.08-14.07,0.443c-5.84,0.523-7.911,4.014-12.137,7.611
	c-8.884,7.57-19.573,13.281-29.819,18.755c-4.812,2.567-10.043,6.896-15.607,7.557c-1.209,0.145-2.166-0.041-2.982-0.422
	c-2.26-1.047-3.466-3.578-5.964-4.833c-2.962-1.487-5.259-2.369-8.013-4.349c-1.916-1.377-3.805-2.795-5.672-4.236
	c-1.219-0.948-1.199-2.831-2.498-3.653c-1.451-0.924-3.537-0.068-5.061,0.225c2.064,3.685,3.438,7.993,5.686,11.489
	c2.584,4.018,7.412,5.803,10.438,9.424c3.615,4.33,3.305,10.045,4.525,15.223C776.268,417.47,782.369,418.383,784.664,414.877z
	 M917.132,396.913c0.264,1.367-0.633,2.688-2,2.949c-1.365,0.264-2.688-0.633-2.949-1.999c-0.262-1.368,0.635-2.688,2-2.95
	C915.55,394.65,916.869,395.548,917.132,396.913z M838.177,375.65c13.22-2.938-1.729,3.348-1.729,3.348
	s-26.405,14.618-37.178,16.685C798.984,395.332,824.961,378.592,838.177,375.65z"/>
<path fill="#E6E6E5" stroke="#020202" stroke-width="0.5" stroke-miterlimit="10" d="M775.285,433.354
	c-1.223,5.178-0.91,10.892-4.525,15.222c-3.025,3.621-7.854,5.406-10.438,9.424c-2.248,3.496-3.619,7.808-5.686,11.489
	c1.521,0.292,3.607,1.146,5.061,0.224c1.299-0.821,1.279-2.704,2.498-3.651c1.867-1.442,3.756-2.86,5.672-4.237
	c2.754-1.979,5.051-2.86,8.013-4.348c2.497-1.255,3.704-3.786,5.964-4.833c0.816-0.381,1.773-0.565,2.982-0.422
	c5.564,0.657,10.797,4.986,15.607,7.556c10.246,5.473,20.938,11.184,29.819,18.755c4.226,3.6,6.298,7.087,12.138,7.612
	c5.479,0.521,12.543,0.871,14.07,0.441c2.92-0.817,5.529-2.623,8.148-4.193c5.533-3.321,12.318-5.718,17.957-8.864
	c6.256-3.49,12.725-6.798,19.876-7.295c6.688-0.467,14.422,1.882,20.544-1.679c4.773-2.777,8.17-7.562,9.211-12.986
	c1.998-10.417-4.827-20.481-15.244-22.479c-14.408-2.766-22.652,11.9-31.922,19.938c-6.699,5.807-13.904,11.54-22.25,14.771
	c-3.941,1.524-8.379,2.411-12.578,2.721c-4.756,0.35-8.832-2.808-12.693-4.844c-2.119-1.113-4.289-2.127-6.479-3.098
	c-2.889-1.278-5.814-2.472-8.76-3.616c-4.027-1.563-8.092-3.039-12.174-4.459c-5.041-1.756-10.371-3.079-15.279-5.138
	c-2.713-1.137-4.986-2.768-6.602-5.295c-1.587-2.48-1.898-5.753-3.555-8.281C782.369,428.281,776.268,429.194,775.285,433.354z
	 M914.181,451.751c-1.365-0.262-2.262-1.582-2-2.949c0.263-1.365,1.584-2.263,2.949-1.998c1.366,0.262,2.264,1.582,2,2.947
	C916.869,451.118,915.55,452.014,914.181,451.751z M799.271,450.982c10.771,2.063,37.178,16.683,37.178,16.683
	s14.947,6.287,1.729,3.35C824.961,468.07,798.984,451.332,799.271,450.982z"/>
<path fill="#E6E6E5" stroke="#020202" stroke-width="0.5" stroke-miterlimit="10" d="M1014.097,575.893
	c0.704-0.054,1.354-0.185,2.038-0.354c0,0-3.712-11.137-2.265-12.818c1.445-1.685,5.907-0.385,5.907-0.385s0.812,8.608,2.688,13.014
	c-0.178,0.045,10.008-2.561,10.008-2.561l-1.358-5.313l9.479,3.238c0,0,3.109-5.521,9.084-7.17
	c3.887-1.071,7.634-3.363,10.847-5.737c9.594-7.088,15.015-22.614,9.671-33.599c-1.705-3.504-4.604-6.104-6.499-9.418
	c-1.34-2.341-1.555-4.76-3.576-6.725c-5.532-5.378-11.184-6.117-18.508-4.482c-4.224,0.942-8.224,2.472-11.808,4.929
	c-2.373,1.625-4.541,3.744-6.348,5.979c-2.812,3.479-4.68,7.826-8.16,10.735c-4.639,3.878-10.712,2.378-16.298,2.416
	c-10.246,0.069-20.503-0.163-30.742-0.573c-10.83-0.438-21.676-1.053-32.451-2.229c-9.193-1.005-22.664-1.428-31.021-6.002
	c-3.311-1.812-6.32-5.238-10.038-6.065c-16.139-3.602-31.225,4.562-38.854,18.875c-5.33,9.996,8.723,15.039,10.934,16.352
	c2.216,1.312,7.529,5.959,18.078-1.238c10.549-7.199,39.415-2.938,45.728,23.229c0.211,0.864,6.168,1.167,6.844,1.227
	c16.229,1.471,33.57-3.747,46.609-13.476c3.527-2.633,7.17-4.67,10.02-8.04c2.039-2.412,3.334-3.218,6.834-2.966
	c7.412,0.534,3.891,5.003,2.438,9.451c-0.66,2.025-0.721,4.023-1.135,6.127c-0.441,2.25,0.109,5.601,0.697,7.805
	c0.461,1.725,1.309,3.293,2.834,4.288C1008.101,575.92,1011.394,576.093,1014.097,575.893z M875.537,532.525
	c0-1.394,1.13-2.521,2.521-2.521c1.394,0,2.521,1.13,2.521,2.521s-1.129,2.52-2.521,2.52
	C876.667,535.045,875.537,533.917,875.537,532.525z M979.231,539.386c0-1.393,1.129-2.521,2.521-2.521s2.52,1.128,2.52,2.521
	c0,1.394-1.127,2.521-2.52,2.521S979.231,540.779,979.231,539.386z"/>
<path fill="#E6E6E5" stroke="#020202" stroke-width="0.5" stroke-miterlimit="10" d="M967.876,411.182
	c5.83-5.388,7.631-13.684,14.228-18.654c3.258-2.46,6.882-4.418,10.362-6.535c3.162-1.925,5.735-4.5,8.881-6.418
	c1.615-0.98,3.472-1.498,5.214-2.307c4.437-2.055,9.234-3.844,14.035-4.816c4.299-0.873,8.459,1.258,12.412,2.938
	c2.938,1.242,5.992,2.633,9.147,3.209c1.923,0.361,3.96,0.895,6.019,1.594c6.172,2.095,12.535,5.688,16.824,10.591
	c2.4,2.75,4.442,6.643,7.282,8.807c1.881,1.44,4.784,5.465,6.86,6.061c2.486,0.714,1.867-1.605,1.492-3.235
	c-0.459-2.038-2.608-5.821,0.537-6.241c2.377-0.306,5.592,1.51,7.629,2.551c2.961,1.515,7.406,0.543,9.604-2.004
	c1.306-1.521,1.409-3.599,0.949-5.465c-0.968-3.965-4.535-7.4-8.293-8.834c-4.685-1.777-8.931-1.257-13.777-1.841
	c-2.073-0.239-3.913-1.357-5.958-1.721c-4.167-0.736-8.18-1.152-11.888-3.947c-2.677-2.025-10.778-6.215-19.034-9.648
	c-0.548-0.229-1.102-0.457-1.646-0.68c-0.586-0.229-1.174-0.465-1.756-0.688c-3.729-1.43-7.352-2.617-10.347-3.291
	c-1.672-0.379-3.339-0.459-4.937-1.148c-1.547-0.668-2.938-1.354-4.613-1.684c-7.874-1.562-14.907,3.033-21.023,7.377
	c-6.483,4.6-14.144,7.605-21.388,11.029c-5.887,2.783-11.344,5.096-18.025,5.103c-6.322,0.01-13.223,1.79-16.02,8.068
	c-3.488,7.832-1.094,16.465,5.105,22.17C952.406,417.642,961.308,417.247,967.876,411.182z M1093.889,391.987
	c-0.578,2.003-2.672,3.152-4.666,2.58c-2.002-0.584-3.161-2.674-2.579-4.674c0.581-1.992,2.663-3.148,4.665-2.572
	C1093.312,387.903,1094.461,389.987,1093.889,391.987z M1047.483,375.875c-9.188-3.459-20.935-8.809-20.935-8.809
	s-0.362-2.336,7.047-0.26c1.389,0.385,3.099,1.016,4.964,1.779c0.504,0.213,1.017,0.424,1.546,0.66
	c7.836,3.418,17.447,8.748,17.654,9.479C1056.41,378.994,1052.293,377.691,1047.483,375.875z M1069.584,381.054
	c2.002,0.58,3.147,2.674,2.578,4.666c-0.578,2.004-2.674,3.158-4.665,2.582c-2.004-0.578-3.161-2.664-2.579-4.668
	C1065.494,381.632,1067.58,380.476,1069.584,381.054z M955.734,398.339c-0.226-0.494-0.241-1.021-0.09-1.507
	c0.169-0.567,0.577-1.06,1.159-1.319c1.076-0.488,2.35-0.012,2.838,1.063c0.484,1.076-0.004,2.343-1.079,2.828
	c-0.503,0.229-1.058,0.243-1.546,0.084C956.462,399.306,955.988,398.901,955.734,398.339z"/>
<path fill="#E6E6E5" stroke="#020202" stroke-width="0.5" stroke-miterlimit="10" d="M945.753,436.379
	c-6.199,5.705-8.596,14.339-5.105,22.17c2.797,6.278,9.697,8.061,16.018,8.068c6.687,0.007,12.143,2.317,18.027,5.103
	c7.244,3.425,14.904,6.431,21.387,11.028c6.117,4.344,13.151,8.938,21.024,7.378c1.677-0.329,3.064-1.017,4.613-1.685
	c1.598-0.689,3.265-0.771,4.937-1.147c2.995-0.674,6.618-1.86,10.347-3.292c0.584-0.222,1.17-0.458,1.756-0.688
	c0.545-0.224,1.1-0.448,1.646-0.679c8.255-3.436,16.357-7.623,19.034-9.649c3.708-2.794,7.72-3.21,11.888-3.946
	c2.046-0.361,3.887-1.479,5.958-1.721c4.847-0.584,9.093-0.062,13.777-1.84c3.758-1.434,7.325-4.87,8.293-8.835
	c0.46-1.866,0.356-3.944-0.949-5.463c-2.198-2.549-6.644-3.521-9.604-2.005c-2.039,1.04-5.252,2.854-7.629,2.55
	c-3.146-0.42-0.996-4.203-0.537-6.241c0.375-1.63,0.994-3.949-1.492-3.235c-2.076,0.597-4.979,4.618-6.86,6.062
	c-2.839,2.164-4.882,6.056-7.28,8.806c-4.289,4.902-10.652,8.496-16.826,10.591c-2.059,0.699-4.095,1.229-6.019,1.595
	c-3.155,0.576-6.211,1.965-9.146,3.209c-3.957,1.68-8.115,3.812-12.414,2.938c-4.799-0.975-9.601-2.764-14.035-4.817
	c-1.742-0.809-3.601-1.322-5.214-2.307c-3.146-1.917-5.721-4.491-8.881-6.417c-3.48-2.117-7.104-4.074-10.362-6.535
	c-6.597-4.973-8.396-13.268-14.228-18.652C961.308,430.651,952.406,430.256,945.753,436.379z M1091.31,460.577
	c-2.001,0.576-4.084-0.58-4.665-2.571c-0.583-2.002,0.576-4.091,2.578-4.675c1.994-0.572,4.088,0.577,4.668,2.58
	C1094.461,457.911,1093.312,459.995,1091.31,460.577z M1057.76,469.17c-0.207,0.731-9.818,6.062-17.654,9.48
	c-0.529,0.235-1.042,0.447-1.546,0.659c-1.865,0.766-3.575,1.396-4.964,1.78c-7.409,2.075-7.047-0.26-7.047-0.26
	s11.748-5.351,20.935-8.81C1052.293,470.206,1056.41,468.904,1057.76,469.17z M1064.918,464.265
	c-0.582-2.004,0.576-4.091,2.58-4.668c1.989-0.577,4.086,0.577,4.665,2.58c0.57,1.993-0.577,4.087-2.579,4.668
	C1067.58,467.422,1065.494,466.268,1064.918,464.265z M957.015,448.41c0.488-0.159,1.043-0.146,1.547,0.084
	c1.076,0.485,1.562,1.752,1.078,2.828c-0.487,1.075-1.762,1.554-2.836,1.065c-0.584-0.264-0.991-0.754-1.16-1.321
	c-0.15-0.485-0.135-1.012,0.09-1.505C955.988,448.997,956.462,448.592,957.015,448.41z"/>
<path fill="#E6E6E5" stroke="#020202" stroke-width="0.5" stroke-miterlimit="10" d="M982.499,264.325
	c1.473,2.05,2.999,0.277,4.85,0.681c2.101,0.456,2.716,2.71,5.283,2.222c0.849-0.165,1.015-0.694,1.812-0.348
	c1.036,0.449,1.296,1.393,2.49,1.419c0.48,0.011,1.397-0.35,1.946-0.406c0.512-0.052,1.025-0.049,1.524-0.182
	c1.854-0.505,2.313,5.042,4.966,4.021c2.531-0.976,4.972-2.773,7.158-4.351c2.585-1.862,5.49-1.972,8.638-1.923
	c2.269,0.032,5.201,0.196,7.251-0.963c15.682-8.848,17.005-30.667,7.31-47.017c-9.694-16.35-38.2-15.911-49.841-2.989
	c-11.64,12.919-18.682,6.104-30.862-1.172s-27.651-4.696-50.865-0.627c-23.214,4.066-25.091-3.083-36.149-5.198
	c-11.057-2.116-30.158,5.961-31.252,30.492s34.942,23.391,42.053,24.666c7.109,1.276,28.405,7.873,48.195,8.117
	c19.787,0.244,37.751-19.56,42.988-19.261C977.432,251.924,979.894,260.685,982.499,264.325z M855.613,232.983
	c0.016-1.28,1.068-2.306,2.35-2.291c1.283,0.016,2.309,1.068,2.293,2.348c-0.017,1.283-1.067,2.309-2.351,2.293
	C856.625,235.318,855.598,234.267,855.613,232.983z M948.482,237.691c0.016-1.283,1.067-2.311,2.351-2.294
	c1.283,0.016,2.311,1.068,2.294,2.352c-0.016,1.282-1.068,2.311-2.352,2.294C949.492,240.027,948.467,238.974,948.482,237.691z"/>
<path fill="#E6E6E5" stroke="#020202" stroke-width="0.5" stroke-miterlimit="10" d="M792.104,129.252
	c7.117-5.044,16.033-7.92,24.669-8.841c4.563-0.487,9.171-0.186,13.742-0.52c3.281-0.239,6.479-1.148,9.522-2.36
	c4.535-1.808,8.578-5.639,13.606-6.008c1.037-0.077,2.055,0.002,3.053,0.198c3.803,0.743,7.187,3.04,10.587,4.778
	c8.201,4.191,16.773,6.586,25.758,8.455c6.415,1.334,13.819,2.748,20.112,0.196c3.252-1.317,6.689-4.004,8.726-6.889
	c5.896-8.354,3.063-20.316-4.101-26.811c-8.561-7.763-20.926-10.775-32.099-12.085c-6.729-0.79-13.664-1.049-20.435-0.772
	c-9.812,0.397-17.911,2.102-26.687,6.494c-3.46,1.728-6.677,3.547-10.248,5.134c-7.124,3.163-13.916,6.585-20.919,9.944
	c-4.213,2.022-8.904,4.075-13.654,3.97c-4.062-0.091-6.101-1.988-7.311-5.699c-1.457-4.46-4.135-8.581-7.965-11.354
	c-3.207-2.322-8.961-5.545-12.43-1.85c-3.549,3.781-1,10.012,0.532,14.151c4.935,13.318,10.868,28.07,10.895,28.137
	c0.754,1.877,2.293,3.507,4.099,4.402C785.723,133.991,788.779,131.608,792.104,129.252z M903.784,106.535
	c0.016-1.282,1.067-2.31,2.351-2.293c1.281,0.016,2.309,1.068,2.292,2.351c-0.016,1.282-1.068,2.308-2.35,2.292
	C904.794,108.869,903.769,107.817,903.784,106.535z"/>
<path fill="#E6E6E5" stroke="#020202" stroke-width="0.5" stroke-miterlimit="10" d="M1077.305,113.494
	c-1.69-4.094-6.237-6.205-10.158-7.574c-3.922-1.369-8.017-2.102-12.071-2.963c-4.652-0.99-9.034-2.492-13.568-3.887
	c-4.688-1.441-9.568-2.564-14.058-4.569c-4.208-1.878-7.914-4.66-11.593-7.393c-4.332-3.226-8.438-6.677-13.359-9.006
	c-8.396-3.976-19.249-1.127-28.185-0.398c-6.72,0.549-12.96,2.529-19.453,4.295c-2.975,0.811-5.501,1.659-8.199,3.131
	c-8.247,4.505-18.102,9.438-18.315,20.352c-0.123,6.189,2.061,12.248,6.915,16.292c5.646,4.701,13.76,4.989,20.449,2.284
	c0.828-0.337,1.634-0.715,2.41-1.139c1.701-0.929,3.271-2.238,4.868-3.377c3.386-2.42,6.753-4.526,10.312-6.678
	c4.505-2.724,9.208-5.379,14.393-6.538c4.306-0.961,8.437-2.742,12.911-0.996c2.674,1.044,4.109,3.235,6.326,4.873
	c2.412,1.778,5.127,3.257,7.929,4.319c1.923,0.729,4.804,0.713,6.898,1.013c5.235,0.75,9.16-0.09,13.031,4.515
	c2.958,3.522,5.29,6.946,9.32,9.562c3.226,2.097,7.969,3.519,11.765,3.971C1065.912,134.776,1082.315,125.62,1077.305,113.494z
	 M945.75,107.032c-0.016,1.282-1.067,2.309-2.351,2.292c-1.282-0.016-2.308-1.066-2.292-2.35c0.016-1.282,1.067-2.308,2.35-2.292
	C944.74,104.698,945.767,105.75,945.75,107.032z M1029.342,108.189c0.028-2.263,1.886-4.074,4.147-4.046
	c2.26,0.028,4.074,1.884,4.047,4.147c-0.028,2.266-1.887,4.074-4.148,4.046C1031.126,112.308,1029.312,110.455,1029.342,108.189z
	 M1060.395,119.73c0.027-2.262,1.885-4.073,4.146-4.045c2.263,0.028,4.074,1.884,4.046,4.146c-0.027,2.262-1.884,4.072-4.146,4.044
	C1062.178,123.848,1060.366,121.992,1060.395,119.73z"/>
<path fill="#E6E6E5" stroke="#020202" stroke-width="0.5" stroke-miterlimit="10" d="M827.211,179.233
	c3.532,1.676,6.701,3.57,10.118,5.384c8.666,4.607,16.722,6.515,26.518,7.152c6.765,0.442,13.701,0.355,20.448-0.268
	c11.201-1.036,23.637-3.739,32.388-11.29c7.32-6.316,10.45-18.204,4.762-26.701c-1.965-2.935-5.335-5.706-8.554-7.103
	c-6.229-2.706-13.669-1.476-20.111-0.3c-9.028,1.646-17.658,3.829-25.96,7.817c-3.442,1.654-6.882,3.867-10.701,4.516
	c-1.002,0.172-2.021,0.225-3.057,0.123c-5.018-0.494-8.967-4.423-13.453-6.342c-3.014-1.287-6.188-2.273-9.461-2.595
	c-4.562-0.449-9.178-0.26-13.727-0.859c-8.609-1.132-17.452-4.229-24.442-9.447c-3.266-2.437-6.263-4.894-10.477-2.927
	c-1.827,0.85-3.405,2.438-4.206,4.3c-0.027,0.066-6.326,14.668-11.585,27.86c-1.634,4.099-4.336,10.265-0.881,14.133
	c3.376,3.779,9.209,0.7,12.471-1.542c3.896-2.68,6.679-6.73,8.243-11.155c1.301-3.68,3.385-5.525,7.449-5.516
	c4.748,0.012,9.388,2.179,13.552,4.304C813.464,172.307,820.17,175.896,827.211,179.233z M903.065,164.788
	c0.016-1.282,1.067-2.309,2.351-2.292c1.281,0.016,2.308,1.067,2.292,2.35s-1.068,2.309-2.35,2.293
	C904.075,167.123,903.05,166.069,903.065,164.788z"/>
<path fill="#E6E6E5" stroke="#020202" stroke-width="0.5" stroke-miterlimit="10" d="M1001.044,195.859
	c4.979-2.206,9.167-5.556,13.577-8.674c3.746-2.643,7.519-5.331,11.772-7.104c4.538-1.894,9.444-2.898,14.166-4.222
	c4.567-1.283,8.984-2.676,13.66-3.55c4.074-0.761,8.186-1.392,12.141-2.665c3.953-1.272,8.551-3.27,10.342-7.321
	c5.309-11.999-10.864-21.558-20.932-20.611c-3.808,0.358-8.584,1.664-11.86,3.679c-4.093,2.515-6.508,5.879-9.553,9.329
	c-3.982,4.507-7.887,3.571-13.138,4.191c-2.101,0.246-4.982,0.161-6.922,0.843c-2.826,0.992-5.578,2.404-8.032,4.122
	c-2.256,1.583-3.747,3.737-6.443,4.715c-4.517,1.634-8.604-0.249-12.885-1.313c-5.154-1.287-9.79-4.058-14.228-6.892
	c-3.504-2.237-6.816-4.427-10.145-6.931c-1.567-1.177-3.104-2.525-4.784-3.497c-0.764-0.443-1.559-0.841-2.38-1.197
	c-6.618-2.869-14.738-2.783-20.5,1.777c-4.952,3.923-7.285,9.927-7.314,16.117c-0.055,10.916,9.673,16.091,17.808,20.797
	c2.66,1.54,5.166,2.45,8.12,3.332c6.448,1.928,12.638,4.06,19.34,4.773C981.773,196.509,992.552,199.627,1001.044,195.859z
	 M1059.951,155.67c0.027-2.262,1.884-4.072,4.146-4.044c2.263,0.028,4.074,1.883,4.046,4.146c-0.027,2.262-1.885,4.074-4.146,4.045
	C1061.734,159.788,1059.923,157.932,1059.951,155.67z M940.385,165.478c0.017-1.282,1.068-2.309,2.35-2.292
	c1.283,0.016,2.309,1.066,2.293,2.35c-0.016,1.282-1.067,2.308-2.351,2.292C941.396,167.812,940.369,166.76,940.385,165.478z
	 M1028.623,166.442c0.026-2.267,1.886-4.074,4.147-4.046c2.261,0.028,4.074,1.88,4.047,4.147c-0.028,2.262-1.889,4.074-4.148,4.045
	C1030.407,170.561,1028.596,168.704,1028.623,166.442z"/>
</svg>
