<?xml version="1.0" encoding="utf-8"?>
<!-- Generator: Adobe Illustrator 16.0.0, SVG Export Plug-In . SVG Version: 6.00 Build 0)  -->
<!DOCTYPE svg PUBLIC "-//W3C//DTD SVG 1.1//EN" "http://www.w3.org/Graphics/SVG/1.1/DTD/svg11.dtd">
<svg version="1.1" id="Layer_1" xmlns="http://www.w3.org/2000/svg" xmlns:xlink="http://www.w3.org/1999/xlink" x="0px" y="0px"
	 width="720px" height="504px" viewBox="0 0 720 504" enable-background="new 0 0 720 504" xml:space="preserve">
<g>
	<g id="CIRCLE">
		<path fill="none" stroke="#010101" stroke-linecap="round" stroke-linejoin="round" stroke-miterlimit="10" d="M98.354,391.172
			c0-3.579-2.901-6.48-6.48-6.48s-6.48,2.901-6.48,6.48s2.901,6.48,6.48,6.48S98.354,394.751,98.354,391.172L98.354,391.172z"/>
	</g>
	<g id="CIRCLE_1_">
		<path fill="none" stroke="#010101" stroke-linecap="round" stroke-linejoin="round" stroke-miterlimit="10" d="M242.355,283.172
			c0-3.579-2.901-6.48-6.48-6.48s-6.48,2.901-6.48,6.48s2.901,6.48,6.48,6.48S242.355,286.751,242.355,283.172L242.355,283.172z"/>
	</g>
	<g id="CIRCLE_2_">
		<path fill="none" stroke="#010101" stroke-linecap="round" stroke-linejoin="round" stroke-miterlimit="10" d="M170.355,283.172
			c0-3.579-2.901-6.48-6.48-6.48s-6.48,2.901-6.48,6.48s2.901,6.48,6.48,6.48S170.355,286.751,170.355,283.172L170.355,283.172z"/>
	</g>
	<g id="CIRCLE_3_">
		<path fill="none" stroke="#010101" stroke-linecap="round" stroke-linejoin="round" stroke-miterlimit="10" d="M242.355,337.172
			c0-3.579-2.901-6.48-6.48-6.48s-6.48,2.901-6.48,6.48s2.901,6.48,6.48,6.48S242.355,340.751,242.355,337.172L242.355,337.172z"/>
	</g>
	<g id="CIRCLE_4_">
		<path fill="none" stroke="#010101" stroke-linecap="round" stroke-linejoin="round" stroke-miterlimit="10" d="M170.355,391.172
			c0-3.579-2.901-6.48-6.48-6.48s-6.48,2.901-6.48,6.48s2.901,6.48,6.48,6.48S170.355,394.751,170.355,391.172L170.355,391.172z"/>
	</g>
	<g id="CIRCLE_5_">
		<path fill="none" stroke="#010101" stroke-linecap="round" stroke-linejoin="round" stroke-miterlimit="10" d="M98.354,337.172
			c0-3.579-2.901-6.48-6.48-6.48s-6.48,2.901-6.48,6.48s2.901,6.48,6.48,6.48S98.354,340.751,98.354,337.172L98.354,337.172z"/>
	</g>
	<g id="CIRCLE_6_">
		<path fill="none" stroke="#010101" stroke-linecap="round" stroke-linejoin="round" stroke-miterlimit="10" d="M98.354,283.172
			c0-3.579-2.901-6.48-6.48-6.48s-6.48,2.901-6.48,6.48s2.901,6.48,6.48,6.48S98.354,286.751,98.354,283.172L98.354,283.172z"/>
	</g>
	<g id="CIRCLE_7_">
		<path fill="none" stroke="#010101" stroke-linecap="round" stroke-linejoin="round" stroke-miterlimit="10" d="M170.355,337.172
			c0-3.579-2.901-6.48-6.48-6.48s-6.48,2.901-6.48,6.48s2.901,6.48,6.48,6.48S170.355,340.751,170.355,337.172L170.355,337.172z"/>
	</g>
	<g id="CIRCLE_8_">
		<path fill="none" stroke="#010101" stroke-linecap="round" stroke-linejoin="round" stroke-miterlimit="10" d="M242.355,391.172
			c0-3.579-2.901-6.48-6.48-6.48s-6.48,2.901-6.48,6.48s2.901,6.48,6.48,6.48S242.355,394.751,242.355,391.172L242.355,391.172z"/>
	</g>
	<g id="LWPOLYLINE">
		<polygon fill="none" stroke="#010101" stroke-linecap="round" stroke-linejoin="round" stroke-miterlimit="10" points="
			294.915,373.172 294.915,445.172 32.834,445.172 32.834,373.172 19.875,373.172 19.875,301.172 32.834,301.172 32.834,242.132 
			127.875,242.132 127.875,229.172 199.875,229.172 199.875,242.132 294.915,242.132 294.915,301.172 307.875,301.172 
			307.875,373.172 		"/>
	</g>
</g>
<g>
	<g id="CIRCLE_18_">
		<path fill="none" stroke="#010101" stroke-linecap="round" stroke-linejoin="round" stroke-miterlimit="10" d="M233.712,73.436
			c0-3.579-2.901-6.48-6.48-6.48s-6.48,2.901-6.48,6.48s2.901,6.48,6.48,6.48S233.712,77.015,233.712,73.436L233.712,73.436z"/>
	</g>
	<g id="CIRCLE_19_">
		<path fill="none" stroke="#010101" stroke-linecap="round" stroke-linejoin="round" stroke-miterlimit="10" d="M89.712,181.436
			c0-3.579-2.901-6.48-6.48-6.48s-6.48,2.901-6.48,6.48s2.901,6.48,6.48,6.48S89.712,185.015,89.712,181.436L89.712,181.436z"/>
	</g>
	<g id="CIRCLE_20_">
		<path fill="none" stroke="#010101" stroke-linecap="round" stroke-linejoin="round" stroke-miterlimit="10" d="M161.712,181.436
			c0-3.579-2.901-6.48-6.48-6.48s-6.48,2.901-6.48,6.48s2.901,6.48,6.48,6.48S161.712,185.015,161.712,181.436L161.712,181.436z"/>
	</g>
	<g id="CIRCLE_21_">
		<path fill="none" stroke="#010101" stroke-linecap="round" stroke-linejoin="round" stroke-miterlimit="10" d="M233.712,127.436
			c0-3.579-2.901-6.48-6.48-6.48s-6.48,2.901-6.48,6.48s2.901,6.48,6.48,6.48S233.712,131.015,233.712,127.436L233.712,127.436z"/>
	</g>
	<g id="CIRCLE_22_">
		<path fill="none" stroke="#010101" stroke-linecap="round" stroke-linejoin="round" stroke-miterlimit="10" d="M161.712,73.436
			c0-3.579-2.901-6.48-6.48-6.48s-6.48,2.901-6.48,6.48s2.901,6.48,6.48,6.48S161.712,77.015,161.712,73.436L161.712,73.436z"/>
	</g>
	<g id="CIRCLE_23_">
		<path fill="none" stroke="#010101" stroke-linecap="round" stroke-linejoin="round" stroke-miterlimit="10" d="M89.712,127.436
			c0-3.579-2.901-6.48-6.48-6.48s-6.48,2.901-6.48,6.48s2.901,6.48,6.48,6.48S89.712,131.015,89.712,127.436L89.712,127.436z"/>
	</g>
	<g id="CIRCLE_24_">
		<path fill="none" stroke="#010101" stroke-linecap="round" stroke-linejoin="round" stroke-miterlimit="10" d="M233.712,181.436
			c0-3.579-2.901-6.48-6.48-6.48s-6.48,2.901-6.48,6.48s2.901,6.48,6.48,6.48S233.712,185.015,233.712,181.436L233.712,181.436z"/>
	</g>
	<g id="CIRCLE_25_">
		<path fill="none" stroke="#010101" stroke-linecap="round" stroke-linejoin="round" stroke-miterlimit="10" d="M161.712,127.436
			c0-3.579-2.901-6.48-6.48-6.48s-6.48,2.901-6.48,6.48s2.901,6.48,6.48,6.48S161.712,131.015,161.712,127.436L161.712,127.436z"/>
	</g>
	<g id="CIRCLE_26_">
		<path fill="none" stroke="#010101" stroke-linecap="round" stroke-linejoin="round" stroke-miterlimit="10" d="M89.712,73.436
			c0-3.579-2.901-6.48-6.48-6.48s-6.48,2.901-6.48,6.48s2.901,6.48,6.48,6.48S89.712,77.015,89.712,73.436L89.712,73.436z"/>
	</g>
	<g id="LWPOLYLINE_2_">
		<polygon fill="none" stroke="#010101" stroke-linecap="round" stroke-linejoin="round" stroke-miterlimit="10" points="
			24.192,217.436 24.192,163.436 11.232,163.436 11.232,91.436 24.192,91.436 24.192,37.436 286.272,37.436 286.272,91.436 
			299.232,91.436 299.232,163.436 286.272,163.436 286.272,217.436 191.232,217.436 191.232,204.476 119.232,204.476 
			119.232,217.436 		"/>
	</g>
</g>
<g>
	<g id="CIRCLE_27_">
		<path fill="none" stroke="#010101" stroke-linecap="round" stroke-linejoin="round" stroke-miterlimit="10" d="M477.796,182.154
			c0-3.579-2.901-6.48-6.48-6.48s-6.48,2.901-6.48,6.48s2.901,6.48,6.48,6.48S477.796,185.733,477.796,182.154L477.796,182.154z"/>
	</g>
	<g id="CIRCLE_28_">
		<path fill="none" stroke="#010101" stroke-linecap="round" stroke-linejoin="round" stroke-miterlimit="10" d="M369.796,128.154
			c0-3.579-2.901-6.48-6.48-6.48c-3.58,0-6.483,2.901-6.483,6.48s2.903,6.48,6.483,6.48
			C366.895,134.635,369.796,131.733,369.796,128.154L369.796,128.154z"/>
	</g>
	<g id="CIRCLE_29_">
		<path fill="none" stroke="#010101" stroke-linecap="round" stroke-linejoin="round" stroke-miterlimit="10" d="M369.796,74.154
			c0-3.579-2.901-6.48-6.48-6.48c-3.58,0-6.483,2.901-6.483,6.48s2.903,6.48,6.483,6.48
			C366.895,80.635,369.796,77.733,369.796,74.154L369.796,74.154z"/>
	</g>
	<g id="CIRCLE_30_">
		<path fill="none" stroke="#010101" stroke-linecap="round" stroke-linejoin="round" stroke-miterlimit="10" d="M423.796,128.154
			c0-3.579-2.901-6.48-6.48-6.48s-6.48,2.901-6.48,6.48s2.901,6.48,6.48,6.48S423.796,131.733,423.796,128.154L423.796,128.154z"/>
	</g>
	<g id="CIRCLE_31_">
		<path fill="none" stroke="#010101" stroke-linecap="round" stroke-linejoin="round" stroke-miterlimit="10" d="M477.796,128.154
			c0-3.579-2.901-6.48-6.48-6.48s-6.48,2.901-6.48,6.48s2.901,6.48,6.48,6.48S477.796,131.733,477.796,128.154L477.796,128.154z"/>
	</g>
	<g id="CIRCLE_32_">
		<path fill="none" stroke="#010101" stroke-linecap="round" stroke-linejoin="round" stroke-miterlimit="10" d="M369.796,182.154
			c0-3.579-2.901-6.48-6.48-6.48c-3.58,0-6.483,2.901-6.483,6.48s2.903,6.48,6.483,6.48
			C366.895,188.635,369.796,185.733,369.796,182.154L369.796,182.154z"/>
	</g>
	<g id="CIRCLE_33_">
		<path fill="none" stroke="#010101" stroke-linecap="round" stroke-linejoin="round" stroke-miterlimit="10" d="M423.796,74.154
			c0-3.579-2.901-6.48-6.48-6.48s-6.48,2.901-6.48,6.48s2.901,6.48,6.48,6.48S423.796,77.733,423.796,74.154L423.796,74.154z"/>
	</g>
	<g id="CIRCLE_34_">
		<path fill="none" stroke="#010101" stroke-linecap="round" stroke-linejoin="round" stroke-miterlimit="10" d="M423.796,182.154
			c0-3.579-2.901-6.48-6.48-6.48s-6.48,2.901-6.48,6.48s2.901,6.48,6.48,6.48S423.796,185.733,423.796,182.154L423.796,182.154z"/>
	</g>
	<g id="CIRCLE_35_">
		<path fill="none" stroke="#010101" stroke-linecap="round" stroke-linejoin="round" stroke-miterlimit="10" d="M477.796,74.154
			c0-3.579-2.901-6.48-6.48-6.48s-6.48,2.901-6.48,6.48s2.901,6.48,6.48,6.48S477.796,77.733,477.796,74.154L477.796,74.154z"/>
	</g>
	<g id="LWPOLYLINE_3_">
		<polygon fill="none" stroke="#010101" stroke-linecap="round" stroke-linejoin="round" stroke-miterlimit="10" points="
			309.31,164.154 322.27,164.154 322.27,92.154 309.31,92.154 309.31,38.154 525.315,38.154 525.315,218.154 453.315,218.154 
			453.315,205.194 381.315,205.194 381.315,218.154 309.31,218.154 		"/>
	</g>
</g>
<g>
	<g id="CIRCLE_36_">
		<path fill="none" stroke="#010101" stroke-linecap="round" stroke-linejoin="round" stroke-miterlimit="10" d="M486.433,390.954
			c0-3.579-2.901-6.48-6.48-6.48s-6.48,2.901-6.48,6.48s2.901,6.48,6.48,6.48S486.433,394.533,486.433,390.954L486.433,390.954z"/>
	</g>
	<g id="CIRCLE_37_">
		<path fill="none" stroke="#010101" stroke-linecap="round" stroke-linejoin="round" stroke-miterlimit="10" d="M378.433,336.954
			c0-3.579-2.901-6.48-6.48-6.48s-6.48,2.901-6.48,6.48s2.901,6.48,6.48,6.48S378.433,340.533,378.433,336.954L378.433,336.954z"/>
	</g>
	<g id="CIRCLE_38_">
		<path fill="none" stroke="#010101" stroke-linecap="round" stroke-linejoin="round" stroke-miterlimit="10" d="M378.433,282.954
			c0-3.579-2.901-6.48-6.48-6.48s-6.48,2.901-6.48,6.48s2.901,6.48,6.48,6.48S378.433,286.533,378.433,282.954L378.433,282.954z"/>
	</g>
	<g id="CIRCLE_39_">
		<path fill="none" stroke="#010101" stroke-linecap="round" stroke-linejoin="round" stroke-miterlimit="10" d="M432.433,336.954
			c0-3.579-2.901-6.48-6.48-6.48s-6.48,2.901-6.48,6.48s2.901,6.48,6.48,6.48S432.433,340.533,432.433,336.954L432.433,336.954z"/>
	</g>
	<g id="CIRCLE_40_">
		<path fill="none" stroke="#010101" stroke-linecap="round" stroke-linejoin="round" stroke-miterlimit="10" d="M486.433,336.954
			c0-3.579-2.901-6.48-6.48-6.48s-6.48,2.901-6.48,6.48s2.901,6.48,6.48,6.48S486.433,340.533,486.433,336.954L486.433,336.954z"/>
	</g>
	<g id="CIRCLE_41_">
		<path fill="none" stroke="#010101" stroke-linecap="round" stroke-linejoin="round" stroke-miterlimit="10" d="M378.433,390.954
			c0-3.579-2.901-6.48-6.48-6.48s-6.48,2.901-6.48,6.48s2.901,6.48,6.48,6.48S378.433,394.533,378.433,390.954L378.433,390.954z"/>
	</g>
	<g id="CIRCLE_42_">
		<path fill="none" stroke="#010101" stroke-linecap="round" stroke-linejoin="round" stroke-miterlimit="10" d="M432.433,282.954
			c0-3.579-2.901-6.48-6.48-6.48s-6.48,2.901-6.48,6.48s2.901,6.48,6.48,6.48S432.433,286.533,432.433,282.954L432.433,282.954z"/>
	</g>
	<g id="CIRCLE_43_">
		<path fill="none" stroke="#010101" stroke-linecap="round" stroke-linejoin="round" stroke-miterlimit="10" d="M432.433,390.954
			c0-3.579-2.901-6.48-6.48-6.48s-6.48,2.901-6.48,6.48s2.901,6.48,6.48,6.48S432.433,394.533,432.433,390.954L432.433,390.954z"/>
	</g>
	<g id="CIRCLE_44_">
		<path fill="none" stroke="#010101" stroke-linecap="round" stroke-linejoin="round" stroke-miterlimit="10" d="M486.433,282.954
			c0-3.579-2.901-6.48-6.48-6.48s-6.48,2.901-6.48,6.48s2.901,6.48,6.48,6.48S486.433,286.533,486.433,282.954L486.433,282.954z"/>
	</g>
	<g id="LWPOLYLINE_4_">
		<polygon fill="none" stroke="#010101" stroke-linecap="round" stroke-linejoin="round" stroke-miterlimit="10" points="
			317.952,372.954 330.912,372.954 330.912,300.954 317.952,300.954 317.952,246.954 533.952,246.954 533.952,426.954 
			461.952,426.954 461.952,413.994 389.952,413.994 389.952,426.954 317.952,426.954 		"/>
	</g>
</g>
<g>
	<g id="CIRCLE_49_">
		<path fill="none" stroke="#010101" stroke-linecap="round" stroke-linejoin="round" stroke-miterlimit="10" d="M625.322,130.315
			c0-1.392-1.128-2.52-2.52-2.52s-2.52,1.128-2.52,2.52c0,1.393,1.128,2.521,2.52,2.521S625.322,131.708,625.322,130.315
			L625.322,130.315z"/>
	</g>
	<g id="CIRCLE_45_">
		<path fill="none" stroke="#010101" stroke-linecap="round" stroke-linejoin="round" stroke-miterlimit="10" d="M574.193,129.867
			c0-1.392-1.128-2.52-2.52-2.52s-2.52,1.128-2.52,2.52c0,1.393,1.128,2.521,2.52,2.521S574.193,131.26,574.193,129.867
			L574.193,129.867z"/>
	</g>
	<g id="CIRCLE_48_">
		<path fill="none" stroke="#010101" stroke-linecap="round" stroke-linejoin="round" stroke-miterlimit="10" d="M598.674,129.867
			c0-14.912-12.088-27-27-27c-14.911,0-27,12.088-27,27c0,14.911,12.089,27,27,27C586.586,156.867,598.674,144.778,598.674,129.867
			L598.674,129.867z"/>
	</g>
	<g id="CIRCLE_47_">
		<path fill="none" stroke="#010101" stroke-linecap="round" stroke-linejoin="round" stroke-miterlimit="10" d="M712.803,130.315
			c0-49.706-40.294-90-90-90s-90,40.294-90,90s40.294,90,90,90S712.803,180.021,712.803,130.315L712.803,130.315z"/>
	</g>
</g>
<g>
	<path fill="none" stroke="#010101" stroke-linecap="round" stroke-linejoin="round" stroke-miterlimit="10" d="M664.258,340.717
		c0-1.393-1.128-2.521-2.52-2.521c-1.393,0-2.521,1.128-2.521,2.521c0,1.392,1.128,2.52,2.521,2.52
		C663.13,343.236,664.258,342.107,664.258,340.717L664.258,340.717z"/>
	<path fill="none" stroke="#010101" stroke-linecap="round" stroke-linejoin="round" stroke-miterlimit="10" d="M661.739,391.78
		c-28.202,0-51.064-22.861-51.064-51.063s22.862-51.064,51.064-51.064s51.063,22.862,51.063,51.064c0,39.765-22.861,72-51.063,72
		V391.78z"/>
</g>
<g>
	<g id="CIRCLE_16_">
		<path fill="none" stroke="#010101" stroke-linecap="round" stroke-linejoin="round" stroke-miterlimit="10" d="M578.151,390.953
			c0-1.391-1.129-2.52-2.521-2.52c-1.391,0-2.52,1.129-2.52,2.52c0,1.393,1.129,2.521,2.52,2.521
			C577.022,393.475,578.151,392.346,578.151,390.953L578.151,390.953z"/>
	</g>
	<g id="CIRCLE_9_">
		<path fill="none" stroke="#010101" stroke-linecap="round" stroke-linejoin="round" stroke-miterlimit="10" d="M602.631,390.954
			c0-14.911-12.089-27-27-27s-27,12.089-27,27s12.089,27,27,27S602.631,405.865,602.631,390.954L602.631,390.954z"/>
	</g>
</g>
<g>
	<g id="CIRCLE_17_">
		<path fill="none" stroke="#010101" stroke-linecap="round" stroke-linejoin="round" stroke-miterlimit="10" d="M625.672,441.594
			c0-1.391-1.129-2.52-2.521-2.52c-1.391,0-2.52,1.129-2.52,2.52c0,1.393,1.129,2.521,2.52,2.521
			C624.543,444.115,625.672,442.986,625.672,441.594L625.672,441.594z"/>
	</g>
	<g id="CIRCLE_15_">
		<path fill="none" stroke="#010101" stroke-linecap="round" stroke-linejoin="round" stroke-miterlimit="10" d="M650.151,441.595
			c0-14.911-12.089-27-27-27s-27,12.089-27,27s12.089,27,27,27S650.151,456.506,650.151,441.595L650.151,441.595z"/>
	</g>
</g>
<g>
	<g id="CIRCLE_10_">
		<path fill="none" stroke="#010101" stroke-linecap="round" stroke-linejoin="round" stroke-miterlimit="10" d="M580.671,271.436
			c0-1.392-1.128-2.52-2.52-2.52c-1.393,0-2.521,1.128-2.521,2.52c0,1.393,1.128,2.521,2.521,2.521
			C579.543,273.956,580.671,272.828,580.671,271.436L580.671,271.436z"/>
	</g>
	<g id="CIRCLE_11_">
		<path fill="none" stroke="#010101" stroke-linecap="round" stroke-linejoin="round" stroke-miterlimit="10" d="M598.671,289.436
			c0-1.392-1.128-2.52-2.52-2.52c-1.393,0-2.521,1.128-2.521,2.52c0,1.393,1.128,2.521,2.521,2.521
			C597.543,291.956,598.671,290.828,598.671,289.436L598.671,289.436z"/>
	</g>
	<g id="CIRCLE_12_">
		<path fill="none" stroke="#010101" stroke-linecap="round" stroke-linejoin="round" stroke-miterlimit="10" d="M562.671,289.436
			c0-1.392-1.128-2.52-2.52-2.52c-1.393,0-2.521,1.128-2.521,2.52c0,1.393,1.128,2.521,2.521,2.521
			C561.543,291.956,562.671,290.828,562.671,289.436L562.671,289.436z"/>
	</g>
	<g id="CIRCLE_13_">
		<path fill="none" stroke="#010101" stroke-linecap="round" stroke-linejoin="round" stroke-miterlimit="10" d="M580.671,307.436
			c0-1.392-1.128-2.52-2.52-2.52c-1.393,0-2.521,1.128-2.521,2.52c0,1.393,1.128,2.521,2.521,2.521
			C579.543,309.956,580.671,308.828,580.671,307.436L580.671,307.436z"/>
	</g>
	<g id="CIRCLE_14_">
		<path fill="none" stroke="#010101" stroke-linecap="round" stroke-linejoin="round" stroke-miterlimit="10" d="M580.671,289.436
			c0-1.392-1.128-2.52-2.52-2.52c-1.393,0-2.521,1.128-2.521,2.52c0,1.393,1.128,2.521,2.521,2.521
			C579.543,291.956,580.671,290.828,580.671,289.436L580.671,289.436z"/>
	</g>
	<g id="ELLIPSE_2_">
		<path fill="none" stroke="#010101" stroke-linecap="round" stroke-linejoin="round" stroke-miterlimit="10" d="M578.151,235.436
			c-19.883,0-36,24.178-36,54c0,29.823,16.117,54,36,54c19.882,0,36-24.177,36-54C614.151,259.613,598.034,235.436,578.151,235.436"
			/>
	</g>
</g>
<g>
	<g>
		<g id="CIRCLE_50_">
			<path fill="none" stroke="#010101" stroke-linecap="round" stroke-linejoin="round" stroke-miterlimit="10" d="M653.008,231.813
				c0-1.391-1.129-2.52-2.521-2.52c-1.391,0-2.52,1.129-2.52,2.52c0,1.393,1.129,2.521,2.52,2.521
				C651.879,234.334,653.008,233.206,653.008,231.813L653.008,231.813z"/>
		</g>
		<g id="CIRCLE_46_">
			<path fill="none" stroke="#010101" stroke-linecap="round" stroke-linejoin="round" stroke-miterlimit="10" d="M653.008,267.813
				c0-1.391-1.129-2.52-2.521-2.52c-1.391,0-2.52,1.129-2.52,2.52c0,1.393,1.129,2.521,2.52,2.521
				C651.879,270.335,653.008,269.206,653.008,267.813L653.008,267.813z"/>
		</g>
	</g>
	<path fill="none" stroke="#010101" stroke-linecap="round" stroke-linejoin="round" stroke-miterlimit="10" d="M661.737,267.813
		c0,4.971-4.029,9-9,9h-4.5c-4.971,0-9-4.029-9-9v-36c0-4.971,4.029-9,9-9h4.5c4.971,0,9,4.029,9,9V267.813z"/>
</g>
<g>
	<g>
		<g id="CIRCLE_52_">
			<path fill="none" stroke="#010101" stroke-linecap="round" stroke-linejoin="round" stroke-miterlimit="10" d="M691.39,231.813
				c0-1.391-1.129-2.52-2.521-2.52c-1.391,0-2.52,1.129-2.52,2.52c0,1.393,1.129,2.521,2.52,2.521
				C690.261,234.334,691.39,233.206,691.39,231.813L691.39,231.813z"/>
		</g>
		<g id="CIRCLE_51_">
			<path fill="none" stroke="#010101" stroke-linecap="round" stroke-linejoin="round" stroke-miterlimit="10" d="M691.39,267.813
				c0-1.391-1.129-2.52-2.521-2.52c-1.391,0-2.52,1.129-2.52,2.52c0,1.393,1.129,2.521,2.52,2.521
				C690.261,270.335,691.39,269.206,691.39,267.813L691.39,267.813z"/>
		</g>
	</g>
	<path fill="none" stroke="#010101" stroke-linecap="round" stroke-linejoin="round" stroke-miterlimit="10" d="M700.119,267.813
		c0,4.971-4.029,9-9,9h-4.5c-4.971,0-9-4.029-9-9v-36c0-4.971,4.029-9,9-9h4.5c4.971,0,9,4.029,9,9V267.813z"/>
</g>
</svg>
