<?xml version="1.0" encoding="utf-8"?>
<!-- Generator: Adobe Illustrator 16.0.0, SVG Export Plug-In . SVG Version: 6.00 Build 0)  -->
<!DOCTYPE svg PUBLIC "-//W3C//DTD SVG 1.1//EN" "http://www.w3.org/Graphics/SVG/1.1/DTD/svg11.dtd">
<svg version="1.1" id="Layer_1" xmlns="http://www.w3.org/2000/svg" xmlns:xlink="http://www.w3.org/1999/xlink" x="0px" y="0px"
	 width="720px" height="504px" viewBox="0 0 720 504" enable-background="new 0 0 720 504" xml:space="preserve">
<g>
	<g>
		<g id="CIRCLE">
			<path fill="none" stroke="#010101" stroke-linecap="round" stroke-linejoin="round" stroke-miterlimit="10" d="M185.763,401.869
				c0-3.579-2.901-6.48-6.48-6.48s-6.479,2.901-6.479,6.48s2.9,6.48,6.479,6.48S185.763,405.448,185.763,401.869L185.763,401.869z"
				/>
		</g>
		<g id="CIRCLE_1_">
			<path fill="none" stroke="#010101" stroke-linecap="round" stroke-linejoin="round" stroke-miterlimit="10" d="M329.763,293.869
				c0-3.579-2.901-6.48-6.48-6.48s-6.48,2.901-6.48,6.48s2.901,6.48,6.48,6.48S329.763,297.448,329.763,293.869L329.763,293.869z"/>
		</g>
		<g id="CIRCLE_2_">
			<path fill="none" stroke="#010101" stroke-linecap="round" stroke-linejoin="round" stroke-miterlimit="10" d="M257.763,293.869
				c0-3.579-2.901-6.48-6.48-6.48s-6.48,2.901-6.48,6.48s2.901,6.48,6.48,6.48S257.763,297.448,257.763,293.869L257.763,293.869z"/>
		</g>
		<g id="CIRCLE_3_">
			<path fill="none" stroke="#010101" stroke-linecap="round" stroke-linejoin="round" stroke-miterlimit="10" d="M329.763,347.869
				c0-3.579-2.901-6.48-6.48-6.48s-6.48,2.901-6.48,6.48s2.901,6.48,6.48,6.48S329.763,351.448,329.763,347.869L329.763,347.869z"/>
		</g>
		<g id="CIRCLE_4_">
			<path fill="none" stroke="#010101" stroke-linecap="round" stroke-linejoin="round" stroke-miterlimit="10" d="M257.763,401.869
				c0-3.579-2.901-6.48-6.48-6.48s-6.48,2.901-6.48,6.48s2.901,6.48,6.48,6.48S257.763,405.448,257.763,401.869L257.763,401.869z"/>
		</g>
		<g id="CIRCLE_5_">
			<path fill="none" stroke="#010101" stroke-linecap="round" stroke-linejoin="round" stroke-miterlimit="10" d="M185.763,347.869
				c0-3.579-2.901-6.48-6.48-6.48s-6.479,2.901-6.479,6.48s2.9,6.48,6.479,6.48S185.763,351.448,185.763,347.869L185.763,347.869z"
				/>
		</g>
		<g id="CIRCLE_6_">
			<path fill="none" stroke="#010101" stroke-linecap="round" stroke-linejoin="round" stroke-miterlimit="10" d="M185.763,293.869
				c0-3.579-2.901-6.48-6.48-6.48s-6.479,2.901-6.479,6.48s2.9,6.48,6.479,6.48S185.763,297.448,185.763,293.869L185.763,293.869z"
				/>
		</g>
		<g id="CIRCLE_7_">
			<path fill="none" stroke="#010101" stroke-linecap="round" stroke-linejoin="round" stroke-miterlimit="10" d="M257.763,347.869
				c0-3.579-2.901-6.48-6.48-6.48s-6.48,2.901-6.48,6.48s2.901,6.48,6.48,6.48S257.763,351.448,257.763,347.869L257.763,347.869z"/>
		</g>
		<g id="CIRCLE_8_">
			<path fill="none" stroke="#010101" stroke-linecap="round" stroke-linejoin="round" stroke-miterlimit="10" d="M329.763,401.869
				c0-3.579-2.901-6.48-6.48-6.48s-6.48,2.901-6.48,6.48s2.901,6.48,6.48,6.48S329.763,405.448,329.763,401.869L329.763,401.869z"/>
		</g>
		<g id="LWPOLYLINE">
			<polygon fill="none" stroke="#010101" stroke-linecap="round" stroke-linejoin="round" stroke-miterlimit="10" points="
				382.322,383.869 382.322,455.869 120.242,455.869 120.242,383.869 107.282,383.869 107.282,311.869 120.242,311.869 
				120.242,252.829 215.282,252.829 215.282,239.869 287.282,239.869 287.282,252.829 382.322,252.829 382.322,311.869 
				395.282,311.869 395.282,383.869 			"/>
		</g>
	</g>
	<g>
		<g id="CIRCLE_18_">
			<path fill="none" stroke="#010101" stroke-linecap="round" stroke-linejoin="round" stroke-miterlimit="10" d="M321.12,84.132
				c0-3.579-2.901-6.48-6.48-6.48s-6.48,2.901-6.48,6.48s2.901,6.48,6.48,6.48S321.12,87.711,321.12,84.132L321.12,84.132z"/>
		</g>
		<g id="CIRCLE_19_">
			<path fill="none" stroke="#010101" stroke-linecap="round" stroke-linejoin="round" stroke-miterlimit="10" d="M177.12,192.132
				c0-3.579-2.901-6.48-6.48-6.48s-6.479,2.901-6.479,6.48s2.9,6.48,6.479,6.48S177.12,195.711,177.12,192.132L177.12,192.132z"/>
		</g>
		<g id="CIRCLE_20_">
			<path fill="none" stroke="#010101" stroke-linecap="round" stroke-linejoin="round" stroke-miterlimit="10" d="M249.12,192.132
				c0-3.579-2.901-6.48-6.48-6.48s-6.48,2.901-6.48,6.48s2.901,6.48,6.48,6.48S249.12,195.711,249.12,192.132L249.12,192.132z"/>
		</g>
		<g id="CIRCLE_21_">
			<path fill="none" stroke="#010101" stroke-linecap="round" stroke-linejoin="round" stroke-miterlimit="10" d="M321.12,138.132
				c0-3.579-2.901-6.48-6.48-6.48s-6.48,2.901-6.48,6.48s2.901,6.48,6.48,6.48S321.12,141.711,321.12,138.132L321.12,138.132z"/>
		</g>
		<g id="CIRCLE_22_">
			<path fill="none" stroke="#010101" stroke-linecap="round" stroke-linejoin="round" stroke-miterlimit="10" d="M249.12,84.132
				c0-3.579-2.901-6.48-6.48-6.48s-6.48,2.901-6.48,6.48s2.901,6.48,6.48,6.48S249.12,87.711,249.12,84.132L249.12,84.132z"/>
		</g>
		<g id="CIRCLE_23_">
			<path fill="none" stroke="#010101" stroke-linecap="round" stroke-linejoin="round" stroke-miterlimit="10" d="M177.12,138.132
				c0-3.579-2.901-6.48-6.48-6.48s-6.479,2.901-6.479,6.48s2.9,6.48,6.479,6.48S177.12,141.711,177.12,138.132L177.12,138.132z"/>
		</g>
		<g id="CIRCLE_24_">
			<path fill="none" stroke="#010101" stroke-linecap="round" stroke-linejoin="round" stroke-miterlimit="10" d="M321.12,192.132
				c0-3.579-2.901-6.48-6.48-6.48s-6.48,2.901-6.48,6.48s2.901,6.48,6.48,6.48S321.12,195.711,321.12,192.132L321.12,192.132z"/>
		</g>
		<g id="CIRCLE_25_">
			<path fill="none" stroke="#010101" stroke-linecap="round" stroke-linejoin="round" stroke-miterlimit="10" d="M249.12,138.132
				c0-3.579-2.901-6.48-6.48-6.48s-6.48,2.901-6.48,6.48s2.901,6.48,6.48,6.48S249.12,141.711,249.12,138.132L249.12,138.132z"/>
		</g>
		<g id="CIRCLE_26_">
			<path fill="none" stroke="#010101" stroke-linecap="round" stroke-linejoin="round" stroke-miterlimit="10" d="M177.12,84.132
				c0-3.579-2.901-6.48-6.48-6.48s-6.479,2.901-6.479,6.48s2.9,6.48,6.479,6.48S177.12,87.711,177.12,84.132L177.12,84.132z"/>
		</g>
		<g id="LWPOLYLINE_2_">
			<polygon fill="none" stroke="#010101" stroke-linecap="round" stroke-linejoin="round" stroke-miterlimit="10" points="
				111.6,228.132 111.6,174.132 98.64,174.132 98.64,102.132 111.6,102.132 111.6,48.132 373.68,48.132 373.68,102.132 
				386.64,102.132 386.64,174.132 373.68,174.132 373.68,228.132 278.64,228.132 278.64,215.172 206.64,215.172 206.64,228.132 			
				"/>
		</g>
	</g>
	<g>
		<g id="CIRCLE_27_">
			<path fill="none" stroke="#010101" stroke-linecap="round" stroke-linejoin="round" stroke-miterlimit="10" d="M565.204,192.851
				c0-3.579-2.901-6.48-6.48-6.48s-6.48,2.901-6.48,6.48s2.901,6.48,6.48,6.48S565.204,196.43,565.204,192.851L565.204,192.851z"/>
		</g>
		<g id="CIRCLE_28_">
			<path fill="none" stroke="#010101" stroke-linecap="round" stroke-linejoin="round" stroke-miterlimit="10" d="M457.204,138.851
				c0-3.579-2.901-6.48-6.48-6.48c-3.58,0-6.483,2.901-6.483,6.48s2.903,6.48,6.483,6.48
				C454.303,145.332,457.204,142.43,457.204,138.851L457.204,138.851z"/>
		</g>
		<g id="CIRCLE_29_">
			<path fill="none" stroke="#010101" stroke-linecap="round" stroke-linejoin="round" stroke-miterlimit="10" d="M457.204,84.851
				c0-3.579-2.901-6.48-6.48-6.48c-3.58,0-6.483,2.901-6.483,6.48s2.903,6.48,6.483,6.48
				C454.303,91.332,457.204,88.43,457.204,84.851L457.204,84.851z"/>
		</g>
		<g id="CIRCLE_30_">
			<path fill="none" stroke="#010101" stroke-linecap="round" stroke-linejoin="round" stroke-miterlimit="10" d="M511.204,138.851
				c0-3.579-2.901-6.48-6.48-6.48s-6.48,2.901-6.48,6.48s2.901,6.48,6.48,6.48S511.204,142.43,511.204,138.851L511.204,138.851z"/>
		</g>
		<g id="CIRCLE_31_">
			<path fill="none" stroke="#010101" stroke-linecap="round" stroke-linejoin="round" stroke-miterlimit="10" d="M565.204,138.851
				c0-3.579-2.901-6.48-6.48-6.48s-6.48,2.901-6.48,6.48s2.901,6.48,6.48,6.48S565.204,142.43,565.204,138.851L565.204,138.851z"/>
		</g>
		<g id="CIRCLE_32_">
			<path fill="none" stroke="#010101" stroke-linecap="round" stroke-linejoin="round" stroke-miterlimit="10" d="M457.204,192.851
				c0-3.579-2.901-6.48-6.48-6.48c-3.58,0-6.483,2.901-6.483,6.48s2.903,6.48,6.483,6.48
				C454.303,199.332,457.204,196.43,457.204,192.851L457.204,192.851z"/>
		</g>
		<g id="CIRCLE_33_">
			<path fill="none" stroke="#010101" stroke-linecap="round" stroke-linejoin="round" stroke-miterlimit="10" d="M511.204,84.851
				c0-3.579-2.901-6.48-6.48-6.48s-6.48,2.901-6.48,6.48s2.901,6.48,6.48,6.48S511.204,88.43,511.204,84.851L511.204,84.851z"/>
		</g>
		<g id="CIRCLE_34_">
			<path fill="none" stroke="#010101" stroke-linecap="round" stroke-linejoin="round" stroke-miterlimit="10" d="M511.204,192.851
				c0-3.579-2.901-6.48-6.48-6.48s-6.48,2.901-6.48,6.48s2.901,6.48,6.48,6.48S511.204,196.43,511.204,192.851L511.204,192.851z"/>
		</g>
		<g id="CIRCLE_35_">
			<path fill="none" stroke="#010101" stroke-linecap="round" stroke-linejoin="round" stroke-miterlimit="10" d="M565.204,84.851
				c0-3.579-2.901-6.48-6.48-6.48s-6.48,2.901-6.48,6.48s2.901,6.48,6.48,6.48S565.204,88.43,565.204,84.851L565.204,84.851z"/>
		</g>
		<g id="LWPOLYLINE_3_">
			<polygon fill="none" stroke="#010101" stroke-linecap="round" stroke-linejoin="round" stroke-miterlimit="10" points="
				396.718,174.851 409.678,174.851 409.678,102.851 396.718,102.851 396.718,48.851 612.724,48.851 612.724,228.851 
				540.724,228.851 540.724,215.891 468.724,215.891 468.724,228.851 396.718,228.851 			"/>
		</g>
	</g>
	<g>
		<g id="CIRCLE_36_">
			<path fill="none" stroke="#010101" stroke-linecap="round" stroke-linejoin="round" stroke-miterlimit="10" d="M573.841,401.651
				c0-3.579-2.901-6.48-6.48-6.48s-6.48,2.901-6.48,6.48s2.901,6.48,6.48,6.48S573.841,405.23,573.841,401.651L573.841,401.651z"/>
		</g>
		<g id="CIRCLE_37_">
			<path fill="none" stroke="#010101" stroke-linecap="round" stroke-linejoin="round" stroke-miterlimit="10" d="M465.841,347.651
				c0-3.579-2.901-6.48-6.48-6.48s-6.48,2.901-6.48,6.48s2.901,6.48,6.48,6.48S465.841,351.23,465.841,347.651L465.841,347.651z"/>
		</g>
		<g id="CIRCLE_38_">
			<path fill="none" stroke="#010101" stroke-linecap="round" stroke-linejoin="round" stroke-miterlimit="10" d="M465.841,293.651
				c0-3.579-2.901-6.48-6.48-6.48s-6.48,2.901-6.48,6.48s2.901,6.48,6.48,6.48S465.841,297.23,465.841,293.651L465.841,293.651z"/>
		</g>
		<g id="CIRCLE_39_">
			<path fill="none" stroke="#010101" stroke-linecap="round" stroke-linejoin="round" stroke-miterlimit="10" d="M519.841,347.651
				c0-3.579-2.901-6.48-6.48-6.48s-6.48,2.901-6.48,6.48s2.901,6.48,6.48,6.48S519.841,351.23,519.841,347.651L519.841,347.651z"/>
		</g>
		<g id="CIRCLE_40_">
			<path fill="none" stroke="#010101" stroke-linecap="round" stroke-linejoin="round" stroke-miterlimit="10" d="M573.841,347.651
				c0-3.579-2.901-6.48-6.48-6.48s-6.48,2.901-6.48,6.48s2.901,6.48,6.48,6.48S573.841,351.23,573.841,347.651L573.841,347.651z"/>
		</g>
		<g id="CIRCLE_41_">
			<path fill="none" stroke="#010101" stroke-linecap="round" stroke-linejoin="round" stroke-miterlimit="10" d="M465.841,401.651
				c0-3.579-2.901-6.48-6.48-6.48s-6.48,2.901-6.48,6.48s2.901,6.48,6.48,6.48S465.841,405.23,465.841,401.651L465.841,401.651z"/>
		</g>
		<g id="CIRCLE_42_">
			<path fill="none" stroke="#010101" stroke-linecap="round" stroke-linejoin="round" stroke-miterlimit="10" d="M519.841,293.651
				c0-3.579-2.901-6.48-6.48-6.48s-6.48,2.901-6.48,6.48s2.901,6.48,6.48,6.48S519.841,297.23,519.841,293.651L519.841,293.651z"/>
		</g>
		<g id="CIRCLE_43_">
			<path fill="none" stroke="#010101" stroke-linecap="round" stroke-linejoin="round" stroke-miterlimit="10" d="M519.841,401.651
				c0-3.579-2.901-6.48-6.48-6.48s-6.48,2.901-6.48,6.48s2.901,6.48,6.48,6.48S519.841,405.23,519.841,401.651L519.841,401.651z"/>
		</g>
		<g id="CIRCLE_44_">
			<path fill="none" stroke="#010101" stroke-linecap="round" stroke-linejoin="round" stroke-miterlimit="10" d="M573.841,293.651
				c0-3.579-2.901-6.48-6.48-6.48s-6.48,2.901-6.48,6.48s2.901,6.48,6.48,6.48S573.841,297.23,573.841,293.651L573.841,293.651z"/>
		</g>
		<g id="LWPOLYLINE_4_">
			<polygon fill="none" stroke="#010101" stroke-linecap="round" stroke-linejoin="round" stroke-miterlimit="10" points="
				405.36,383.651 418.32,383.651 418.32,311.651 405.36,311.651 405.36,257.651 621.36,257.651 621.36,437.651 549.36,437.651 
				549.36,424.691 477.36,424.691 477.36,437.651 405.36,437.651 			"/>
		</g>
	</g>
</g>
</svg>
